<svg width="22" height="22" version="1.1" xmlns="http://www.w3.org/2000/svg">
 <defs>
  <linearGradient id="a" x1="7.937" x2="7.937" y1="15.081" y2="1.852" gradientTransform="translate(.001 .016)scale(1.8897)" gradientUnits="userSpaceOnUse">
   <stop stop-color="#3377f4" offset="0"/>
   <stop stop-color="#5194f5" offset="1"/>
  </linearGradient>
 </defs>
 <rect width="22" height="22" rx="11" ry="11" fill="url(#a)"/>
 <path d="m10.084 0.037109c-0.30989 0.025317-0.61603 0.063013-0.91797 0.11328v1.6836h-2.75v-0.84375c-0.3136 0.14321-0.61923 0.30171-0.91602 0.47266v0.37109h-0.59961c-0.41841 0.27827-0.81627 0.5845-1.1914 0.91602h1.791v2.75h-2.75v-1.791c-0.33152 0.37514-0.63774 0.773-0.91602 1.1914v0.59961h-0.37109c-0.17095 0.29679-0.32945 0.60241-0.47266 0.91602h0.84375v2.75h-1.6836c-0.050268 0.30194-0.087964 0.60808-0.11328 0.91797h1.7969v2.75h-1.6836c0.051608 0.30999 0.11657 0.61552 0.19336 0.91602h1.4902v2.75h-0.37109c0.36912 0.64084 0.80075 1.2407 1.2871 1.791v-0.875h2.75v2.75h-0.59961c0.53022 0.35264 1.0934 0.66038 1.6836 0.91797h2.582v0.76562c0.30194 0.050269 0.60808 0.087965 0.91797 0.11328v-0.87891h2.75v0.76562c0.30999-0.051608 0.61552-0.11656 0.91602-0.19336v-0.57227h1.666c0.70917-0.30953 1.3789-0.6915 2-1.1367v-2.5312h2.5312c0.44521-0.62106 0.82719-1.2908 1.1367-2v-1.666h0.57227c0.076794-0.30049 0.14175-0.60603 0.19336-0.91602h-0.76562v-2.75h0.87891c-0.025317-0.30989-0.063013-0.61603-0.11328-0.91797h-0.76562v-2.582c-0.25759-0.59017-0.56533-1.1534-0.91797-1.6836v0.59961h-2.75v-2.75h0.875c-0.55035-0.48636-1.1502-0.91799-1.791-1.2871v0.37109h-2.75v-1.4902c-0.30049-0.076794-0.60603-0.14175-0.91602-0.19336v1.6836h-2.75v-1.7969zm-3.668 2.7129h2.75v2.75h-2.75v-2.75zm3.668 0h2.75v2.75h-2.75v-2.75zm3.666 0h2.75v2.75h-2.75v-2.75zm-11 3.666h2.75v2.75h-2.75v-2.75zm3.666 0h2.75v2.75h-2.75v-2.75zm3.668 0h2.75v2.75h-2.75v-2.75zm3.666 0h2.75v2.75h-2.75v-2.75zm3.666 0h2.75v2.75h-2.75v-2.75zm-14.666 3.668h2.75v2.75h-2.75v-2.75zm3.666 0h2.75v2.75h-2.75v-2.75zm3.668 0h2.75v2.75h-2.75v-2.75zm3.666 0h2.75v2.75h-2.75v-2.75zm3.666 0h2.75v2.75h-2.75v-2.75zm-14.666 3.666h2.75v2.75h-2.75v-2.75zm3.666 0h2.75v2.75h-2.75v-2.75zm3.668 0h2.75v2.75h-2.75v-2.75zm3.666 0h2.75v2.75h-2.75v-2.75zm3.666 0h2.75v2.75h-2.75v-2.75zm-11 3.666h2.75v2.75h-2.75v-2.75zm3.668 0h2.75v2.75h-2.75v-2.75zm3.666 0h2.75v2.75h-2.75v-2.75z" fill="#fff" opacity=".1"/>
 <path d="M8.375 15c1.328-1.375 2.54-2.805 2.696-3.177.155-.372.766-1.107 1.358-1.633 1.549-1.378 2.452-1.27 3.23.386.198.422.471.767.606.767.31 0 1.735-1.381 1.735-1.68 0-.389-.731-1.057-1.156-1.057-.448 0-.876-.64-.876-1.307 0-.506-1.4-1.915-2.416-2.431-.485-.246-1.318-.368-2.527-.368-1.828 0-2.592.302-1.422.561.351.078 1.013.453 1.47.834 1.176.98 1.129 1.715-.213 3.302-.574.678-1.184 1.233-1.356 1.233-.38 0-5.504 4.739-5.504 5.09 0 .266 1.573 1.98 1.817 1.98.079 0 1.23-1.125 2.558-2.5" fill="#fff" style="-inkscape-stroke:none;font-variation-settings:normal;isolation:auto;mix-blend-mode:normal"/>
</svg>
