<svg width="22" height="22" version="1.1" xmlns="http://www.w3.org/2000/svg">
 <defs>
  <linearGradient id="a" x1="7.937" x2="7.937" y1="15.081" y2="1.852" gradientTransform="translate(.001 .015)scale(1.8897)" gradientUnits="userSpaceOnUse">
   <stop stop-color="#8e8d92" offset="0"/>
   <stop stop-color="#b3b2b6" offset="1"/>
  </linearGradient>
  <filter id="b" x="-.432" y="-.432" width="1.864" height="1.864" color-interpolation-filters="sRGB">
   <feGaussianBlur stdDeviation=".18"/>
  </filter>
 </defs>
 <rect width="22" height="22" rx="11" ry="11" fill="url(#a)"/>
 <path d="m1.0527 15.715c1.7595 3.722 5.5426 6.2852 9.9473 6.2852 4.4046 0 8.1878-2.5631 9.9473-6.2852h-19.895z" fill="#fff" opacity=".35" style="paint-order:stroke fill markers"/>
 <path d="m0.7168 14.93c0.10161 0.2672 0.21462 0.52851 0.33594 0.78516h19.895c0.12132-0.25664 0.23433-0.51795 0.33594-0.78516h-20.566z" opacity=".15" style="paint-order:stroke fill markers"/>
 <rect x="2.357" y="12.571" width="3.143" height="3.143" rx=".786" ry=".786" fill="#fff" stroke-width=".78571"/>
 <rect x="7.071" y="14.143" width="3.143" height="3.143" rx=".786" ry=".786" fill="#fff" stroke-width=".78571"/>
 <rect x="11.786" y="14.143" width="3.143" height="3.143" rx=".786" ry=".786" fill="#fff" stroke-width=".78571"/>
 <rect x="16.5" y="14.143" width="3.143" height="3.143" rx=".786" ry=".786" fill="#fff" stroke-width=".78571"/>
 <circle transform="translate(-1.571 -1.571)scale(.78571)" cx="7" cy="23.5" r=".5" fill="#0ff" filter="url(#b)"/>
 <circle cx="3.929" cy="16.893" r=".393" fill="#32ddff" stroke-width=".78571"/>
</svg>
