<svg width="22" height="22" version="1.1" xmlns="http://www.w3.org/2000/svg">
 <defs>
  <linearGradient id="a" x1="7.937" x2="7.937" y1="15.081" y2="1.852" gradientTransform="translate(.001 .015)scale(1.88973)" gradientUnits="userSpaceOnUse">
   <stop stop-color="#8e8d92" offset="0"/>
   <stop stop-color="#b3b2b6" offset="1"/>
  </linearGradient>
 </defs>width="3" height="3" x="7" y="5" rx="1.5" ry="1.5" style="fill:#fff;fill-rule:evenodd;stroke-linecap:round;stroke-linejoin:round;paint-order:stroke fill markers"/&gt;
 <rect width="22" height="22" rx="11" ry="11" fill="url(#a)" stroke-width=".49998"/>
 <circle cx="5" cy="4" r="1" fill="#fff" stroke-linecap="round" stroke-linejoin="round" stroke-width=".83157"/>
 <path d="M11 4 9 8h4zM8 9l-4 2 4 2zm6 0v4l4-2zm-3 1c-.554 0-1 .446-1 1s.446 1 1 1 1-.446 1-1-.446-1-1-1m-2 4 2 4 2-4z" fill="#fff" stroke-width=".1"/>
 <path d="m1.0527 6.2832c1.7595-3.722 5.5426-6.2852 9.9473-6.2852 4.4046 0 8.1878 2.5631 9.9473 6.2852z" fill="#fff" opacity=".35" style="paint-order:stroke fill markers"/>
 <path d="m0.7168 7.0683c0.10161-0.2672 0.21462-0.52851 0.33594-0.78516h19.895c0.12132 0.25664 0.23433 0.51795 0.33594 0.78516z" opacity=".15" style="paint-order:stroke fill markers"/>
</svg>
