<?xml version="1.0" encoding="UTF-8"?>
<svg version="1.1" xmlns="http://www.w3.org/2000/svg" width="273" height="271">
<path d="M0 0 C1.47583955 0.0001591 2.95168467 0.00585225 4.42749023 0.01586914 C5.20293686 0.01728409 5.97838348 0.01869904 6.77732849 0.02015686 C9.26361893 0.02577194 11.74982059 0.03832693 14.23608398 0.05102539 C15.91772331 0.05603845 17.59936405 0.06060169 19.28100586 0.06469727 C23.41189965 0.07574626 27.54272674 0.09302094 31.67358398 0.11352539 C32.61917609 8.53141949 32.8163621 16.85250099 32.80297852 25.31811523 C32.80433677 26.71062261 32.80611907 28.10312963 32.80828857 29.49563599 C32.81280993 33.24314379 32.81109604 36.99062377 32.80790949 40.738132 C32.80536135 44.67288502 32.80772994 48.6076358 32.80929565 52.54238892 C32.81110893 59.14081242 32.80873184 65.73922469 32.80395508 72.33764648 C32.79850052 79.96027725 32.80028714 87.58288132 32.80578148 95.20551145 C32.81032048 101.76626895 32.81095971 108.32701841 32.80834281 114.88777697 C32.80678612 118.79961308 32.80656991 122.71143664 32.8098793 126.62327194 C32.8127699 130.29559709 32.81076045 133.96788777 32.80498505 137.6402092 C32.80303522 139.62750959 32.80600028 141.6148129 32.80911255 143.60211182 C32.80629272 144.78789825 32.8034729 145.97368469 32.80056763 147.19540405 C32.80000209 148.73779534 32.80000209 148.73779534 32.79942513 150.31134605 C32.67680675 153.04176216 32.41424197 155.48173864 31.67358398 158.11352539 C28.70288772 159.59887352 25.68010084 159.25070387 22.42321777 159.24050903 C21.66746287 159.24206902 20.91170796 159.24362901 20.1330514 159.24523628 C17.58729794 159.24924169 15.04160356 159.24605839 12.49584961 159.24291992 C10.67616236 159.24427417 8.85647539 159.24605423 7.03678894 159.24822998 C2.08444488 159.25280156 -2.86787842 159.25101587 -7.82022285 159.24785089 C-12.99363386 159.24532588 -18.16704303 159.24766523 -23.3404541 159.24923706 C-32.02962565 159.25105834 -40.71878872 159.24865353 -49.40795898 159.24389648 C-59.46563507 159.23845395 -69.52329088 159.24021663 -79.58096647 159.24572289 C-88.20347375 159.2502552 -96.82597491 159.25090399 -105.44848299 159.24828422 C-110.60393894 159.2467221 -115.75938535 159.24652592 -120.9148407 159.24982071 C-125.76074361 159.25270112 -130.6066203 159.25072057 -135.45252037 159.24492645 C-137.23516992 159.24359977 -139.01782166 159.24399142 -140.80047035 159.24618912 C-143.22569371 159.24890421 -145.65083194 159.24551504 -148.0760498 159.24050903 C-149.14500307 159.24385512 -149.14500307 159.24385512 -150.23555136 159.2472688 C-155.09811583 159.22767548 -155.09811583 159.22767548 -157.32641602 158.11352539 C-159.00083462 132.608542 -159.00083462 132.608542 -157.32641602 125.11352539 C-153.99713478 124.00376498 -151.52614245 123.99321644 -148.01904297 124 C-146.71792068 124.00007553 -145.4167984 124.00015106 -144.07624817 124.00022888 C-142.65573081 124.00533554 -141.23521385 124.01055154 -139.81469727 124.01586914 C-138.3616694 124.01773448 -136.9086409 124.01915783 -135.45561218 124.02015686 C-131.63335429 124.02397293 -127.81113447 124.03379546 -123.9888916 124.04486084 C-120.0877331 124.05509452 -116.18656845 124.05965868 -112.28540039 124.06469727 C-104.63238826 124.07541854 -96.97940747 124.09248404 -89.32641602 124.11352539 C-89.32641602 121.14352539 -89.32641602 118.17352539 -89.32641602 115.11352539 C-91.42895752 115.13709106 -91.42895752 115.13709106 -93.57397461 115.16113281 C-98.81089454 115.21573434 -104.04778966 115.24998499 -109.28491211 115.27832031 C-111.54472089 115.29333834 -113.80450086 115.31375884 -116.06420898 115.33984375 C-119.32616315 115.37653534 -122.58772948 115.39332214 -125.84985352 115.40649414 C-126.84818207 115.421978 -127.84651062 115.43746185 -128.87509155 115.45341492 C-137.85279171 115.45553343 -146.21177063 114.16603536 -152.92407227 107.78540039 C-158.13601797 101.57171581 -158.44487084 93.70762628 -158.48754883 85.96582031 C-158.49251373 85.27714371 -158.49747864 84.5884671 -158.50259399 83.87892151 C-158.51711054 81.61726861 -158.52399974 79.35568583 -158.52954102 77.09399414 C-158.53378208 75.92758109 -158.53378208 75.92758109 -158.53810883 74.73760414 C-158.55305845 70.62291758 -158.56231473 66.5082657 -158.56665039 62.39355469 C-158.57213052 58.1638078 -158.59616087 53.93438353 -158.62462234 49.70473766 C-158.64333022 46.43344724 -158.64845863 43.16223332 -158.64998627 39.89089394 C-158.65299467 38.33251493 -158.66096126 36.77413669 -158.67417145 35.21581078 C-158.74849296 25.77532827 -158.54272695 17.77423263 -153.76391602 9.36352539 C-144.06476999 0.41046752 -133.05574013 1.45502056 -120.66235352 1.62524414 C-118.65883267 1.63458267 -116.65530032 1.64169386 -114.65176392 1.64668274 C-109.40724541 1.66567066 -104.16343167 1.71470007 -98.91918945 1.77020264 C-93.55633067 1.82157296 -88.19335676 1.84423462 -82.83032227 1.86938477 C-72.32871245 1.9228273 -61.8276231 2.00803971 -51.32641602 2.11352539 C-50.13676149 5.68248895 -50.20151876 8.91296006 -50.22875977 12.62524414 C-50.22976685 13.2709436 -50.23077393 13.91664307 -50.23181152 14.58190918 C-50.23703391 16.98829938 -50.25099519 19.39466421 -50.26391602 21.80102539 C-50.28454102 27.18415039 -50.30516602 32.56727539 -50.32641602 38.11352539 C-35.14641602 38.44352539 -19.96641602 38.77352539 -4.32641602 39.11352539 C-4.36601948 26.65268844 -4.36601948 26.65268844 -4.41650391 14.19189453 C-4.41942307 12.63582426 -4.42197162 11.07975323 -4.42407227 9.52368164 C-4.42918823 8.70830933 -4.4343042 7.89293701 -4.4395752 7.05285645 C-4.43988542 5.07272016 -4.38879698 3.09267885 -4.32641602 1.11352539 C-3.32641602 0.11352539 -3.32641602 0.11352539 0 0 Z M-102.57226562 35.4309082 C-103.94457016 35.46916737 -105.31697393 35.5040257 -106.68945312 35.53540039 C-108.66892661 35.58120718 -110.64808158 35.64017835 -112.62719727 35.69946289 C-113.81482666 35.73088379 -115.00245605 35.76230469 -116.22607422 35.79467773 C-119.23016617 36.10362679 -120.92812921 36.30511625 -123.32641602 38.11352539 C-125.65064727 42.15349029 -125.60419433 46.20889096 -125.55688477 50.75024414 C-125.55642654 51.47089554 -125.55596832 52.19154694 -125.55549622 52.93403625 C-125.55248755 54.44936786 -125.54464296 55.96469675 -125.53222656 57.47998047 C-125.51389331 59.80390308 -125.51171761 62.12742839 -125.51196289 64.45141602 C-125.50704995 65.92602885 -125.50122261 67.40063898 -125.49438477 68.87524414 C-125.49327194 69.57107101 -125.49215912 70.26689789 -125.49101257 70.98381042 C-125.50138669 74.67267843 -125.50138669 74.67267843 -124.32641602 78.11352539 C-123.66641602 78.11352539 -123.00641602 78.11352539 -122.32641602 78.11352539 C-122.32641602 78.77352539 -122.32641602 79.43352539 -122.32641602 80.11352539 C-111.43641602 80.11352539 -100.54641602 80.11352539 -89.32641602 80.11352539 C-89.32641602 65.26352539 -89.32641602 50.41352539 -89.32641602 35.11352539 C-93.74115561 35.11352539 -98.15979635 35.30235387 -102.57226562 35.4309082 Z M-51.32641602 73.11352539 C-51.32641602 89.28352539 -51.32641602 105.45352539 -51.32641602 122.11352539 C-43.03516602 122.23727539 -43.03516602 122.23727539 -34.57641602 122.36352539 C-32.83779297 122.39994141 -31.09916992 122.43635742 -29.30786133 122.47387695 C-27.92343378 122.48556388 -26.53899245 122.49575571 -25.15454102 122.50415039 C-24.44088379 122.52461426 -23.72722656 122.54507813 -22.99194336 122.56616211 C-19.57515572 122.56855649 -17.67373823 122.36809876 -14.88354492 120.32299805 C-11.36752372 115.33397454 -12.1604776 107.9197389 -12.20141602 101.98852539 C-12.2055249 101.25859375 -12.20963379 100.52866211 -12.21386719 99.77661133 C-11.60405053 86.18831765 -11.60405053 86.18831765 -16.32641602 74.11352539 C-19.94203621 72.7408352 -23.6777741 73.00021128 -27.49829102 73.01586914 C-28.74707031 73.0183667 -29.99584961 73.02086426 -31.2824707 73.0234375 C-33.65547363 73.03709351 -33.65547363 73.03709351 -36.07641602 73.05102539 C-41.10891602 73.07165039 -46.14141602 73.09227539 -51.32641602 73.11352539 Z " fill="#04FD08" transform="translate(197.326416015625,56.886474609375)"/>
<path d="M0 0 C0.75256482 0.0097627 1.50512964 0.01952539 2.28049946 0.02958393 C3.15114788 0.03105144 4.0217963 0.03251894 4.91882801 0.03403091 C5.86844158 0.05619454 6.81805515 0.07835817 7.79644489 0.10119343 C8.80568264 0.10878209 9.81492039 0.11637075 10.8547411 0.12418938 C14.22098867 0.15437852 17.58610561 0.21336265 20.95196247 0.27233601 C23.32774187 0.29940184 25.70354202 0.32469761 28.0793581 0.34832478 C34.43939454 0.41664093 40.79884156 0.50977578 47.15847492 0.60816288 C53.69363946 0.70558313 60.22904903 0.78190214 66.76446247 0.86047077 C77.08155578 0.98719903 87.39837727 1.12742877 97.71514606 1.27819538 C108.95078552 1.44210717 120.18639845 1.57644906 131.42265987 1.68872356 C136.71957356 1.742961 142.01638681 1.80590281 147.31319904 1.86916828 C150.03646264 1.90158971 152.75973132 1.93061564 155.48305988 1.95699787 C159.15649566 1.99513022 162.82952379 2.04570737 166.50274372 2.10046101 C167.55230747 2.10886005 168.60187122 2.1172591 169.68323994 2.12591267 C170.62076603 2.14256977 171.55829212 2.15922688 172.5242281 2.17638874 C173.73387226 2.19184994 173.73387226 2.19184994 174.96795368 2.20762348 C176.90899372 2.47936726 176.90899372 2.47936726 178.90899372 4.47936726 C117.85899372 4.47936726 56.80899372 4.47936726 -6.09100628 4.47936726 C-2.09100628 0.47936726 -2.09100628 0.47936726 0 0 Z " fill="#1CE326" transform="translate(48.0910062789917,211.52063274383545)"/>
<path d="M0 0 C9.57 0 19.14 0 29 0 C29.65886842 7.24755267 30.14896113 14.20591746 30.1328125 21.44140625 C30.13479141 22.87944107 30.13479141 22.87944107 30.1368103 24.3465271 C30.13870491 27.41855243 30.13244113 30.49048417 30.125 33.5625 C30.12411377 34.6059256 30.12322754 35.6493512 30.12231445 36.72439575 C30.10653828 52.50284669 29.88151031 68.24300318 29 84 C26.48806657 81.48806657 26.76289246 79.97062602 26.74787903 76.54405212 C26.75502426 75.7844368 26.76216949 75.02482147 26.76953125 74.2421875 C26.76967476 73.04264183 26.76967476 73.04264183 26.76982117 71.81886292 C26.77358013 69.17076331 26.79261474 66.52302406 26.8125 63.875 C26.81937787 62.04305147 26.82588383 60.21110151 26.83203125 58.37915039 C26.92237513 39.24649704 27.4276279 20.12336065 28 1 C18.76 1 9.52 1 0 1 C0 0.67 0 0.34 0 0 Z " fill="#21E31E" transform="translate(200,57)"/>
<path d="M0 0 C0.33 0 0.66 0 1 0 C1.07402368 5.65996416 1.12854173 11.31964811 1.16479492 16.97998047 C1.17990395 18.90646267 1.20039214 20.83291035 1.22631836 22.75927734 C1.26260925 25.52450057 1.27970479 28.28927004 1.29296875 31.0546875 C1.30845261 31.9193161 1.32393646 32.7839447 1.33988953 33.67477417 C1.34057617 36.10107422 1.34057617 36.10107422 1 40 C-2.74524263 42.49682842 -4.51782813 42.17352994 -8.9765625 42.01171875 C-9.66124603 41.98906448 -10.34592957 41.96641022 -11.05136108 41.94306946 C-12.50235356 41.89312659 -13.95318067 41.83816389 -15.40380859 41.77856445 C-17.59578325 41.68869783 -19.78785469 41.61341093 -21.98046875 41.54101562 C-29.02437135 41.29364442 -36.0061641 40.91941438 -43 40 C-43 39.67 -43 39.34 -43 39 C-29.14 39 -15.28 39 -1 39 C-1.03960346 26.53916305 -1.03960346 26.53916305 -1.09008789 14.07836914 C-1.09300705 12.52229887 -1.09555561 10.96622784 -1.09765625 9.41015625 C-1.10277222 8.59478394 -1.10788818 7.77941162 -1.11315918 6.93933105 C-1.1134694 4.95919477 -1.06238096 2.97915346 -1 1 C-0.67 0.67 -0.34 0.34 0 0 Z " fill="#35CB30" transform="translate(194,57)"/>
<path d="M0 0 C0.66 0 1.32 0 2 0 C2.02319011 8.51897428 2.04094909 17.03793534 2.05181217 25.5569334 C2.0570264 29.51282048 2.06409754 33.46868592 2.07543945 37.42456055 C2.08632021 41.2435763 2.09228784 45.06257127 2.09487724 48.88160133 C2.09672214 50.33721048 2.10032474 51.79281852 2.10573006 53.24841881 C2.11300936 55.29023047 2.11398804 57.33195671 2.11352539 59.3737793 C2.115746 60.53515915 2.11796661 61.696539 2.12025452 62.89311218 C2.01089009 65.71864428 1.64888537 68.25406367 1 71 C0.34 71 -0.32 71 -1 71 C-0.67 47.57 -0.34 24.14 0 0 Z " fill="#10F50C" transform="translate(228,144)"/>
<path d="M0 0 C1.0209375 0.2165625 1.0209375 0.2165625 2.0625 0.4375 C9.2293975 1.80988463 16.11209756 2.19876618 23.40234375 2.31640625 C24.48004532 2.33718735 25.55774689 2.35796844 26.66810608 2.37937927 C30.09117612 2.44446161 33.51431912 2.50356673 36.9375 2.5625 C39.26628341 2.60572455 41.5950596 2.64934007 43.92382812 2.69335938 C49.61580959 2.80010035 55.30786269 2.90194147 61 3 C61 5.64 61 8.28 61 11 C60.67 11 60.34 11 60 11 C59.505 8.03 59.505 8.03 59 5 C58.13128769 5.00999275 58.13128769 5.00999275 57.24502563 5.02018738 C51.17724195 5.08693694 45.10956383 5.13196384 39.04150391 5.16479492 C36.78169513 5.17981295 34.52191516 5.20023345 32.26220703 5.22631836 C29.00025286 5.26300995 25.73868653 5.27979675 22.4765625 5.29296875 C21.47823395 5.30845261 20.4799054 5.32393646 19.45132446 5.33988953 C12.98804918 5.3414147 6.96320093 4.66602732 1 2 C0.67 1.34 0.34 0.68 0 0 Z " fill="#3DEC3A" transform="translate(49,167)"/>
<path d="M0 0 C0.89805862 -0.00043808 1.79611725 -0.00087616 2.72138977 -0.00132751 C5.6812638 0.0007577 8.64056706 0.02407634 11.6003418 0.04760742 C13.65585521 0.05320432 15.71137263 0.05747398 17.76689148 0.06047058 C23.17073664 0.07191193 28.57433899 0.10137317 33.97808838 0.13458252 C39.49471757 0.1652986 45.01138608 0.17897922 50.52807617 0.1940918 C61.34784417 0.22624341 72.16743215 0.27743133 82.98706055 0.34057617 C82.98706055 0.67057617 82.98706055 1.00057617 82.98706055 1.34057617 C81.85144684 1.34866302 80.71583313 1.35674988 79.54580688 1.36508179 C68.86240719 1.44244611 58.17913637 1.53016048 47.49590492 1.62810326 C42.00307381 1.67812573 36.5102625 1.7244551 31.01733398 1.76245117 C25.71991443 1.79922896 20.42265816 1.84556812 15.12537766 1.89863968 C13.10073068 1.91722366 11.07604865 1.93231669 9.05134964 1.94392014 C6.22327066 1.9607143 3.39556893 1.98973223 0.56762695 2.02172852 C-0.69796303 2.0249688 -0.69796303 2.0249688 -1.98912048 2.02827454 C-6.47416823 1.90526822 -6.47416823 1.90526822 -10.01293945 4.34057617 C-12.13793945 3.96557617 -12.13793945 3.96557617 -14.01293945 3.34057617 C-9.40901921 -0.17463625 -5.54327911 -0.07098356 0 0 Z " fill="#24E625" transform="translate(62.012939453125,59.659423828125)"/>
<path d="M0 0 C1.9375 0.3125 1.9375 0.3125 4 1 C4.33 1.99 4.66 2.98 5 4 C7.01508358 4.73323796 7.01508358 4.73323796 9 5 C8.67 5.99 8.34 6.98 8 8 C7.34 7.67 6.68 7.34 6 7 C6.01160156 8.26972656 6.02320313 9.53945312 6.03515625 10.84765625 C6.22272098 39.99123689 6.22272098 39.99123689 3 47 C2.34 46.67 1.68 46.34 1 46 C1.144375 45.47535156 1.28875 44.95070312 1.4375 44.41015625 C4.42517066 31.9407808 5.39406731 11.84063556 0 0 Z " fill="#27E121" transform="translate(181,131)"/>
<path d="M0 0 C1.6097168 0.01450195 1.6097168 0.01450195 3.25195312 0.02929688 C4.37150391 0.05443359 5.49105469 0.07957031 6.64453125 0.10546875 C7.77568359 0.11900391 8.90683594 0.13253906 10.07226562 0.14648438 C12.86766442 0.18186917 15.66211017 0.23123927 18.45703125 0.29296875 C18.45703125 0.95296875 18.45703125 1.61296875 18.45703125 2.29296875 C12.8217616 3.49781597 7.3116701 3.40593305 1.58203125 3.35546875 C0.6075 3.35095703 -0.36703125 3.34644531 -1.37109375 3.34179688 C-3.76178309 3.33007781 -6.15234315 3.31367094 -8.54296875 3.29296875 C-5.97630373 -0.00376988 -4.07133561 -0.06462437 0 0 Z " fill="#05FB24" transform="translate(141.54296875,212.70703125)"/>
<path d="M0 0 C0.33 0 0.66 0 1 0 C1 4.95 1 9.9 1 15 C5.29 15.66 9.58 16.32 14 17 C14 17.33 14 17.66 14 18 C8.72 18 3.44 18 -2 18 C-1.85980308 15.18711295 -1.71312045 12.37483115 -1.5625 9.5625 C-1.52318359 8.76005859 -1.48386719 7.95761719 -1.44335938 7.13085938 C-1.11328125 1.11328125 -1.11328125 1.11328125 0 0 Z " fill="#17F013" transform="translate(146,80)"/>
<path d="M0 0 C0.33 0 0.66 0 1 0 C1.02714735 2.22909871 1.04646254 4.45829367 1.0625 6.6875 C1.07410156 7.92886719 1.08570313 9.17023438 1.09765625 10.44921875 C1.01478673 13.46235454 0.70839449 16.08275339 0 19 C-0.66 19 -1.32 19 -2 19 C-1.85761163 16.95809019 -1.71092972 14.91647955 -1.5625 12.875 C-1.48128906 11.73804688 -1.40007812 10.60109375 -1.31640625 9.4296875 C-1.02269035 6.2459522 -0.56875687 3.14489093 0 0 Z " fill="#47F144" transform="translate(229,196)"/>
<path d="M0 0 C0.68449219 0.14308594 1.36898437 0.28617188 2.07421875 0.43359375 C5.31053736 1.06011738 8.55335919 1.56869079 11.8125 2.0625 C13.55466797 2.32740234 13.55466797 2.32740234 15.33203125 2.59765625 C16.21246094 2.73042969 17.09289062 2.86320313 18 3 C14.66696848 5.067714 12.79091391 5.10526716 9 4.25 C7.7315625 3.97929687 7.7315625 3.97929687 6.4375 3.703125 C4.10268399 3.02962038 2.12760344 2.16230188 0 1 C0 0.67 0 0.34 0 0 Z " fill="#27E527" transform="translate(49,167)"/>
<path d="M0 0 C1.32547852 0.02030273 1.32547852 0.02030273 2.67773438 0.04101562 C4.84792023 0.07620783 7.01779033 0.13001015 9.1875 0.1875 C9.1875 0.5175 9.1875 0.8475 9.1875 1.1875 C7.27324219 1.26097656 7.27324219 1.26097656 5.3203125 1.3359375 C3.65101928 1.41096191 1.98174954 1.48650988 0.3125 1.5625 C-0.95013672 1.60890625 -0.95013672 1.60890625 -2.23828125 1.65625 C-3.44677734 1.71425781 -3.44677734 1.71425781 -4.6796875 1.7734375 C-5.42331543 1.8048584 -6.16694336 1.8362793 -6.93310547 1.86865234 C-9.05260974 2.04169551 -9.05260974 2.04169551 -10.8125 4.1875 C-12.9375 3.8125 -12.9375 3.8125 -14.8125 3.1875 C-10.08463037 -0.54193753 -5.7302468 -0.16665147 0 0 Z " fill="#2FD82C" transform="translate(62.8125,59.8125)"/>
</svg>
