<?xml version="1.0" encoding="UTF-8" standalone="no"?>
<svg
   height="128px"
   viewBox="0 0 128 128"
   width="128px"
   version="1.1"
   id="svg8"
   sodipodi:docname="android.svg"
   inkscape:version="1.2.2 (b0a8486541, 2022-12-01)"
   xml:space="preserve"
   xmlns:inkscape="http://www.inkscape.org/namespaces/inkscape"
   xmlns:sodipodi="http://sodipodi.sourceforge.net/DTD/sodipodi-0.dtd"
   xmlns="http://www.w3.org/2000/svg"
   xmlns:svg="http://www.w3.org/2000/svg"><defs
     id="defs8"><radialGradient
       id="b"
       cx="48.424"
       cy="-48.028"
       r="38.213001"
       gradientTransform="matrix(0,1.9745065,-3.186569,0.00181349,-90.777903,-58.011315)"
       gradientUnits="userSpaceOnUse"><stop
         offset="0"
         stop-color="#fafafa"
         id="stop7" /><stop
         offset="1"
         stop-color="#e6e6e6"
         id="stop8" /></radialGradient></defs><sodipodi:namedview
     id="namedview8"
     pagecolor="#ffffff"
     bordercolor="#000000"
     borderopacity="0.25"
     inkscape:showpageshadow="2"
     inkscape:pageopacity="0.0"
     inkscape:pagecheckerboard="0"
     inkscape:deskcolor="#d1d1d1"
     inkscape:zoom="3.1656572"
     inkscape:cx="78.498708"
     inkscape:cy="24.639433"
     inkscape:window-width="1920"
     inkscape:window-height="943"
     inkscape:window-x="0"
     inkscape:window-y="32"
     inkscape:window-maximized="1"
     inkscape:current-layer="svg8"
     showgrid="false" /><linearGradient
     id="a"
     gradientTransform="matrix(0.45451 0 0 0.455522 -1210.292114 616.172607)"
     gradientUnits="userSpaceOnUse"
     x1="2689.251953"
     x2="2918.069824"
     y1="-1106.802979"
     y2="-1106.802979"><stop
       offset="0"
       stop-color="#62a0ea"
       id="stop1"
       style="stop-color:#64aa6b;stop-opacity:1;" /><stop
       offset="0.0576991"
       stop-color="#afd4ff"
       id="stop2" /><stop
       offset="0.122204"
       stop-color="#62a0ea"
       id="stop3" /><stop
       offset="0.873306"
       stop-color="#62a0ea"
       id="stop4" /><stop
       offset="0.955997"
       stop-color="#c0d5ea"
       id="stop5" /><stop
       offset="1"
       stop-color="#62a0ea"
       id="stop6" /></linearGradient><path
     d="m 21.976562 12 c -5.527343 0 -9.976562 4.460938 -9.976562 10 v 86.03125 c 0 5.542969 4.449219 10 9.976562 10 h 84.042969 c 5.53125 0 9.980469 -4.457031 9.980469 -10 v -72.085938 c 0 -6.628906 -5.359375 -12 -11.972656 -12 h -46.027344 c -2.453125 0 -4.695312 -1.386718 -5.796875 -3.582031 l -1.503906 -2.992187 c -1.65625 -3.292969 -5.019531 -5.371094 -8.699219 -5.371094 z m 0 0"
     fill="#438de6"
     id="path6"
     inkscape:label="back"
     style="fill:#262728;fill-opacity:0.81960785" /><path
     d="m 65.976562 32 c -2.746093 0 -5.226562 1.101562 -7.027343 2.890625 c -2.273438 2.253906 -5.382813 5.109375 -8.632813 5.109375 h -28.339844 c -5.527343 0 -9.976562 4.460938 -9.976562 10 v 55.976562 c 0 5.539063 4.449219 10 9.976562 10 h 84.042969 c 5.53125 0 9.980469 -4.460937 9.980469 -10 v -63.976562 c 0 -5.539062 -4.449219 -10 -9.980469 -10 z m 0 0"
     fill="#a4caee"
     id="path8"
     inkscape:label="front"
     style="fill:#262728;fill-opacity:1" /><path
     d="m 40.524966,53.973007 c 8.224307,0 8.224307,0 9.769217,1.361739 0.115386,0.128218 0.230669,0.256429 0.349495,0.388529 0.132494,0.145019 0.264989,0.29004 0.401501,0.439453 0.268275,0.314535 0.527565,0.635522 0.778051,0.961893 1.130138,1.467689 2.430852,2.523791 4.412368,2.883792 0.528143,0.02208 1.057031,0.03087 1.585726,0.03124 0.480204,0.0011 0.480204,0.0011 0.970112,0.0024 0.345606,-4.83e-4 0.691211,-9.64e-4 1.047289,-0.0015 0.360969,1.63e-4 0.721938,3.86e-4 1.082906,7.01e-4 0.757464,3.62e-4 1.514929,-1.6e-4 2.272393,-0.0013 0.96204,-0.0014 1.924054,-5.81e-4 2.88608,8.68e-4 0.746632,8.93e-4 1.493251,5.81e-4 2.239882,-3e-5 0.524408,-2.36e-4 1.048829,4.83e-4 1.57325,0.0012 5.478191,0.01603 5.478191,0.01603 10.064317,-2.430731 0.746812,-0.732341 1.344854,-1.535695 1.936786,-2.374555 0.476598,-0.588503 0.805852,-0.894898 1.502004,-1.263692 0.903114,-0.08222 0.903114,-0.08222 1.967987,-0.07074 0.281431,0.0015 0.281431,0.0015 0.56856,0.0031 0.596951,0.004 1.193646,0.01306 1.790533,0.02235 0.405659,0.0035 0.811319,0.007 1.216979,0.0099 0.992497,0.0074 1.984454,0.02151 2.976951,0.03536 0,1.593346 0,3.186693 0,4.828324 -0.431817,0.224999 -0.863621,0.449997 -1.308517,0.681813 -1.87333,0.977121 -3.744787,1.957134 -5.614805,2.939431 -0.286616,0.150544 -0.573232,0.301087 -0.868538,0.456191 -0.78769,0.414771 -1.574136,0.831411 -2.360132,1.248812 -0.351471,0.18494 -0.351471,0.18494 -0.710039,0.373617 -1.423146,0.758981 -2.752033,1.582585 -4.049743,2.508289 0.173463,-0.09074 0.34694,-0.181469 0.525666,-0.274952 0.368977,-0.192994 0.368977,-0.192994 0.745412,-0.389886 0.277131,-0.144959 0.554262,-0.289922 0.8398,-0.439276 0.61723,-0.322828 1.234473,-0.645625 1.851754,-0.968376 1.48057,-0.774193 2.960972,-1.548648 4.440412,-2.324636 0.477048,-0.250206 0.954172,-0.500297 1.43131,-0.750355 0.602649,-0.315889 1.205171,-0.631996 1.807538,-0.948338 0.273794,-0.143445 0.547575,-0.286887 0.82966,-0.434679 0.240411,-0.12614 0.480809,-0.252268 0.728509,-0.382221 0.563606,-0.287446 1.132359,-0.552672 1.711713,-0.8126 0.03106,4.893682 0.05455,9.787347 0.06892,14.681095 0.0064,2.272195 0.0163,4.54434 0.03145,6.816502 0.01322,1.980149 0.02182,3.960262 0.02477,5.940448 0.0013,1.048758 0.0064,2.097412 0.01553,3.146144 0.009,0.986812 0.01155,1.97349 0.01027,2.960346 2.69e-4,0.362421 0.0026,0.724856 0.0077,1.087263 0.0064,0.494374 0.0038,0.988836 0.0013,1.483247 0.0013,0.415253 0.0013,0.415253 0.0039,0.838898 -0.163761,0.706987 -0.163761,0.706987 -0.799371,1.263973 -0.660252,0.387792 -1.318477,0.758622 -2.006402,1.104639 -0.373444,0.189229 -0.373444,0.189229 -0.754448,0.382272 -0.263167,0.132099 -0.526333,0.264286 -0.797471,0.400449 -0.551797,0.280143 -1.103428,0.560549 -1.654905,0.841172 -0.272152,0.13832 -0.544315,0.27666 -0.824719,0.41919 -2.739442,1.39844 -5.433756,2.81608 -7.971947,4.50344 1.958092,-0.85594 3.837262,-1.80447 5.708423,-2.80645 0.560628,-0.29804 1.121269,-0.59603 1.681949,-0.89401 0.814156,-0.43378 1.628196,-0.86777 2.44216,-1.30185 0.705033,-0.375469 1.410863,-0.749662 2.116872,-1.123616 0.21193,-0.113407 0.423872,-0.22694 0.642232,-0.343872 1.460855,-0.772685 1.460855,-0.772685 2.053866,-0.772685 0.0806,1.878152 0.141903,3.755953 0.179355,5.635173 0.01797,0.87294 0.04236,1.74491 0.08176,2.6173 0.270354,6.12791 0.270354,6.12791 -1.047122,7.48225 -0.832728,0.69454 -1.585392,0.93763 -2.675691,1.40583 1.142345,-0.47801 2.284702,-0.956 3.461662,-1.4485 0.02156,0.58862 0.03735,1.17659 0.04993,1.76535 0.0064,0.16666 0.01335,0.33331 0.02028,0.50501 0.01989,1.24387 0.01989,1.24387 -0.472747,1.829 -0.130788,0.0812 -0.261563,0.16245 -0.396303,0.24614 0.263616,-0.0797 0.527232,-0.15934 0.798844,-0.24142 0.150579,2.08198 -0.330717,3.80877 -1.597688,5.56765 -0.902332,0.79251 -1.48682,0.97481 -2.729392,0.98076 -0.329523,-0.01 -0.659046,-0.0199 -0.998555,-0.0301 0.263616,-0.39834 0.527232,-0.79668 0.798844,-1.20708 -0.178149,0.1045 -0.356297,0.20913 -0.539849,0.31685 -2.435331,1.28029 -4.431004,1.29123 -7.182331,1.13165 0.416955,-0.97466 1.182762,-1.56214 2.030404,-2.2331 0.137295,-0.1109 0.274603,-0.22158 0.416069,-0.33573 0.337095,-0.27166 0.675975,-0.54151 1.015202,-0.81101 -1.840987,0.89698 -3.655122,1.8259 -5.450467,2.79609 -0.87887,0.44637 -1.548826,0.61408 -2.541117,0.60731 -0.201662,-7e-4 -0.403324,-0.001 -0.611095,-0.003 -0.209209,-0.001 -0.418418,-0.005 -0.63398,-0.006 -0.212302,-0.001 -0.424604,-0.001 -0.643336,-0.003 -0.523382,-0.003 -1.046763,-0.008 -1.570132,-0.0113 0,-0.15932 0,-0.31866 0,-0.48282 0.460799,-0.38477 0.460799,-0.38477 1.115058,-0.84496 0.239255,-0.16928 0.478497,-0.33859 0.724991,-0.513 0.271523,-0.18922 0.543032,-0.37842 0.822769,-0.57337 0.315905,-0.22126 0.631772,-0.44255 0.947587,-0.6639 0.836463,-0.58529 1.674826,-1.16826 2.514074,-1.75027 -1.53164,0.73867 -3.037673,1.50007 -4.512223,2.3293 -3.24017,1.78982 -5.75681,3.10309 -9.600708,2.49908 -0.08792,-0.15932 -0.175748,-0.31867 -0.266285,-0.48283 -0.127708,0.0792 -0.255376,0.15809 -0.386947,0.23953 -0.998991,0.3584 -1.944833,0.29427 -3.008153,0.2735 -0.211095,-0.003 -0.422191,-0.005 -0.639691,-0.006 -0.519082,-0.006 -1.038112,-0.0148 -1.55713,-0.0236 0,-0.15934 0,-0.31868 0,-0.48283 -0.173938,0.0785 -0.34789,0.15702 -0.527103,0.23793 -1.015934,0.30933 -1.963393,0.30963 -3.021938,0.30052 -0.315379,-1.6e-4 -0.315379,-1.6e-4 -0.637137,-2.3e-4 -0.442239,-7.3e-4 -0.884466,-0.003 -1.326679,-0.006 -0.679608,-0.005 -1.359113,-0.005 -2.038721,-0.005 -0.429943,-0.001 -0.859874,-0.002 -1.289804,-0.005 -0.306202,-4.7e-4 -0.306202,-4.7e-4 -0.618591,-7.3e-4 -1.426663,-0.0113 -1.426663,-0.0113 -1.723855,-0.28131 -0.522816,-0.0389 -1.045825,-0.077 -1.569605,-0.10287 -0.758452,-0.18753 -1.092121,-0.59569 -1.625783,-1.10429 1.955217,-1.31075 3.943855,-2.56005 5.974695,-3.77213 3.562043,-2.1389 7.060862,-4.35434 10.53478,-6.60877 -0.173476,0.0907 -0.346953,0.18147 -0.525679,0.27495 -0.24598,0.12869 -0.491961,0.25733 -0.745399,0.38989 -0.276926,0.14486 -0.553839,0.28969 -0.839158,0.43892 -0.619412,0.32399 -1.238824,0.64795 -1.858249,0.97192 -1.910244,0.99907 -3.82032,1.9984 -5.730063,2.99824 -0.586914,0.30703 -1.174046,0.61372 -1.761384,0.92004 -1.21119,0.63181 -2.421187,1.26455 -3.621391,1.91335 -0.262987,0.14086 -0.262987,0.14086 -0.531275,0.28439 -0.438415,0.23514 -0.87525,0.47269 -1.311906,0.71052 -0.650101,0.27159 -0.650101,0.27159 -1.448945,0.0301 -0.859976,-1.53045 -1.173622,-3.12764 -0.798844,-4.82833 0.643465,-0.78387 1.449933,-1.22755 2.364291,-1.72951 0.244672,-0.1456 0.489356,-0.29114 0.741433,-0.44112 0.783532,-0.46312 1.57592,-0.91158 2.369694,-1.36007 0.518492,-0.30271 1.036328,-0.60637 1.553485,-0.91097 1.002547,-0.58866 2.008469,-1.17197 3.018164,-1.75049 1.820707,-1.04516 3.611162,-2.13019 5.397279,-3.22306 -1.936105,0.84649 -3.792853,1.78374 -5.641848,2.77629 -2.272174,1.20969 -4.549572,2.41015 -6.840114,3.59107 -0.39398,0.20469 -0.39398,0.20469 -0.795917,0.41351 -0.241925,0.12432 -0.483863,0.24866 -0.733117,0.37674 -0.213123,0.11002 -0.426234,0.21994 -0.645813,0.33326 -0.521251,0.23445 -0.521251,0.23445 -1.053822,0.23445 -0.07008,-0.84965 -0.112305,-1.69867 -0.149783,-2.54996 -0.02002,-0.23916 -0.04017,-0.47832 -0.06084,-0.72472 -0.05737,-1.74048 -0.05737,-1.74048 0.651217,-2.52302 0.627383,-0.45071 1.271541,-0.82717 1.955961,-1.20337 0.486507,-0.30045 0.972257,-0.60193 1.457262,-0.90437 0.495529,-0.29793 0.991688,-0.59497 1.488475,-0.89117 0.255903,-0.15358 0.511792,-0.30714 0.775446,-0.46537 0.623019,-0.37377 1.24659,-0.74672 1.870738,-1.11892 -0.690903,0.20879 -1.229134,0.43918 -1.859815,0.75914 -0.205269,0.10375 -0.410537,0.20757 -0.622018,0.3145 -0.320256,0.16315 -0.320256,0.16315 -0.646981,0.3296 -0.209389,0.106 -0.418777,0.21192 -0.634506,0.3211 -1.194634,0.60458 -1.194634,0.60458 -2.379372,1.22487 -1.261003,0.67204 -1.261003,0.67204 -1.845773,0.67204 -0.01284,-2.88753 -0.02182,-5.77504 -0.02759,-8.662573 -0.0026,-1.340698 -0.0064,-2.681359 -0.01284,-4.022032 -0.0051,-1.292952 -0.009,-2.585889 -0.01027,-3.878841 -9.88e-4,-0.494186 -0.0026,-0.98837 -0.0064,-1.482541 -0.0038,-0.690244 -0.0038,-1.380415 -0.0038,-2.07066 -0.0013,-0.205946 -0.0038,-0.411892 -0.0064,-0.624081 0.0051,-1.414501 0.0051,-1.414501 0.598824,-1.952401 -0.175748,-0.07967 -0.351496,-0.159334 -0.532571,-0.241416 -0.03607,-0.624083 -0.06238,-1.246453 -0.08317,-1.870975 -0.01155,-0.176141 -0.02233,-0.35228 -0.03376,-0.533758 -0.01296,-0.518665 -0.01296,-0.518665 0.117055,-1.457927 0.670905,-0.607312 0.670905,-0.607312 1.331415,-0.965665 -0.659047,0.239002 -0.659047,0.239002 -1.331415,0.482832 0,-8.922744 0,-17.845487 0,-27.038618 z m 1.06513,30.90128 c -0.08792,0.159334 -0.175748,0.318669 -0.266273,0.482832 0.263616,-0.07967 0.527232,-0.159334 0.798844,-0.241415 -0.175748,-0.07967 -0.351496,-0.159335 -0.532571,-0.241417 z m 34.882911,20.520373 c -0.08792,0.15935 -0.175735,0.31867 -0.266272,0.48284 0.263616,-0.0797 0.527231,-0.15933 0.798844,-0.24142 -0.175749,-0.0797 -0.351497,-0.15932 -0.532572,-0.24142 z m -19.704851,1.2071 c -0.08792,0.15932 -0.175748,0.31867 -0.266273,0.48283 0.263616,-0.0797 0.527232,-0.15933 0.798844,-0.24142 -0.175748,-0.0797 -0.351496,-0.15933 -0.532571,-0.24141 z"
     fill="#5a6470"
     id="path253"
     style="stroke-width:0.253545" /><path
     d="m 49.366875,43.22574 c 0.402708,-0.0013 0.805415,-0.003 1.208123,-0.0051 1.086602,-0.0043 2.173102,-0.0026 3.259704,3.62e-4 1.141318,0.0025 2.282609,1.73e-4 3.423927,-0.0014 1.916032,-0.0018 3.832012,5.56e-4 5.748044,0.0051 2.209912,0.0051 4.419722,0.0035 6.629634,-0.0018 1.903082,-0.0044 3.806112,-0.005 5.709193,-0.0025 1.13413,0.0015 2.268222,0.0018 3.402351,-0.0015 1.066657,-0.0028 2.133173,-8.2e-4 3.199817,0.0048 0.389629,0.0013 0.779271,9.17e-4 1.1689,-0.0012 2.502355,-0.01242 4.749117,0.100774 6.777672,1.551145 0.134895,0.152801 0.269802,0.305599 0.408779,0.46303 0.139707,0.150932 0.279415,0.301865 0.423346,0.45737 1.026856,1.449547 1.307465,2.589644 1.240916,4.280422 -0.0038,0.176609 -0.0077,0.353215 -0.01027,0.535173 -0.009,0.430256 -0.02362,0.860424 -0.03902,1.290538 -0.261704,0.0083 -0.52342,0.01661 -0.793055,0.02517 -0.981446,0.03264 -1.962392,0.07266 -2.943401,0.114812 -0.422654,0.01716 -0.845397,0.03235 -1.268217,0.0455 -2.747309,0.08698 -4.901916,0.259149 -7.031045,1.97689 -0.130788,0.147823 -0.261563,0.295641 -0.396303,0.447941 -0.223469,0.246471 -0.223469,0.246471 -0.451429,0.497921 -0.552722,0.658451 -1.081713,1.330759 -1.588332,2.019032 -0.813077,0.78595 -1.731953,1.120522 -2.903484,1.231776 -0.303995,-0.0039 -0.607989,-0.0075 -0.921199,-0.01142 -0.331243,-0.0024 -0.662486,-0.0046 -1.003753,-0.0071 -0.34223,-0.0061 -0.68446,-0.01217 -1.037047,-0.01839 -0.522611,-0.0049 -0.522611,-0.0049 -1.055773,-0.0099 -0.857551,-0.0084 -1.71487,-0.02041 -2.572318,-0.03536 0.131814,-0.239003 0.131814,-0.239003 0.266285,-0.482833 -0.263616,0.159335 -0.527244,0.31867 -0.798844,0.482833 -0.530684,0.05481 -0.530684,0.05481 -1.126506,0.04716 -0.213675,-0.0015 -0.42735,-0.0031 -0.647495,-0.0048 -0.221915,-0.004 -0.44383,-0.0082 -0.672471,-0.01229 -0.224996,-0.0023 -0.450004,-0.0043 -0.681828,-0.0065 -0.554955,-0.0056 -1.109872,-0.0144 -1.664776,-0.02358 0.696242,-0.656169 1.4008,-1.217534 2.217626,-1.746494 0.212815,-0.138488 0.425631,-0.276969 0.644902,-0.419651 0.329523,-0.212393 0.329523,-0.212393 0.665708,-0.429078 0.223802,-0.145331 0.447604,-0.290662 0.678183,-0.440398 0.549962,-0.356959 1.100567,-0.713078 1.651787,-1.068454 -1.381702,0.598435 -2.724053,1.224104 -4.024395,1.958678 -4.556272,2.561233 -4.556272,2.561233 -7.013821,2.324574 -1.386849,-0.366402 -2.011228,-1.026343 -2.808442,-2.110506 0.01938,-0.765167 0.306279,-1.003606 0.89558,-1.562604 0.25915,-0.206327 0.518312,-0.412652 0.785329,-0.625231 0.257096,-0.206948 0.514192,-0.413897 0.779078,-0.627117 0.242683,-0.186409 0.485365,-0.372818 0.735388,-0.564875 0.173695,-0.140968 0.347377,-0.281948 0.526334,-0.427195 0.724876,-0.39964 1.31061,-0.411972 2.153131,-0.447939 0.874595,-0.04117 1.546412,-0.08008 2.379897,-0.331948 0.08792,-0.398337 0.175749,-0.796674 0.266273,-1.207081 -0.914679,-0.552845 -1.301394,-0.55465 -2.379885,-0.558276 -0.277002,-0.004 -0.554018,-0.0082 -0.839415,-0.01229 -0.875699,0.09912 -1.248566,0.218843 -1.840049,0.811951 0.01155,0.194773 0.0231,0.389544 0.03491,0.590219 -0.03491,0.616861 -0.03491,0.616861 -0.450454,0.975509 -0.189648,0.09483 -0.379296,0.189637 -0.574695,0.28733 -0.306356,0.157545 -0.306356,0.157545 -0.618898,0.318273 -0.215896,0.10504 -0.431805,0.210062 -0.654259,0.318274 -0.215909,0.109693 -0.431818,0.219397 -0.654259,0.332419 -0.534047,0.270569 -1.070251,0.536672 -1.609137,0.79922 -0.156752,-0.101339 -0.313518,-0.20267 -0.475032,-0.307076 -1.454386,-0.932008 -2.908811,-1.567968 -4.584317,-2.107088 0.08792,-0.398336 0.175748,-0.796672 0.266273,-1.20708 -0.801077,0.264099 -1.434954,0.546056 -2.146893,0.980753 -1.205697,0.631532 -2.33513,0.576839 -3.694653,0.528099 -0.349353,-0.0065 -0.349353,-0.0065 -0.705753,-0.01321 -0.569279,-0.01129 -1.138391,-0.0286 -1.707426,-0.04716 -0.166558,-4.871119 -0.166558,-4.871119 1.348049,-7.076511 2.151347,-1.784465 4.714835,-1.754716 7.493847,-1.739423 z"
     fill="#c9ced8"
     id="path261"
     style="stroke-width:0.253545" /><path
     d="m 80.384031,66.737891 c 0.322824,0.0065 0.322824,0.0065 0.65218,0.01321 0.163735,0.0056 0.327456,0.01117 0.496158,0.01697 -0.417172,0.90554 -1.036071,1.48647 -1.793574,2.179977 -0.129247,0.118952 -0.258495,0.23791 -0.391657,0.36047 -0.433075,0.397944 -0.868036,0.794149 -1.303024,1.190365 -0.311105,0.285077 -0.622094,0.570245 -0.933007,0.855497 -1.021054,0.935856 -2.044945,1.869149 -3.068952,2.802348 -0.3526,0.321627 -0.705175,0.643269 -1.057737,0.964927 -1.656279,1.510802 -3.313829,3.02044 -4.972957,4.528664 -1.914466,1.740413 -3.82444,3.484749 -5.730717,5.232527 -1.474357,1.35124 -2.95277,2.69875 -4.434302,4.043525 -0.884517,0.803057 -1.767199,1.607642 -2.645632,2.41619 -0.826554,0.760624 -1.65805,1.516498 -2.493564,2.269034 -0.305303,0.27656 -0.60881,0.55477 -0.910302,0.83475 -2.563064,2.376891 -2.563064,2.376891 -4.149034,2.54502 -0.329484,-0.0153 -0.658982,-0.03061 -0.998452,-0.04629 0,-0.965653 0,-0.965653 0.395405,-1.440268 0.277798,-0.248643 0.277798,-0.248643 0.561218,-0.502315 0.20894,-0.189367 0.417892,-0.378722 0.633171,-0.573834 0.228808,-0.202452 0.457616,-0.404903 0.693354,-0.613498 0.233262,-0.210114 0.466523,-0.420228 0.706844,-0.63671 0.62144,-0.55891 1.2451,-1.115653 1.869928,-1.671446 0.631259,-0.562502 1.259527,-1.127719 1.888129,-1.69267 1.122142,-1.007754 2.246081,-2.013822 3.373858,-3.016394 0.439929,-0.394903 0.870232,-0.796041 1.298879,-1.200899 0.561886,-0.481359 0.561886,-0.481359 1.36073,-0.722776 0.188685,-0.31663 0.365294,-0.639299 0.532571,-0.965665 0.350238,-0.377623 0.350238,-0.377623 0.756193,-0.745267 0.154173,-0.140789 0.308346,-0.281581 0.467191,-0.426639 0.168637,-0.151531 0.337275,-0.303063 0.511021,-0.459186 0.177994,-0.161837 0.356001,-0.323676 0.539399,-0.490417 0.58848,-0.534419 1.178847,-1.067081 1.769304,-1.599697 0.409369,-0.370844 0.818622,-0.741779 1.227786,-1.112799 0.85764,-0.777174 1.716166,-1.553528 2.575373,-2.329267 1.102158,-0.995136 2.202558,-1.991854 3.302354,-2.989135 0.844896,-0.765934 1.690485,-1.531237 2.536317,-2.296328 0.406032,-0.367356 0.81191,-0.734858 1.217634,-1.102509 0.566661,-0.513231 1.134207,-1.02566 1.70201,-1.537861 0.168086,-0.152508 0.336184,-0.305018 0.509378,-0.462148 0.15493,-0.139424 0.309848,-0.278857 0.469475,-0.422512 0.134061,-0.121135 0.268121,-0.242281 0.40625,-0.367093 0.829982,-0.685312 1.338783,-0.85857 2.430801,-0.829872 z"
     fill="#272828"
     id="path283"
     style="stroke-width:0.253545" /><path
     d="m 66.67051,66.496475 c 0.335016,0.0099 0.670032,0.01992 1.015201,0.03017 0.175145,0.435578 0.175145,0.435578 0.266286,0.965665 -0.256852,0.382067 -0.256852,0.382067 -0.672035,0.756057 -0.1557,0.143163 -0.311401,0.286341 -0.471824,0.43385 -0.174413,0.154168 -0.348827,0.308335 -0.528528,0.467177 -0.271368,0.246869 -0.271368,0.246869 -0.548217,0.498728 -0.600891,0.545172 -1.206403,1.085913 -1.812108,1.626689 -0.417288,0.376678 -0.834294,0.753607 -1.251043,1.130774 -0.874903,0.790629 -1.751912,1.579278 -2.630653,2.366403 -1.128354,1.010702 -2.253243,2.024487 -3.376822,3.039542 -1.068865,0.965482 -2.139103,1.929693 -3.209687,2.893604 -0.308063,0.277523 -0.308063,0.277523 -0.622364,0.560653 -0.579483,0.521454 -1.159902,1.042028 -1.740694,1.56229 -0.172797,0.155634 -0.345593,0.311268 -0.523626,0.471619 -0.157959,0.141131 -0.315918,0.282256 -0.478651,0.427663 -0.137308,0.123141 -0.274629,0.246286 -0.416095,0.37316 -0.908171,0.739309 -1.859507,0.549318 -3.020192,0.532345 -0.21012,-0.408333 -0.21012,-0.408333 -0.266286,-0.965665 0.509674,-0.579965 0.509674,-0.579965 1.231547,-1.191994 0.234109,-0.201346 0.468204,-0.402693 0.709398,-0.610141 0.238215,-0.201969 0.476431,-0.403937 0.721873,-0.612028 0.44546,-0.400851 0.889419,-0.803082 1.331402,-1.207081 1.863973,-1.689913 1.863973,-1.689913 2.401088,-2.176342 0.877856,-0.795856 1.75367,-1.593546 2.629806,-2.390951 0.868627,-0.790311 1.737742,-1.580179 2.607024,-2.369899 0.658995,-0.598719 1.317733,-1.197667 1.97592,-1.797113 0.761841,-0.693816 1.524747,-1.386655 2.287717,-2.079446 0.236329,-0.215509 0.472658,-0.43102 0.716162,-0.653059 0.219553,-0.199068 0.439094,-0.398137 0.665297,-0.603236 0.192895,-0.175415 0.385791,-0.350829 0.584526,-0.531558 0.815042,-0.692693 1.320763,-0.980724 2.425578,-0.947883 z"
     fill="#262627"
     id="path297"
     style="stroke-width:0.253545" /><path
     d="m 58.689476,115.68569 c 0.191484,-9.7e-4 0.38298,-10e-4 0.580278,-0.003 0.631439,-10e-4 1.262698,0.001 1.894136,0.005 0.438992,1.4e-4 0.877984,0 1.316963,-4.8e-4 0.919107,2e-5 1.838137,0.003 2.757231,0.008 1.179617,0.006 2.359156,0.006 3.538799,0.005 0.905964,-7.3e-4 1.811902,7e-4 2.717866,0.003 0.435077,9.6e-4 0.870168,0.001 1.305258,7.1e-4 0.606911,-9e-5 1.213706,0.003 1.820604,0.008 0.518491,10e-4 0.518491,10e-4 1.047456,0.003 0.80494,0.063 0.80494,0.063 1.337512,0.54577 -0.04993,0.48283 -0.04993,0.48283 -0.266286,0.96566 -0.952953,0.57598 -1.623768,0.54802 -2.722821,0.53765 -0.19491,7e-5 -0.389821,1.5e-4 -0.590623,2.2e-4 -0.644068,-2.4e-4 -1.288046,-0.005 -1.932101,-0.008 -0.446616,-9.6e-4 -0.893232,-0.001 -1.339848,-0.002 -1.175407,-0.001 -2.350775,-0.006 -3.526169,-0.0113 -1.199434,-0.005 -2.398868,-0.008 -3.598315,-0.01 -2.35338,-0.006 -4.706736,-0.0134 -7.060104,-0.0236 -0.08792,-0.39834 -0.175748,-0.79667 -0.266285,-1.20708 0.95036,-0.82139 1.702343,-0.8147 2.986449,-0.81413 z"
     fill="#282829"
     id="path309"
     style="stroke-width:0.253545" /><path
     d="m 91.384795,88.495526 c 0.175748,0 0.351484,0 0.532558,0 0.129337,0.755651 0.205577,1.206469 0,1.931339 -0.41775,0.356869 -0.41775,0.356869 -0.992317,0.67803 -0.218719,0.12333 -0.437426,0.246788 -0.662781,0.373922 -1.232291,0.659062 -2.467547,1.311965 -3.713379,1.949833 -0.652552,0.334146 -1.303974,0.670077 -1.955487,1.005894 -0.337724,0.174087 -0.675513,0.348074 -1.013353,0.521986 -1.752169,0.902275 -3.498061,1.814285 -5.243055,2.727913 -0.274231,0.143515 -0.548474,0.28688 -0.831021,0.434672 -0.39597,0.207294 -0.39597,0.207294 -0.799948,0.418766 -0.255389,0.133278 -0.510765,0.266456 -0.77388,0.403736 -0.563195,0.297543 -1.123195,0.600103 -1.680909,0.906026 -0.432498,0.235787 -0.432498,0.235787 -0.873736,0.476347 -0.261562,0.14456 -0.523125,0.28905 -0.792606,0.43797 -0.316136,0.14219 -0.316136,0.14219 -0.638664,0.28722 -0.175736,-0.0797 -0.351484,-0.15933 -0.532559,-0.24143 3.113271,-1.950398 6.252237,-3.863826 9.403076,-5.763807 2.642975,-1.594011 5.28233,-3.192168 7.905244,-4.813226 0.243131,-0.150125 0.486262,-0.300234 0.736761,-0.4549 1.008849,-0.588178 1.008849,-0.588178 1.926056,-1.280291 z"
     fill="#4ab7d1"
     id="path315"
     style="stroke-width:0.253545" /><path
     d="m 54.105339,66.526652 c 0.199518,0.414757 0.199518,0.414757 0.266285,0.965665 -0.425746,0.52686 -0.425746,0.52686 -1.06201,1.089202 -0.340074,0.304122 -0.340074,0.304122 -0.687026,0.614386 -0.24113,0.209594 -0.482272,0.419187 -0.730717,0.635132 -0.238049,0.212394 -0.476085,0.424789 -0.721347,0.643621 -2.066559,1.831227 -2.066559,1.831227 -2.908823,1.869561 -0.53741,-0.0079 -1.074833,-0.01572 -1.612243,-0.02359 -0.199519,-0.414756 -0.199519,-0.414756 -0.266286,-0.965664 0.425747,-0.52686 0.425747,-0.52686 1.062011,-1.089202 0.226716,-0.202746 0.453431,-0.405495 0.687026,-0.614385 0.241129,-0.209593 0.482272,-0.419189 0.730717,-0.635132 0.238036,-0.212395 0.476084,-0.42479 0.721346,-0.64362 1.659398,-1.470424 2.221926,-1.879605 4.521067,-1.845985 z"
     fill="#272728"
     id="path321"
     style="stroke-width:0.253545" /><path
     d="m 60.762389,49.536983 c 0.274602,-0.0019 0.549205,-0.0038 0.832125,-0.0056 0.843085,0.10593 1.208598,0.307952 1.830692,0.820438 -0.06661,0.573363 -0.06661,0.573363 -0.266286,1.207081 -0.850709,0.528819 -1.476218,0.484127 -2.47974,0.437566 -2.676063,0.137613 -4.516433,2.284062 -6.307556,3.907927 -0.798843,-1.11655 -0.798843,-1.11655 -0.798843,-1.93133 0.824924,-0.477667 1.661092,-0.897546 2.527588,-1.308458 1.164395,-0.57548 1.164395,-0.57548 1.793254,-1.614 0.101909,-0.345899 0.101909,-0.345899 0.205948,-0.698786 0.81381,-0.780635 1.506163,-0.822645 2.662818,-0.81478 z"
     fill="#2d2d2e"
     id="path323"
     style="stroke-width:0.253545" /><path
     d="m 57.567,66.768068 c 0.263629,0.119504 0.263629,0.119504 0.532571,0.241417 -3.50571,2.251112 -7.04922,4.44861 -10.610249,6.626863 -0.337866,0.20677 -0.675731,0.41355 -1.013572,0.620338 -0.163182,0.09978 -0.326365,0.199576 -0.49449,0.302386 -0.828197,0.507469 -1.653083,1.018771 -2.473233,1.536881 -0.16059,0.101439 -0.32118,0.202892 -0.486635,0.307411 -0.441007,0.279273 -0.881334,0.559415 -1.321622,0.839612 -0.642232,0.388825 -0.642232,0.388825 -0.908518,0.388825 0,-0.717008 0,-1.434013 0,-2.172747 0.878959,-0.47763 1.762116,-0.948493 2.646171,-1.41832 0.246635,-0.134125 0.493257,-0.268257 0.747363,-0.406448 1.367006,-0.721871 2.541142,-1.200519 4.09831,-1.450974 0.692366,-0.145106 1.071124,-0.431534 1.561738,-0.88869 1.704268,-1.466656 3.680265,-2.488716 5.708409,-3.545801 0.189315,-0.100021 0.378617,-0.200024 0.573656,-0.303066 0.470848,-0.241273 0.954685,-0.461457 1.440101,-0.677687 z"
     fill="#4ab9d3"
     id="path327"
     style="stroke-width:0.253545" /><path
     d="m 58.099571,85.115704 c 0.263616,0.119504 0.263616,0.119504 0.532559,0.241415 -1.69893,1.097188 -3.422798,2.138043 -5.192486,3.138407 -1.926004,1.097041 -3.823002,2.226719 -5.704264,3.385488 -0.204768,0.126154 -0.409536,0.252235 -0.620516,0.382174 -1.030899,0.63576 -2.060219,1.273524 -3.088179,1.913167 -0.380862,0.235771 -0.761738,0.47153 -1.142626,0.707276 -0.176698,0.110772 -0.353409,0.221469 -0.535472,0.335566 -1.230892,0.760241 -1.230892,0.760241 -1.823621,0.760241 0,-0.557676 0,-1.11534 0,-1.689927 0.271869,-0.135059 0.543725,-0.270119 0.823821,-0.409268 2.372787,-1.184196 4.726335,-2.395341 7.064789,-3.634447 0.265028,-0.140254 0.530068,-0.280509 0.803131,-0.425009 1.437418,-0.761944 2.871256,-1.529069 4.301987,-2.301294 0.439903,-0.236084 0.439903,-0.236084 0.888688,-0.47694 0.566995,-0.304388 1.132975,-0.610356 1.697801,-0.91804 0.253797,-0.135922 0.507594,-0.271834 0.769079,-0.411871 0.336403,-0.182023 0.336403,-0.182023 0.679608,-0.367723 0.180086,-0.07565 0.36016,-0.151283 0.545701,-0.229215 z"
     fill="#4ab8d2"
     id="path329"
     style="stroke-width:0.253545" /><path
     d="m 91.917353,67.733734 c 0.0978,0.784601 0.0978,0.784601 0,1.689913 -0.630334,0.513009 -0.630334,0.513009 -1.564407,0.965666 -0.368618,0.185046 -0.737185,0.370204 -1.105688,0.555445 -0.208656,0.101966 -0.417313,0.203914 -0.632298,0.308961 -1.052988,0.521556 -2.088276,1.070128 -3.125939,1.616239 -0.887109,0.466525 -1.776337,0.929583 -2.665808,1.392387 -1.229339,0.641462 -2.452658,1.291117 -3.671781,1.948305 -0.293496,0.157565 -0.587004,0.31513 -0.889407,0.477468 -0.562849,0.302665 -1.124709,0.606865 -1.685453,0.912739 -0.251115,0.134689 -0.502217,0.269382 -0.760942,0.408155 -0.220889,0.119817 -0.441765,0.239626 -0.66934,0.363068 -0.177301,0.07437 -0.35459,0.148753 -0.537256,0.225385 -0.175735,-0.07967 -0.351484,-0.159336 -0.532558,-0.241417 0.334926,-0.202437 0.669866,-0.404875 1.004792,-0.607313 0.23117,-0.139735 0.462326,-0.279457 0.70049,-0.423421 0.537924,-0.325103 1.075911,-0.650133 1.61395,-0.975096 1.738974,-1.050449 3.476871,-2.102345 5.213676,-3.155725 1.0209,-0.619056 2.042109,-1.237662 3.063369,-1.856225 0.51414,-0.311573 1.028152,-0.623345 1.54201,-0.935311 0.729137,-0.442623 1.458763,-0.884556 2.188516,-1.326345 0.223007,-0.135624 0.446026,-0.271242 0.675783,-0.410971 0.203472,-0.122991 0.406931,-0.245975 0.616563,-0.37269 0.178803,-0.108439 0.357619,-0.216868 0.541851,-0.328587 0.413592,-0.23063 0.413592,-0.23063 0.679877,-0.23063 z"
     fill="#4ab7d1"
     id="path331"
     style="stroke-width:0.253545" /><path
     d="m 76.007024,43.305427 c 0.198401,0.0033 0.396803,0.0065 0.601212,0.0099 0.487572,0.0084 0.975041,0.02149 1.462472,0.03536 -0.90382,0.683283 -1.813019,1.248632 -2.835485,1.775728 -0.28799,0.149376 -0.575979,0.298755 -0.872696,0.452657 -0.303096,0.155911 -0.606192,0.311822 -0.918465,0.472459 -2.190596,1.131876 -4.37747,2.265758 -6.506612,3.491283 -0.362625,0.203441 -0.738045,0.387977 -1.115712,0.567528 -0.175748,-0.07967 -0.351484,-0.159334 -0.532558,-0.241417 1.961634,-1.547238 3.924885,-3.092604 5.90812,-4.617086 0.140465,-0.108238 0.280918,-0.216479 0.425631,-0.327998 0.37202,-0.285156 0.746953,-0.567171 1.122142,-0.848906 0.162349,-0.142836 0.32471,-0.285681 0.491988,-0.432851 0.885646,-0.450287 1.784358,-0.367448 2.769963,-0.336663 z"
     fill="#50bcd6"
     id="path333"
     style="stroke-width:0.253545" /><path
     d="m 91.917353,81.735876 c 0,0.478003 0,0.956008 0,1.448497 -0.703493,0.367964 -1.406987,0.735924 -2.110493,1.103878 -0.618565,0.32355 -1.237117,0.647126 -1.855644,0.970735 -1.464911,0.766383 -2.929924,1.532602 -4.395708,2.297613 -0.46488,0.242633 -0.929695,0.485357 -1.394498,0.728099 -0.581601,0.303721 -1.163304,0.607265 -1.745135,0.910615 -0.402952,0.2105 -0.402952,0.2105 -0.814054,0.42526 -0.384097,0.200303 -0.384097,0.200303 -0.775959,0.404674 -0.978019,0.520144 -1.938647,1.064657 -2.895809,1.615702 -0.172322,0.07733 -0.34463,0.15471 -0.522162,0.234409 -0.175749,-0.0797 -0.351497,-0.15934 -0.532572,-0.241415 8.919291,-5.422853 8.919291,-5.422853 12.844061,-7.652353 0.974053,-0.554347 1.929007,-1.114403 2.856162,-1.731761 0.809253,-0.513953 0.809253,-0.513953 1.341811,-0.513953 z"
     fill="#4ab6d0"
     id="path337"
     style="stroke-width:0.253545" /><path
     d="m 56.235598,93.082436 c 0.175748,0.0797 0.351496,0.159342 0.532558,0.241416 -2.758822,1.672872 -5.527977,3.330821 -8.304652,4.979211 -0.546369,0.324389 -1.092699,0.648853 -1.638927,0.973443 -0.353563,0.210079 -0.707241,0.420032 -1.061009,0.629848 -0.826093,0.490686 -1.649195,0.984656 -2.466174,1.487746 -0.287771,0.17683 -0.575543,0.35366 -0.872042,0.53587 -0.252398,0.15665 -0.504796,0.31331 -0.764844,0.4747 -0.60297,0.33443 -0.60297,0.33443 -1.135542,0.33443 0,-0.47802 0,-0.95602 0,-1.4485 0.271869,-0.13506 0.543725,-0.27013 0.823821,-0.40927 2.411947,-1.203797 4.803858,-2.435806 7.181278,-3.694811 0.269841,-0.142775 0.539682,-0.285499 0.817699,-0.432565 1.256485,-0.666165 2.50971,-1.336495 3.755901,-2.01838 0.210223,-0.11441 0.420446,-0.228733 0.637034,-0.346556 0.388975,-0.212073 0.776897,-0.42574 1.163548,-0.641271 0.434474,-0.236443 0.881834,-0.453237 1.331351,-0.665311 z"
     fill="#4bb7d1"
     id="path339"
     style="stroke-width:0.253545" /><path
     d="m 91.917353,74.734804 c 0.09382,0.665664 0.09382,0.665664 0,1.448498 -0.628512,0.497096 -0.628512,0.497096 -1.501991,0.937375 -0.233864,0.121047 -0.233864,0.121047 -0.472452,0.244546 -0.328805,0.169561 -0.659111,0.336782 -0.990739,0.501774 -0.776151,0.387132 -1.539866,0.793736 -2.306366,1.196326 -0.616833,0.318018 -1.23396,0.635549 -1.851485,0.952461 -0.652783,0.335636 -1.305296,0.671681 -1.957592,1.008102 -0.158421,0.08169 -0.316842,0.163388 -0.480063,0.247559 -0.949012,0.490806 -1.891094,0.990756 -2.827656,1.500824 -0.316265,0.172075 -0.316265,0.172075 -0.638921,0.347623 -0.380953,0.208535 -0.760866,0.418668 -1.139495,0.630655 -0.416698,0.227997 -0.845999,0.436923 -1.277586,0.640907 -0.175735,-0.07967 -0.351483,-0.159334 -0.532558,-0.241416 8.879027,-5.398374 8.879027,-5.398374 12.91428,-7.694789 0.216037,-0.123042 0.432061,-0.246082 0.654644,-0.372852 0.275886,-0.155998 0.275886,-0.155998 0.557342,-0.315149 0.377,-0.223769 0.743436,-0.462382 1.102441,-0.709279 0.481912,-0.323165 0.481912,-0.323165 0.748197,-0.323165 z"
     fill="#4bb4ce"
     id="path341"
     style="stroke-width:0.253545" /><path
     d="m 51.975093,78.114631 c 0.175735,0.07967 0.351483,0.159335 0.532558,0.241417 -1.642276,1.63092 -3.339332,2.804331 -5.442137,3.907926 -0.258983,0.139259 -0.517965,0.278525 -0.784803,0.422008 -0.512831,0.27549 -1.026791,0.549292 -1.541907,0.821262 -0.964838,0.514863 -1.914607,1.051105 -2.862721,1.590837 -0.55226,0.259038 -0.55226,0.259038 -1.351117,0.259038 0,-0.398337 0,-0.796672 0,-1.207081 0.157651,-0.0799 0.31529,-0.159801 0.477702,-0.242123 0.751034,-0.381253 1.501452,-0.763483 2.25169,-1.14602 0.274321,-0.139764 0.548654,-0.279536 0.831291,-0.423539 2.114921,-1.083212 4.199745,-2.206028 6.259245,-3.373815 0.207412,-0.115527 0.414824,-0.231067 0.628512,-0.350103 0.181344,-0.102656 0.362701,-0.205314 0.549539,-0.311082 0.149206,-0.06227 0.298411,-0.124547 0.452148,-0.188725 z"
     fill="#4ab9d3"
     id="path343"
     style="stroke-width:0.253545" /><path
     d="m 91.917353,53.973007 c 0,0.398337 0,0.796674 0,1.207081 -0.152055,0.07737 -0.304123,0.154745 -0.460785,0.234462 -3.037622,1.547189 -6.066247,3.107187 -9.075427,4.699483 -0.258302,0.136663 -0.516605,0.273312 -0.782723,0.41411 -0.373034,0.197865 -0.373034,0.197865 -0.753601,0.399727 -0.239114,0.126615 -0.478241,0.253238 -0.724607,0.383696 -0.495607,0.266932 -0.987697,0.539282 -1.47677,0.815958 -0.239461,0.135031 -0.478922,0.270046 -0.725647,0.409158 -0.321116,0.184417 -0.321116,0.184417 -0.648727,0.372557 -0.174824,0.07841 -0.349648,0.156807 -0.529773,0.237585 -0.175748,-0.07967 -0.351497,-0.159334 -0.532558,-0.241415 2.92497,-1.773768 5.861774,-3.530743 8.803943,-5.280981 0.621529,-0.369864 1.243046,-0.739764 1.864512,-1.10972 0.381992,-0.227384 0.764023,-0.454713 1.146105,-0.681975 0.173579,-0.103296 0.347158,-0.206603 0.526,-0.313036 0.247238,-0.146399 0.247238,-0.146399 0.499482,-0.295742 0.312427,-0.188023 0.622069,-0.379927 0.928515,-0.575869 1.062139,-0.675079 1.062139,-0.675079 1.942061,-0.675079 z"
     fill="#4bb5ce"
     id="path345"
     style="stroke-width:0.253545" /><path
     d="m 51.708807,62.422577 c 0.175748,0.07967 0.351497,0.159334 0.532558,0.241415 -2.350454,1.610682 -4.710907,3.203832 -7.115756,4.747224 -0.583885,0.375278 -1.162418,0.756132 -1.737062,1.142955 -0.263962,0.177386 -0.527925,0.35477 -0.799896,0.537529 -0.232029,0.157468 -0.464071,0.314934 -0.703147,0.477174 -0.561681,0.337606 -0.561681,0.337606 -1.094252,0.337606 0,-0.557672 0,-1.115343 0,-1.689914 0.207733,-0.106896 0.415466,-0.213795 0.6295,-0.323931 0.788897,-0.406318 1.577473,-0.813142 2.365844,-1.220284 0.33784,-0.174343 0.675808,-0.348498 1.013905,-0.522439 0.492873,-0.253622 0.985348,-0.507864 1.477618,-0.762443 0.162823,-0.08406 0.325647,-0.168125 0.493412,-0.254736 0.835847,-0.434645 1.661156,-0.879959 2.475864,-1.346532 0.238331,-0.136202 0.238331,-0.136202 0.481475,-0.27516 0.437786,-0.252008 0.873633,-0.506777 1.309352,-0.761704 0.2213,-0.107825 0.442586,-0.215663 0.670585,-0.32676 z"
     fill="#4ab7d2"
     id="path351"
     style="stroke-width:0.253545" /><path
     d="m 53.757924,43.303542 c 0.393223,0.0033 0.78642,0.0089 1.179553,0.01697 0.200801,0.0023 0.401603,0.0043 0.608489,0.0065 0.496197,0.0056 0.992343,0.0144 1.488476,0.02357 -0.708974,0.734334 -1.552073,1.156249 -2.479753,1.639933 -0.162465,0.08472 -0.324929,0.169423 -0.492321,0.256701 -0.342512,0.178108 -0.685409,0.355615 -1.028653,0.532559 -0.525461,0.271338 -1.048996,0.545554 -1.572467,0.820025 -0.333438,0.172909 -0.666979,0.345645 -1.000635,0.518195 -0.303096,0.157216 -0.606192,0.31443 -0.918465,0.47641 -0.762444,0.343086 -0.762444,0.343086 -1.561288,0.343086 0.151375,-0.134437 0.30275,-0.268877 0.458719,-0.407389 1.190886,-1.067068 2.338429,-2.149283 3.426289,-3.303442 0.833113,-0.872487 0.833113,-0.872487 1.892056,-0.92323 z"
     fill="#4fbdd7"
     id="path353"
     style="stroke-width:0.253545" /><path
     d="m 72.245783,49.823666 c 0.197375,1.56e-4 0.39475,3.13e-4 0.598093,4.83e-4 1.461497,0.01079 1.461497,0.01079 1.765158,0.28621 0.08317,0.573363 0.08317,0.573363 0,1.207082 -0.647097,0.612881 -1.02615,0.720452 -1.965908,0.811949 -0.493258,-0.0061 -0.493258,-0.0061 -0.996476,-0.01229 -0.330203,-9.42e-4 -0.66042,-0.0019 -1.000634,-0.0028 -0.830046,-0.07261 -0.830046,-0.07261 -1.362617,-0.555445 -0.08317,-0.603541 -0.08317,-0.603541 0,-1.207082 1.004138,-0.60691 1.801878,-0.545664 2.962384,-0.528097 z"
     fill="#2a2a2a"
     id="path357"
     style="stroke-width:0.253545" /><path
     d="m 64.756608,67.009485 c 0.175749,0.07967 0.351497,0.159335 0.532572,0.241416 -3.778543,3.425697 -7.557085,6.851392 -11.450114,10.3809 0,-0.72425 0,-0.72425 0.414465,-1.187114 0.193948,-0.17423 0.387896,-0.348459 0.587722,-0.527968 0.218579,-0.198113 0.437157,-0.396225 0.662358,-0.60034 0.238806,-0.21277 0.477625,-0.42554 0.72367,-0.644758 0.242323,-0.218673 0.484646,-0.437345 0.734323,-0.662646 0.644389,-0.581454 1.291152,-1.160703 1.938416,-1.739522 0.660021,-0.590978 1.317784,-1.184013 1.975739,-1.776879 1.291422,-1.163053 2.585346,-2.323788 3.880849,-3.483089 z M 52.241365,78.356048 c 0.175749,0.07967 0.351497,0.159336 0.532572,0.241417 -2.130259,1.93133 -4.260506,3.862659 -6.390765,5.793989 0.143841,-0.958498 0.641039,-1.381374 1.397977,-2.036949 0.217629,-0.190766 0.435244,-0.381532 0.65947,-0.578078 0.199762,-0.172716 0.399537,-0.345435 0.605371,-0.523383 0.230668,-0.209128 0.461337,-0.418254 0.698988,-0.633719 0.832125,-0.754426 1.664263,-1.508851 2.496387,-2.263277 z"
     fill="#313538"
     id="path359"
     style="stroke-width:0.253545" /><path
     d="m 54.371624,73.04489 c 0.175749,0.07967 0.351497,0.159335 0.532559,0.241418 -3.439804,2.070359 -6.932423,4.033848 -10.502783,5.913636 -0.943711,0.503257 -1.87555,1.023865 -2.806491,1.546279 -0.537371,0.265403 -0.537371,0.265403 -1.069943,0.265403 0,-0.239001 0,-0.478003 0,-0.724249 0.177956,-0.08975 0.355912,-0.179484 0.539271,-0.271946 4.335872,-2.18529 4.335872,-2.18529 8.630813,-4.43567 0.180035,-0.09622 0.360071,-0.192439 0.54556,-0.291574 0.777461,-0.417424 1.549429,-0.840561 2.316969,-1.272916 0.241655,-0.135995 0.483298,-0.27199 0.732282,-0.412105 0.200109,-0.115452 0.40023,-0.23091 0.60641,-0.349865 0.156868,-0.06877 0.313736,-0.137554 0.475353,-0.208411 z"
     fill="#4bb4ce"
     id="path361"
     style="stroke-width:0.253545" /><path
     d="m 91.917353,95.979438 c -0.148204,1.098868 -0.148204,1.098868 -0.648021,1.556949 -0.176082,0.09873 -0.352177,0.197295 -0.533598,0.298935 -0.320256,0.180184 -0.320256,0.180184 -0.646981,0.364006 -1.277047,0.666956 -2.562654,1.319673 -3.856861,1.958862 -1.192413,0.58992 -2.34002,1.2102 -3.466346,1.89951 -0.143327,0.0656 -0.286667,0.13105 -0.434333,0.19856 -0.175748,-0.0797 -0.351496,-0.15934 -0.532571,-0.24141 1.784641,-1.20425 3.599945,-2.350251 5.456435,-3.460698 1.232458,-0.738212 2.440697,-1.502354 3.635639,-2.289917 0.494079,-0.284797 0.494079,-0.284797 1.026637,-0.284797 z"
     fill="#4bb6d2"
     id="path363"
     style="stroke-width:0.253545" /><path
     d="m 44.519199,47.696185 c 0.175748,0.07967 0.351496,0.159336 0.532558,0.241417 -1.230212,1.195009 -2.460436,2.390019 -3.727934,3.621242 1.40596,0.07967 2.811933,0.159335 4.260505,0.241418 0,0.07967 0,0.159334 0,0.241415 -1.669589,0 -3.339177,0 -5.059362,0 0,-1.354345 0,-2.708691 0,-4.104075 0.08792,0 0.175749,0 0.266286,0 0,0.557671 0,1.115342 0,1.689913 0.262936,-0.142214 0.525871,-0.284438 0.796765,-0.430966 0.344578,-0.183364 0.689221,-0.366622 1.033928,-0.549788 0.173335,-0.09414 0.346683,-0.188275 0.525281,-0.285267 0.448156,-0.236662 0.909429,-0.452618 1.371973,-0.665309 z"
     fill="#58b5cc"
     id="path365"
     style="stroke-width:0.253545" /><path
     d="m 58.898415,52.041677 c -1.086114,1.017516 -2.241268,1.957412 -3.406535,2.899825 -0.382288,0.312241 -0.756412,0.63297 -1.120256,0.962835 -0.798843,-1.11655 -0.798843,-1.11655 -0.798843,-1.93133 0.631438,-0.423419 1.240659,-0.786749 1.913901,-1.146726 0.179342,-0.10238 0.358697,-0.20477 0.543481,-0.310258 1.034775,-0.561973 1.664519,-0.889684 2.868252,-0.474346 z"
     fill="#606975"
     id="path367"
     style="stroke-width:0.253545" /><path
     d="m 91.917353,57.594251 c 0,0.398337 0,0.796674 0,1.20708 -0.195783,0.102117 -0.391567,0.204226 -0.59328,0.309433 -0.739585,0.385877 -1.479042,0.771955 -2.218409,1.158162 -0.317548,0.165815 -0.635148,0.331556 -0.952786,0.497213 -0.461581,0.240737 -0.922957,0.481785 -1.384333,0.722835 -0.299579,0.156301 -0.599146,0.312601 -0.907799,0.473638 -1.02085,0.541765 -2.024538,1.106443 -3.02258,1.682016 -0.167303,0.07473 -0.334593,0.149454 -0.506953,0.226445 -0.175748,-0.07967 -0.351496,-0.159335 -0.532571,-0.241415 1.397682,-0.860313 2.796005,-1.719763 4.194791,-2.578604 0.4762,-0.292532 0.952246,-0.585265 1.428139,-0.878199 0.682367,-0.419977 1.365273,-0.839237 2.048282,-1.258359 0.214137,-0.132017 0.428262,-0.264035 0.648894,-0.400052 0.197234,-0.120846 0.394468,-0.241667 0.59767,-0.366162 0.261652,-0.160827 0.261652,-0.160827 0.528592,-0.324904 0.406058,-0.229127 0.406058,-0.229127 0.672343,-0.229127 z"
     fill="#4bb7d4"
     id="path369"
     style="stroke-width:0.253545" /><path
     d="m 68.218282,53.731591 c 0.175736,0.07967 0.351484,0.159334 0.532559,0.241416 -0.920352,0.639394 -1.841436,1.277902 -2.762673,1.916242 -0.262243,0.182208 -0.524498,0.364416 -0.794685,0.552145 -0.250576,0.173494 -0.501152,0.346989 -0.759326,0.525741 -0.231477,0.16056 -0.462954,0.321119 -0.701452,0.486546 -0.848592,0.564933 -1.298712,0.65195 -2.337902,0.638491 -0.32643,-0.0033 -0.32643,-0.0033 -0.659457,-0.0065 -0.166828,-0.0028 -0.333644,-0.0056 -0.505528,-0.0084 1.271437,-0.904291 2.679181,-1.606474 4.074193,-2.339309 0.487354,-0.256686 0.972873,-0.516077 1.458442,-0.775527 0.308821,-0.162685 0.617744,-0.325205 0.926783,-0.487548 0.280481,-0.148357 0.560962,-0.29673 0.849939,-0.449589 0.22411,-0.09686 0.448208,-0.193723 0.679107,-0.29352 z"
     fill="#636c78"
     id="path375"
     style="stroke-width:0.253545" /><path
     d="m 57.567,66.768068 c 0.175748,0.07967 0.351497,0.159335 0.532571,0.241417 -2.923661,1.858031 -5.848259,3.714588 -8.787296,5.552574 -0.175748,-0.159335 -0.351496,-0.31867 -0.532571,-0.482833 2.084092,-1.740169 4.324988,-3.054201 6.773539,-4.330405 0.189315,-0.100021 0.378617,-0.200024 0.573656,-0.303066 0.470848,-0.241273 0.954685,-0.461457 1.440101,-0.677687 z"
     fill="#4bafc8"
     id="path377"
     style="stroke-width:0.253545" /><path
     d="m 87.390562,43.592109 c 0.439365,0.159334 0.878729,0.318669 1.331416,0.482832 0,0.159334 0,0.31867 0,0.482833 -0.134048,0.06681 -0.268083,0.133619 -0.406186,0.202457 -0.619413,0.309162 -1.238311,0.619167 -1.85721,0.929182 -0.210762,0.105039 -0.421524,0.210059 -0.638664,0.318273 -1.231817,0.617893 -2.425051,1.26158 -3.592205,1.975947 -0.212392,0.09671 -0.212392,0.09671 -0.429071,0.195385 -0.175735,-0.07967 -0.351484,-0.159334 -0.532558,-0.241416 0.76908,-0.555599 1.540919,-1.107942 2.313323,-1.659737 0.217449,-0.157158 0.434898,-0.314313 0.658943,-0.47623 0.211956,-0.150935 0.423924,-0.301867 0.642297,-0.457373 0.290749,-0.208601 0.290749,-0.208601 0.587376,-0.421417 0.6194,-0.38253 1.218789,-0.61937 1.922539,-0.847904 0,-0.159335 0,-0.31867 0,-0.482832 z"
     fill="#56bdd6"
     id="path381"
     style="stroke-width:0.253545" /><path
     d="m 63.990019,43.23187 c 0.165095,0.03921 0.330203,0.07842 0.500317,0.118826 -1.160108,0.911252 -2.424422,1.563883 -3.761241,2.233101 -0.215896,0.110797 -0.431804,0.221575 -0.654259,0.335719 -0.311503,0.156847 -0.311503,0.156847 -0.629295,0.31686 -0.188147,0.095 -0.376293,0.189988 -0.570139,0.28786 -0.509558,0.206289 -0.509558,0.206289 -1.308402,0.206289 3.941661,-3.819559 3.941661,-3.819559 6.423019,-3.49865 z"
     fill="#4fbcd6"
     id="path383"
     style="stroke-width:0.253545" /><path
     d="m 47.182016,60.732663 c 0.175748,0.07967 0.351497,0.159334 0.532559,0.241415 -0.903385,0.629713 -1.80795,1.258014 -2.712746,1.886065 -0.255542,0.178162 -0.511098,0.356325 -0.774393,0.539886 -0.248009,0.171938 -0.496005,0.343878 -0.751522,0.521025 -0.227293,0.158032 -0.454599,0.316064 -0.688784,0.478883 -0.646032,0.42468 -1.30554,0.798858 -1.995878,1.16105 -0.08625,-0.668669 -0.08625,-0.668669 0,-1.448496 0.578199,-0.478531 0.578199,-0.478531 1.379264,-0.88928 0.285923,-0.148911 0.571858,-0.29782 0.866445,-0.451242 0.302416,-0.150154 0.604819,-0.300307 0.916386,-0.455013 0.300349,-0.156689 0.600699,-0.313379 0.910148,-0.474816 1.616568,-0.827593 1.616568,-0.827593 2.318521,-1.109477 z"
     fill="#3dabc2"
     id="path385"
     style="stroke-width:0.253545" /><path
     d="m 84.910822,53.94283 c 0.396971,0.0065 0.396971,0.0065 0.801963,0.01321 0.202175,0.0056 0.40435,0.01117 0.612648,0.01699 -1.031361,0.793815 -2.102382,1.398641 -3.278584,1.991683 -0.171808,0.08776 -0.343603,0.175517 -0.520609,0.265935 -0.419458,0.214089 -0.839724,0.426868 -1.260156,0.639376 -0.08792,-0.159334 -0.175748,-0.31867 -0.266286,-0.482833 0.248009,-0.312896 0.498045,-0.624474 0.748916,-0.935486 0.139028,-0.173651 0.278043,-0.3473 0.421267,-0.526214 0.844447,-0.92765 1.475449,-1.009631 2.740841,-0.982639 z"
     fill="#49b4cd"
     id="path387"
     style="stroke-width:0.253545" /><path
     d="m 57.300727,99.359253 c 0.175749,0.07966 0.351484,0.159347 0.532559,0.241416 -0.999261,0.605981 -1.998804,1.211561 -2.998591,1.816811 -0.339689,0.20572 -0.6793,0.41155 -1.018847,0.61746 -0.489613,0.29691 -0.979482,0.59345 -1.469416,0.88992 -0.150399,0.0913 -0.300786,0.18263 -0.455742,0.27672 -2.43003,1.46883 -2.43003,1.46883 -3.110986,1.46883 0.401578,-0.98975 1.029872,-1.31607 2.013757,-1.84078 0.14891,-0.08 0.297821,-0.15992 0.451236,-0.2423 0.328035,-0.17582 0.656736,-0.35061 0.986015,-0.52451 0.590483,-0.31458 1.175407,-0.63674 1.760217,-0.95989 0.409728,-0.22426 0.819546,-0.44839 1.229467,-0.67238 0.197735,-0.10952 0.395469,-0.21916 0.599197,-0.33207 0.484248,-0.261387 0.981767,-0.502365 1.481134,-0.739227 z"
     fill="#4dabc3"
     id="path389"
     style="stroke-width:0.253545" /><path
     d="m 74.342761,60.24983 c -1.426021,1.073679 -2.979736,1.885516 -4.576718,2.731021 -0.294343,0.158868 -0.588686,0.317737 -0.891949,0.481419 -0.280609,0.148908 -0.561218,0.297819 -0.850324,0.45124 -0.25648,0.136707 -0.51296,0.273429 -0.777205,0.414286 -0.206564,0.08828 -0.413142,0.176568 -0.625983,0.267526 -0.175736,-0.07967 -0.351484,-0.159334 -0.532559,-0.241416 0.127323,-0.08143 0.254735,-0.162875 0.385971,-0.24678 0.587017,-0.375373 1.17397,-0.750824 1.760923,-1.126275 0.200288,-0.128054 0.400577,-0.256118 0.606936,-0.388057 0.198235,-0.126809 0.396457,-0.253629 0.600699,-0.384285 0.197388,-0.125621 0.394776,-0.251257 0.598157,-0.380691 0.37098,-0.239678 0.73861,-0.483712 1.101928,-0.732855 1.129727,-0.769855 1.776246,-0.976859 3.200124,-0.845133 z"
     fill="#4bb4ce"
     id="path393"
     style="stroke-width:0.253545" /><path
     d="m 56.235598,93.082436 c 0.175748,0.0797 0.351496,0.159342 0.532558,0.241416 -2.556275,1.554786 -5.126976,3.08603 -7.722166,4.586916 -0.08792,-0.159347 -0.175749,-0.318669 -0.266286,-0.482833 1.230533,-1.203506 2.740481,-1.914896 4.293799,-2.731024 0.295536,-0.15887 0.591086,-0.317741 0.895581,-0.481415 0.281803,-0.148922 0.563618,-0.297832 0.853969,-0.451245 0.258174,-0.136693 0.516335,-0.273429 0.782339,-0.414292 0.207963,-0.0883 0.415927,-0.176558 0.630206,-0.267523 z"
     fill="#4bb4ce"
     id="path395"
     style="stroke-width:0.253545" /><path
     d="m 75.258107,43.214895 c 0.406251,0.03459 0.81218,0.07629 1.2149,0.135802 -1.205915,0.947538 -2.557892,1.780347 -3.994219,2.414162 -0.175749,-0.07967 -0.351497,-0.159334 -0.532571,-0.241415 1.539366,-2.329117 1.539366,-2.329117 3.31189,-2.308544 z"
     fill="#3fb2ca"
     id="path399"
     style="stroke-width:0.253545" /><path
     d="m 58.099571,85.115704 c 0.175749,0.07967 0.351484,0.159334 0.532559,0.241415 -2.084657,1.354352 -4.226955,2.616075 -6.390765,3.862653 -0.08792,-0.159326 -0.175735,-0.318667 -0.266272,-0.482831 1.005306,-1.066723 2.303838,-1.679898 3.628078,-2.368891 0.232042,-0.124333 0.464084,-0.248649 0.70316,-0.376743 0.221736,-0.116229 0.443484,-0.232465 0.671945,-0.352221 0.303584,-0.159558 0.303584,-0.159558 0.613303,-0.322341 0.167637,-0.06634 0.335273,-0.132684 0.507992,-0.201041 z"
     fill="#4cadc5"
     id="path401"
     style="stroke-width:0.253545" /><path
     d="m 45.318043,43.350692 c 0.966609,0 1.933205,0 2.929103,0 -0.785894,0.712503 -1.486551,1.118509 -2.446473,1.614472 -0.289362,0.15031 -0.578725,0.300619 -0.876854,0.455485 -0.221402,0.113582 -0.442791,0.227176 -0.670906,0.344206 0,-0.946141 0.418726,-1.217085 1.06513,-1.93133 0,-0.159334 0,-0.31867 0,-0.482833 z"
     fill="#55b6ce"
     id="path403"
     style="stroke-width:0.253545" /><path
     d="m 79.934669,74.734804 c 0.175748,0.07967 0.351496,0.159334 0.532571,0.241417 -0.312055,0.848743 -0.461415,0.895027 -1.293963,1.306099 -0.314083,0.156612 -0.314083,0.156612 -0.634506,0.316387 -0.33055,0.160347 -0.33055,0.160347 -0.667774,0.323933 -0.324376,0.161745 -0.324376,0.161745 -0.655311,0.32676 -1.026343,0.506926 -2.03668,0.988462 -3.13921,1.348065 1.008976,-1.035386 2.263138,-1.725412 3.528235,-2.474517 0.223803,-0.133813 0.447605,-0.267633 0.678184,-0.405504 0.549872,-0.328569 1.100464,-0.656074 1.651774,-0.98264 z"
     fill="#4cafc7"
     id="path405"
     style="stroke-width:0.253545" /><path
     d="m 42.921511,50.110348 c -0.527245,0.478004 -1.054477,0.956008 -1.597688,1.448496 1.40596,0.07967 2.811933,0.159335 4.260505,0.241418 0,0.07967 0,0.159334 0,0.241415 -1.669589,0 -3.339177,0 -5.059362,0 0,-0.478003 0,-0.956008 0,-1.448496 0.932109,-0.72769 1.172917,-0.760173 2.396545,-0.482833 z"
     fill="#6c7782"
     id="path407"
     style="stroke-width:0.253545" /><path
     d="m 80.46724,88.254109 c 0.175748,0 0.351496,0 0.532558,0 0,0.239012 0,0.478008 0,0.724248 -0.770363,0.393498 -1.54174,0.785349 -2.313323,1.176904 -0.217449,0.111162 -0.434898,0.222196 -0.658944,0.33667 -1.031104,0.522295 -2.035126,1.024525 -3.152212,1.383427 0.939669,-0.95925 2.047474,-1.560637 3.245317,-2.218007 0.386767,-0.214448 0.773366,-0.429134 1.159774,-0.644101 0.170319,-0.09365 0.340638,-0.187452 0.516117,-0.284027 0.400833,-0.213038 0.400833,-0.213038 0.670713,-0.475114 z"
     fill="#4caec6"
     id="path409"
     style="stroke-width:0.253545" /><path
     d="m 48.247146,50.351763 c 0.263616,0.07967 0.527232,0.159335 0.798844,0.241418 -0.08792,0.478002 -0.175749,0.956007 -0.266286,1.448496 -0.878728,-0.07967 -1.757457,-0.159336 -2.662817,-0.241415 0.705059,-0.639223 1.248283,-1.048694 2.130259,-1.448499 z"
     fill="#636e79"
     id="path413"
     style="stroke-width:0.253545" /><path
     d="m 51.975093,102.25626 c 0.08792,0.239 0.175735,0.47801 0.266272,0.72425 -0.476136,0.28297 -0.95344,0.56433 -1.431257,0.84496 -0.265683,0.15684 -0.531365,0.31369 -0.805095,0.47528 -0.692738,0.36966 -0.692738,0.36966 -1.225309,0.36966 0.393993,-0.9443 0.942531,-1.26199 1.897254,-1.75026 0.242349,-0.12572 0.484685,-0.25146 0.734362,-0.38098 0.186042,-0.0933 0.372083,-0.18672 0.563773,-0.28291 z"
     fill="#4bb5cf"
     id="path415"
     style="stroke-width:0.253545" /><path
     d="m 56.235598,93.082436 c 0.175748,0.0797 0.351496,0.159342 0.532558,0.241416 -1.318092,0.796678 -2.636185,1.593349 -3.994219,2.414169 -0.175749,-0.159334 -0.351497,-0.318681 -0.532572,-0.482832 0.653104,-0.369539 1.307799,-0.736255 1.963829,-1.101465 0.186042,-0.105629 0.372097,-0.211296 0.563773,-0.320163 0.479217,-0.26528 0.972205,-0.509872 1.466631,-0.751125 z"
     fill="#4daac2"
     id="path417"
     style="stroke-width:0.253545" /><path
     d="m 51.442521,48.661849 c 0.175749,0.07967 0.351497,0.159336 0.532572,0.241418 -0.878729,0.717005 -1.75747,1.434012 -2.662818,2.172746 -0.175748,-0.31867 -0.351496,-0.637339 -0.532571,-0.965665 0.431086,-0.248775 0.864174,-0.494698 1.298122,-0.739338 0.240975,-0.137242 0.481937,-0.274479 0.730202,-0.415877 0.31407,-0.145182 0.31407,-0.145182 0.634493,-0.293284 z"
     fill="#59bed7"
     id="path423"
     style="stroke-width:0.253545" /><path
     d="m 91.384795,50.593181 c 0,0.398335 0,0.796672 0,1.207081 -0.790861,0 -1.581721,0 -2.396545,0 1.63206,-1.207081 1.63206,-1.207081 2.396545,-1.207081 z"
     fill="#52bad3"
     id="path425"
     style="stroke-width:0.253545" /><path
     d="m 68.218282,53.731591 c 0.175736,0.07967 0.351484,0.159334 0.532559,0.241416 -1.449907,0.956008 -1.449907,0.956008 -2.929103,1.93133 -0.08792,-0.239002 -0.175748,-0.478005 -0.266273,-0.724249 0.431073,-0.248773 0.864161,-0.494696 1.298121,-0.739337 0.240963,-0.137242 0.481925,-0.274479 0.730191,-0.415878 0.314082,-0.145181 0.314082,-0.145181 0.634505,-0.293282 z"
     fill="#6a727e"
     id="path427"
     style="stroke-width:0.253545" /><path
     d="m 43.187784,63.388241 c 0.175748,0.07967 0.351496,0.159334 0.532571,0.241417 -0.437631,0.322591 -0.87602,0.644322 -1.314768,0.965664 -0.366077,0.268879 -0.366077,0.268879 -0.73956,0.543187 -0.608489,0.422478 -0.608489,0.422478 -0.874775,0.422478 0,-0.478004 0,-0.956008 0,-1.448496 0.263616,0.07967 0.527245,0.159334 0.798844,0.241415 0.847552,-0.451879 0.847552,-0.451879 1.597688,-0.965665 z"
     fill="#47b4cd"
     id="path431"
     style="stroke-width:0.253545" /><path
     d="m 51.708807,62.422577 c 0.175748,0.07967 0.351497,0.159334 0.532558,0.241415 -1.449894,0.956008 -1.449894,0.956008 -2.92909,1.93133 -0.08792,-0.239001 -0.175748,-0.478004 -0.266285,-0.724249 0.431085,-0.248774 0.864173,-0.494697 1.298121,-0.739337 0.240962,-0.137241 0.481925,-0.27448 0.73019,-0.415877 0.314083,-0.145181 0.314083,-0.145181 0.634506,-0.293282 z"
     fill="#4daac1"
     id="path433"
     style="stroke-width:0.253545" /><path
     d="m 47.182016,60.732663 c 0.175748,0.07967 0.351497,0.159334 0.532559,0.241415 -1.186278,0.836506 -1.186278,0.836506 -2.396532,1.689914 -0.263616,-0.159334 -0.527232,-0.31867 -0.798844,-0.482833 0.431086,-0.248774 0.864173,-0.494697 1.298121,-0.739337 0.240963,-0.137241 0.481925,-0.274479 0.73019,-0.415877 0.314083,-0.145181 0.314083,-0.145181 0.634506,-0.293282 z"
     fill="#47a6bd"
     id="path435"
     style="stroke-width:0.253545" /><path
     d="m 42.122667,57.352835 c 0.175736,0.07967 0.351484,0.159335 0.532558,0.241416 -0.253514,0.242855 -0.509096,0.483947 -0.765563,0.724248 -0.142108,0.134437 -0.284216,0.268877 -0.430623,0.40739 -0.401501,0.31686 -0.401501,0.31686 -0.934073,0.31686 0.04993,-0.437566 0.04993,-0.437566 0.266286,-0.965665 0.649061,-0.437568 0.649061,-0.437568 1.331415,-0.724249 z"
     fill="#538697"
     id="path437"
     style="stroke-width:0.253545" /><path
     d="m 52.507651,69.423647 c 0.175748,0.07967 0.351496,0.159335 0.532558,0.241415 -0.266272,0.724251 -0.266272,0.724251 -0.915333,1.146728 -0.337763,0.149377 -0.337763,0.149377 -0.682355,0.301771 -0.175748,-0.07967 -0.351483,-0.159335 -0.532558,-0.241416 0.527232,-0.478004 1.054477,-0.956009 1.597688,-1.448498 z"
     fill="#4ab9d3"
     id="path441"
     style="stroke-width:0.253545" /><path
     d="m 68.750841,62.905409 c -0.297102,0.808084 -0.403003,0.874119 -1.181632,1.267436 -0.469565,0.209125 -0.469565,0.209125 -0.948627,0.422477 -0.175736,-0.07967 -0.351484,-0.159334 -0.532559,-0.241416 0.342744,-0.242813 0.686975,-0.483912 1.031836,-0.724248 0.191535,-0.134437 0.383071,-0.268877 0.58042,-0.407392 0.518003,-0.316857 0.518003,-0.316857 1.050562,-0.316857 z"
     fill="#4daac2"
     id="path443"
     style="stroke-width:0.253545" /><path
     d="m 58.898415,45.523439 c 0.175748,0.07967 0.351497,0.159335 0.532559,0.241416 0,0.159334 0,0.31867 0,0.482833 -0.632414,0.40739 -0.632414,0.40739 -1.331403,0.724247 -0.175748,-0.07967 -0.351496,-0.159334 -0.532571,-0.241415 0.439364,-0.398337 0.878741,-0.796674 1.331415,-1.207081 z"
     fill="#5ec0d8"
     id="path445"
     style="stroke-width:0.253545" /></svg>
