<?xml version="1.0" encoding="UTF-8" standalone="no"?>
<svg
   height="128px"
   viewBox="0 0 128 128"
   width="128px"
   version="1.1"
   id="svg8"
   sodipodi:docname="bin2.svg"
   inkscape:version="1.2.2 (b0a8486541, 2022-12-01)"
   xml:space="preserve"
   xmlns:inkscape="http://www.inkscape.org/namespaces/inkscape"
   xmlns:sodipodi="http://sodipodi.sourceforge.net/DTD/sodipodi-0.dtd"
   xmlns="http://www.w3.org/2000/svg"
   xmlns:svg="http://www.w3.org/2000/svg"><defs
     id="defs8"><radialGradient
       id="b"
       cx="48.424"
       cy="-48.028"
       r="38.213001"
       gradientTransform="matrix(0,1.9745065,-3.186569,0.00181349,-90.777903,-58.011315)"
       gradientUnits="userSpaceOnUse"><stop
         offset="0"
         stop-color="#fafafa"
         id="stop7" /><stop
         offset="1"
         stop-color="#e6e6e6"
         id="stop8" /></radialGradient></defs><sodipodi:namedview
     id="namedview8"
     pagecolor="#ffffff"
     bordercolor="#000000"
     borderopacity="0.25"
     inkscape:showpageshadow="2"
     inkscape:pageopacity="0.0"
     inkscape:pagecheckerboard="0"
     inkscape:deskcolor="#d1d1d1"
     inkscape:zoom="4.3641747"
     inkscape:cx="43.650865"
     inkscape:cy="88.67656"
     inkscape:window-width="1920"
     inkscape:window-height="943"
     inkscape:window-x="0"
     inkscape:window-y="32"
     inkscape:window-maximized="1"
     inkscape:current-layer="svg8"
     showgrid="false" /><linearGradient
     id="a"
     gradientTransform="matrix(0.45451 0 0 0.455522 -1210.292114 616.172607)"
     gradientUnits="userSpaceOnUse"
     x1="2689.251953"
     x2="2918.069824"
     y1="-1106.802979"
     y2="-1106.802979"><stop
       offset="0"
       stop-color="#62a0ea"
       id="stop1"
       style="stop-color:#64aa6b;stop-opacity:1;" /><stop
       offset="0.0576991"
       stop-color="#afd4ff"
       id="stop2" /><stop
       offset="0.122204"
       stop-color="#62a0ea"
       id="stop3" /><stop
       offset="0.873306"
       stop-color="#62a0ea"
       id="stop4" /><stop
       offset="0.955997"
       stop-color="#c0d5ea"
       id="stop5" /><stop
       offset="1"
       stop-color="#62a0ea"
       id="stop6" /></linearGradient><path
     d="m 21.976562 12 c -5.527343 0 -9.976562 4.460938 -9.976562 10 v 86.03125 c 0 5.542969 4.449219 10 9.976562 10 h 84.042969 c 5.53125 0 9.980469 -4.457031 9.980469 -10 v -72.085938 c 0 -6.628906 -5.359375 -12 -11.972656 -12 h -46.027344 c -2.453125 0 -4.695312 -1.386718 -5.796875 -3.582031 l -1.503906 -2.992187 c -1.65625 -3.292969 -5.019531 -5.371094 -8.699219 -5.371094 z m 0 0"
     fill="#438de6"
     id="path6"
     inkscape:label="back"
     style="fill:#9f4246;fill-opacity:1" /><path
     d="m 65.976562 32 c -2.746093 0 -5.226562 1.101562 -7.027343 2.890625 c -2.273438 2.253906 -5.382813 5.109375 -8.632813 5.109375 h -28.339844 c -5.527343 0 -9.976562 4.460938 -9.976562 10 v 55.976562 c 0 5.539063 4.449219 10 9.976562 10 h 84.042969 c 5.53125 0 9.980469 -4.460937 9.980469 -10 v -63.976562 c 0 -5.539062 -4.449219 -10 -9.980469 -10 z m 0 0"
     fill="#a4caee"
     id="path8"
     inkscape:label="front"
     style="fill:#c15356;fill-opacity:1" /><polygon
     points="25.742,9.9 13.441,9.9 13.441,30.9 30.916,30.9 30.916,15.15 "
     fill="#9f4246"
     id="polygon329"
     transform="matrix(-3.9178942,0,0,3.7670561,127.82576,7.3770746)" /><polygon
     points="29.656,15.887 29.656,29.663 29.577,29.663 14.851,29.663 14.851,11.138 24.906,11.138 "
     fill="#ffffff"
     id="polygon331"
     transform="matrix(-3.9178942,0,0,3.7670561,127.82576,7.3770746)" /><g
     transform="matrix(3.9178942,0,0,3.7670561,-46.55188,7.3770746)"
     id="g341"><!-- Top 0 --><path
       d="m 18.652,19.945 c 1.188,0 1.922,-1.1 1.922,-2.747 0,-1.609 -0.6,-2.582 -1.8,-2.582 -1.2,0 -1.929,1.1 -1.929,2.747 0.001,1.612 0.603,2.582 1.807,2.582 z M 17.72,17.2 c 0,-1.172 0.322,-1.84 0.99,-1.84 0.487,0 0.784,0.413 0.916,1.105 l -1.9,0.982 A 2.4,2.4 0 0 1 17.72,17.2 Z m 1,2 c -0.478,0 -0.784,-0.4 -0.916,-1.073 l 1.9,-0.982 V 17.36 C 19.7,18.534 19.387,19.2 18.718,19.2 Z"
       fill="#9f4246"
       id="path333" /><!-- Top 1 --><polygon
       points="22.989,19.069 22.989,19.837 26.421,19.835 26.496,19.068 25.258,19.068 25.258,14.558 24.376,14.633 24.376,15.233 23.105,15.365 23.122,16.033 24.376,16 24.376,19.069 "
       fill="#9f4246"
       id="polygon335" /><!-- Bottom 1 --><polygon
       points="17.102,26.194 17.102,26.962 20.533,26.96 20.608,26.193 19.371,26.193 19.371,21.682 18.488,21.757 18.488,22.357 17.218,22.489 17.234,23.158 18.488,23.125 18.488,26.194 "
       fill="#9f4246"
       id="polygon337" /><!-- Bottom 0 --><path
       d="m 24.615,27.067 c 1.188,0 1.922,-1.1 1.922,-2.747 0,-1.609 -0.6,-2.582 -1.8,-2.582 -1.2,0 -1.93,1.1 -1.93,2.747 0,1.611 0.6,2.585 1.808,2.585 z m -0.932,-2.745 c 0,-1.172 0.322,-1.84 0.99,-1.84 0.487,0 0.784,0.412 0.916,1.105 l -1.9,0.982 a 2.4,2.4 0 0 1 -0.006,-0.247 z m 1,2 c -0.479,0 -0.784,-0.4 -0.916,-1.073 l 1.9,-0.982 v 0.214 c -0.004,1.178 -0.318,1.844 -0.986,1.844 z"
       fill="#9f4246"
       id="path339" /></g></svg>
