<?xml version="1.0" encoding="UTF-8" standalone="no"?>
<svg
   height="128px"
   viewBox="0 0 128 128"
   width="128px"
   version="1.1"
   id="svg8"
   sodipodi:docname="book2.svg"
   inkscape:version="1.4 (e7c3feb100, 2024-10-09)"
   xml:space="preserve"
   xmlns:inkscape="http://www.inkscape.org/namespaces/inkscape"
   xmlns:sodipodi="http://sodipodi.sourceforge.net/DTD/sodipodi-0.dtd"
   xmlns="http://www.w3.org/2000/svg"
   xmlns:svg="http://www.w3.org/2000/svg"><defs
     id="defs8"><radialGradient
       id="b"
       cx="48.424"
       cy="-48.028"
       r="38.213001"
       gradientTransform="matrix(0,1.9745065,-3.186569,0.00181349,-90.777903,-58.011315)"
       gradientUnits="userSpaceOnUse"><stop
         offset="0"
         stop-color="#fafafa"
         id="stop7" /><stop
         offset="1"
         stop-color="#e6e6e6"
         id="stop8" /></radialGradient></defs><sodipodi:namedview
     id="namedview8"
     pagecolor="#ffffff"
     bordercolor="#000000"
     borderopacity="0.25"
     inkscape:showpageshadow="2"
     inkscape:pageopacity="0.0"
     inkscape:pagecheckerboard="0"
     inkscape:deskcolor="#d1d1d1"
     inkscape:zoom="6.171875"
     inkscape:cx="101.99494"
     inkscape:cy="74.693671"
     inkscape:window-width="1920"
     inkscape:window-height="1008"
     inkscape:window-x="0"
     inkscape:window-y="0"
     inkscape:window-maximized="1"
     inkscape:current-layer="svg8" /><linearGradient
     id="a"
     gradientTransform="matrix(0.45451 0 0 0.455522 -1210.292114 616.172607)"
     gradientUnits="userSpaceOnUse"
     x1="2689.251953"
     x2="2918.069824"
     y1="-1106.802979"
     y2="-1106.802979"><stop
       offset="0"
       stop-color="#62a0ea"
       id="stop1"
       style="stop-color:#64aa6b;stop-opacity:1;" /><stop
       offset="0.0576991"
       stop-color="#afd4ff"
       id="stop2" /><stop
       offset="0.122204"
       stop-color="#62a0ea"
       id="stop3" /><stop
       offset="0.873306"
       stop-color="#62a0ea"
       id="stop4" /><stop
       offset="0.955997"
       stop-color="#c0d5ea"
       id="stop5" /><stop
       offset="1"
       stop-color="#62a0ea"
       id="stop6" /></linearGradient><path
     d="M 21.976562,12 C 16.449219,12 12,16.460938 12,22 v 86.03125 c 0,5.54297 4.449219,10 9.976562,10 h 84.042968 c 5.53125,0 9.98047,-4.45703 9.98047,-10 V 35.945312 c 0,-6.628906 -5.35937,-12 -11.97266,-12 H 58 c -2.453125,0 -4.695312,-1.386718 -5.796875,-3.582031 L 50.699219,17.371094 C 49.042969,14.078125 45.679688,12 42,12 Z m 0,0"
     fill="#438de6"
     id="path6"
     inkscape:label="back"
     style="fill:#2c5aa8;fill-opacity:1"
     sodipodi:insensitive="true" /><path
     d="M 65.976562,32 C 63.230469,32 60.75,33.101562 58.949219,34.890625 56.675781,37.144531 53.566406,40 50.316406,40 H 21.976562 C 16.449219,40 12,44.460938 12,50 v 55.97656 c 0,5.53907 4.449219,10 9.976562,10 h 84.042968 c 5.53125,0 9.98047,-4.46093 9.98047,-10 V 42 c 0,-5.539062 -4.44922,-10 -9.98047,-10 z m 0,0"
     fill="#a4caee"
     id="path8"
     inkscape:label="front"
     style="fill:#597fc7;fill-opacity:1"
     sodipodi:insensitive="true" /><path
     style="fill:#1b8cbd;fill-opacity:1"
     d="m 30.298734,68.212658 c 0,0 -1.21519,1.377215 -2.673418,2.268354 -1.458228,0.891139 -2.592405,1.134177 -2.592405,1.134177 l 12.556962,34.673421 c 0,0 12.51306,-5.97514 14.501265,-6.643042 2.594116,-0.87145 6.601094,-1.856155 10.04557,-2.430379 6.821555,-1.137212 9.356688,3.853261 14.339241,3.159491 6.399999,-0.891142 9.044607,-6.821654 13.772152,-8.668351 C 95.43291,89.681012 100.29367,88.465822 106.45063,89.032911 100.69873,71.453164 30.298734,68.212658 30.298734,68.212658 Z"
     id="path1"
     sodipodi:nodetypes="csccsssscc" /><path
     style="fill:#b6d3e0;fill-opacity:1"
     d="m 32.648101,63.10886 c 0,0 -1.863291,4.293671 -2.835443,5.508861 -0.972152,1.21519 -2.106329,3.807595 -2.106329,3.807595 l 11.341772,30.784814 c 0,0 12.962025,-6.88608 16.526582,-7.615194 3.564557,-0.729114 6.562025,-2.349367 12.962025,-0.891139 3.153602,0.718542 4.455697,3.402529 8.425317,2.916455 3.972063,-0.486373 6.481012,-4.941772 7.777215,-6.075949 1.296202,-1.134177 7.048101,-3.483544 9.883544,-4.131646 2.835443,-0.648101 11.179746,-0.729113 11.179746,-0.729113 l -2.83544,-6.237975 c 0,0 -11.584812,1.458228 -13.934179,2.673418 -2.349367,1.215189 -6.4,3.645569 -8.344304,5.103797 -1.944304,1.458228 -4.536709,4.455696 -4.536709,4.455696 0,0 -7.858228,-5.670886 -12.718987,-5.18481 -4.86076,0.486076 -8.506329,1.134177 -11.665823,2.106329 -3.159494,0.972152 -5.95443,3.807595 -5.95443,3.807595 z"
     id="path2"
     sodipodi:nodetypes="csccsssssccsscsscc" /><path
     style="fill:#e2f0f8;fill-opacity:1"
     d="m 32.405063,62.703797 12.475949,31.837974 c 0,0 12.718988,-6.318987 19.037975,-5.346835 6.318987,0.972152 12.232911,3.888608 12.232911,3.888608 0,0 7.453165,-8.263292 14.258228,-10.04557 6.805063,-1.782278 12.637974,-2.187342 12.637974,-2.187342 L 83.605063,48.931645 c 0,0 -8.020253,0.648101 -12.556962,3.078481 -4.536709,2.43038 -11.179747,7.129114 -11.179747,7.129114 0,0 -8.506329,-2.106329 -12.394937,-1.863291 -3.888607,0.243038 -8.425316,1.296202 -10.045569,2.187342 -1.620253,0.891139 -5.022785,3.240506 -5.022785,3.240506 z"
     id="path3" /><path
     style="fill:#b6d3e0;fill-opacity:1"
     d="m 37.521413,65.535268 2.11953,4.582768 c 0,0 2.873462,-3.093928 8.535405,-3.437076 5.671176,-0.343708 13.290027,0.916554 13.290027,0.916554 l -2.176814,-4.067207 c 0,0 -6.808084,-1.805027 -13.805589,-0.859269 -4.022556,0.543675 -7.962559,2.86423 -7.962559,2.86423 z"
     id="path4"
     sodipodi:nodetypes="ccsccsc" /><path
     style="fill:#b6d3e0;fill-opacity:1"
     d="m 40.838068,73.503589 2.11953,4.582768 c 0,0 2.873462,-3.093928 8.535405,-3.437076 5.671176,-0.343708 13.290027,0.916554 13.290027,0.916554 l -2.176814,-4.067207 c 0,0 -6.808084,-1.805027 -13.805589,-0.859269 -4.022556,0.543675 -7.962559,2.86423 -7.962559,2.86423 z"
     id="path4-3"
     sodipodi:nodetypes="ccsccsc" /><path
     style="fill:#b6d3e0;fill-opacity:1"
     d="m 44.645014,82.024111 2.11953,4.582768 c 0,0 2.873462,-3.093928 8.535405,-3.437076 5.671176,-0.343708 13.290027,0.916554 13.290027,0.916554 L 66.413162,80.01915 c 0,0 -6.808084,-1.805027 -13.805589,-0.859269 -4.022556,0.543675 -7.962559,2.86423 -7.962559,2.86423 z"
     id="path4-6"
     sodipodi:nodetypes="ccsccsc" /><path
     style="fill:#b6d3e0;fill-opacity:1"
     d="m 64.741143,60.050336 0.864229,1.434283 c 0,0 4.077892,-3.699853 8.092974,-5.924296 3.889454,-2.154841 10.457955,-2.436012 10.457955,-2.436012 l -1.589392,-1.650537 c 0,0 -6.023281,0.845257 -10.678794,3.404169 -3.540153,1.945853 -7.146972,5.172393 -7.146972,5.172393 z"
     id="path5"
     sodipodi:nodetypes="ccsccsc" /><path
     style="fill:#b6d3e0;fill-opacity:1"
     d="m 66.671005,63.676316 0.842599,1.447097 c 0,0 4.132979,-3.638214 8.181004,-5.802128 3.921366,-2.096205 10.493348,-2.278731 10.493348,-2.278731 l -1.564433,-1.674213 c 0,0 -6.035291,0.754734 -10.728697,3.243464 -3.568967,1.892485 -7.223821,5.064511 -7.223821,5.064511 z"
     id="path5-7"
     sodipodi:nodetypes="ccsccsc" /><path
     style="fill:#b6d3e0;fill-opacity:1"
     d="m 68.650501,67.172941 0.82048,1.459751 c 0,0 4.187864,-3.574901 8.26835,-5.676964 3.95281,-2.03629 10.526808,-2.118788 10.526808,-2.118788 l -1.538775,-1.697825 c 0,0 -6.046077,0.662806 -10.776811,3.079827 -3.597353,1.837956 -7.300052,4.953999 -7.300052,4.953999 z"
     id="path5-5"
     sodipodi:nodetypes="ccsccsc" /><path
     style="fill:#b6d3e0;fill-opacity:1"
     d="m 70.707028,70.522172 0.824225,1.45764 c 0,0 4.168656,-3.868056 8.448524,-5.5269 4.740691,-1.837457 10.326559,-2.317076 10.326559,-2.317076 l -1.543128,-1.69387 c 0,0 -6.044357,0.678326 -10.76887,3.107483 -3.592623,1.847185 -7.28731,4.972723 -7.28731,4.972723 z"
     id="path5-3"
     sodipodi:nodetypes="ccsccsc" /><path
     style="fill:#5d93aa;fill-opacity:1"
     d="m 72.303797,74.69367 4.455696,9.478481 c 0,0 3.149898,-3.102238 6.84557,-5.306329 6.146435,-3.66572 13.650633,-4.172152 13.650633,-4.172152 l -5.184811,-8.222784 c 0,0 -7.522662,1.815834 -12.192405,3.726582 -3.76185,1.539259 -7.574683,4.496202 -7.574683,4.496202 z"
     id="path7"
     sodipodi:nodetypes="ccsccsc" /></svg>
