<?xml version="1.0" encoding="UTF-8" standalone="no"?>
<svg
   height="128px"
   viewBox="0 0 128 128"
   width="128px"
   version="1.1"
   id="svg8"
   sodipodi:docname="codes.svg"
   inkscape:version="1.2.2 (b0a8486541, 2022-12-01)"
   xml:space="preserve"
   xmlns:inkscape="http://www.inkscape.org/namespaces/inkscape"
   xmlns:sodipodi="http://sodipodi.sourceforge.net/DTD/sodipodi-0.dtd"
   xmlns="http://www.w3.org/2000/svg"
   xmlns:svg="http://www.w3.org/2000/svg"><defs
     id="defs8"><radialGradient
       id="b"
       cx="48.424"
       cy="-48.028"
       r="38.213001"
       gradientTransform="matrix(0,1.9745065,-3.186569,0.00181349,-90.777903,-58.011315)"
       gradientUnits="userSpaceOnUse"><stop
         offset="0"
         stop-color="#fafafa"
         id="stop7" /><stop
         offset="1"
         stop-color="#e6e6e6"
         id="stop8" /></radialGradient></defs><sodipodi:namedview
     id="namedview8"
     pagecolor="#ffffff"
     bordercolor="#000000"
     borderopacity="0.25"
     inkscape:showpageshadow="2"
     inkscape:pageopacity="0.0"
     inkscape:pagecheckerboard="0"
     inkscape:deskcolor="#d1d1d1"
     inkscape:zoom="2.5858882"
     inkscape:cx="53.17322"
     inkscape:cy="58.780577"
     inkscape:window-width="1920"
     inkscape:window-height="943"
     inkscape:window-x="0"
     inkscape:window-y="32"
     inkscape:window-maximized="1"
     inkscape:current-layer="svg8"
     showgrid="false" /><linearGradient
     id="a"
     gradientTransform="matrix(0.45451 0 0 0.455522 -1210.292114 616.172607)"
     gradientUnits="userSpaceOnUse"
     x1="2689.251953"
     x2="2918.069824"
     y1="-1106.802979"
     y2="-1106.802979"><stop
       offset="0"
       stop-color="#62a0ea"
       id="stop1"
       style="stop-color:#64aa6b;stop-opacity:1;" /><stop
       offset="0.0576991"
       stop-color="#afd4ff"
       id="stop2" /><stop
       offset="0.122204"
       stop-color="#62a0ea"
       id="stop3" /><stop
       offset="0.873306"
       stop-color="#62a0ea"
       id="stop4" /><stop
       offset="0.955997"
       stop-color="#c0d5ea"
       id="stop5" /><stop
       offset="1"
       stop-color="#62a0ea"
       id="stop6" /></linearGradient><path
     d="m 21.976562 12 c -5.527343 0 -9.976562 4.460938 -9.976562 10 v 86.03125 c 0 5.542969 4.449219 10 9.976562 10 h 84.042969 c 5.53125 0 9.980469 -4.457031 9.980469 -10 v -72.085938 c 0 -6.628906 -5.359375 -12 -11.972656 -12 h -46.027344 c -2.453125 0 -4.695312 -1.386718 -5.796875 -3.582031 l -1.503906 -2.992187 c -1.65625 -3.292969 -5.019531 -5.371094 -8.699219 -5.371094 z m 0 0"
     fill="#438de6"
     id="path6"
     inkscape:label="back"
     style="fill:#3481e7;fill-opacity:1" /><path
     d="m 65.976562 32 c -2.746093 0 -5.226562 1.101562 -7.027343 2.890625 c -2.273438 2.253906 -5.382813 5.109375 -8.632813 5.109375 h -28.339844 c -5.527343 0 -9.976562 4.460938 -9.976562 10 v 55.976562 c 0 5.539063 4.449219 10 9.976562 10 h 84.042969 c 5.53125 0 9.980469 -4.460937 9.980469 -10 v -63.976562 c 0 -5.539062 -4.449219 -10 -9.980469 -10 z m 0 0"
     fill="#a4caee"
     id="path8"
     inkscape:label="front"
     style="fill:#83b6f8;fill-opacity:1" /><path
     d="m 37.192069,50.748165 c 1.137943,0 2.275899,0 3.448328,0 0.213366,0.520993 0.426732,1.041986 0.646564,1.578768 0.492324,0.30054 0.763595,0.296484 1.310635,0.297409 0.18522,9.47e-4 0.370453,0.0019 0.561295,0.0028 0.204695,-2.9e-4 0.409389,-5.53e-4 0.620297,-8.43e-4 0.324801,0.0011 0.324801,0.0011 0.656156,0.0023 0.730307,0.0022 1.460601,0.0026 2.190908,0.003 0.521731,0.0012 1.043461,0.0026 1.56518,0.0041 1.126032,0.003 2.252064,0.0052 3.378084,0.0069 1.780373,0.0027 3.560733,0.0081 5.341106,0.01398 0.609016,0.002 1.218032,0.0039 1.827047,0.0058 0.152223,5e-4 0.304432,9.73e-4 0.461268,0.0015 1.733573,0.0056 3.467146,0.01044 5.200719,0.01517 0.1585,4.22e-4 0.317012,8.69e-4 0.480313,0.0013 2.566644,0.0069 5.133287,0.01179 7.69993,0.01621 2.635148,0.0046 5.270283,0.0122 7.905418,0.02234 1.625201,0.0061 3.25039,0.0099 4.875604,0.0103 1.246479,6.32e-4 2.492945,0.0053 3.739412,0.01152 0.510853,0.0019 1.021706,0.0024 1.532572,0.0015 0.697813,-10e-4 1.3955,0.0028 2.0933,0.0077 0.302718,-0.0022 0.302718,-0.0022 0.611562,-0.0045 1.610227,0.01986 3.010026,0.392428 4.253959,1.735659 0.134463,0.139406 0.268926,0.278813 0.407472,0.422444 1.354146,1.962394 1.388316,3.766013 1.377779,6.240426 0.0013,0.356383 0.0038,0.712764 0.005,1.069139 0.005,0.962866 0.0038,1.925616 0.0025,2.888493 -0.0011,0.806198 4.29e-4,1.612374 0.0025,2.41857 0.0038,1.903295 0.0025,3.806537 -6.55e-4,5.709832 -0.0038,1.95806 -2.15e-4,3.915966 0.0063,5.874009 0.0063,1.686115 0.0076,3.372176 0.005,5.058303 -0.0011,1.004842 -6.56e-4,2.009588 0.0038,3.014419 0.0038,0.945628 0.0025,1.891033 -0.0025,2.836647 -0.0013,0.508548 0.0025,1.017107 0.0063,1.525636 -0.02029,2.289582 -0.357307,4.10454 -1.650082,5.828092 -1.602362,1.89607 -3.283413,1.8739 -5.412044,1.8668 -0.262333,0.001 -0.524667,0.002 -0.794967,0.004 -0.725542,0.003 -1.451047,0.003 -2.17659,0.003 -0.783497,-1e-4 -1.566994,0.003 -2.350491,0.005 -1.533896,0.004 -3.067791,0.006 -4.601687,0.006 -1.246882,2.5e-4 -2.493752,0.001 -3.740635,0.003 -3.536407,0.005 -7.072827,0.007 -10.609234,0.007 -0.190539,-2e-5 -0.381066,-4e-5 -0.577379,-6e-5 -0.190766,-2e-5 -0.381532,-4e-5 -0.578084,-7e-5 -3.092697,-2.1e-4 -6.185369,0.005 -9.278067,0.0122 -3.176805,0.008 -6.353599,0.0113 -9.530404,0.0107 -1.783058,-1.7e-4 -3.566091,0.001 -5.349136,0.007 -1.517812,0.005 -3.035587,0.006 -4.553399,0.002 -0.774145,-0.002 -1.548214,-0.002 -2.322347,0.003 -0.839775,0.005 -1.679462,0.002 -2.519251,-0.002 -0.243843,0.003 -0.487686,0.005 -0.738928,0.008 -1.69842,-0.0182 -2.839413,-0.35812 -4.151044,-1.75614 -0.136127,-0.19333 -0.272266,-0.38667 -0.412514,-0.58587 -0.139467,-0.19198 -0.278934,-0.38396 -0.422623,-0.58176 -0.670122,-1.18688 -0.843456,-2.356416 -0.847326,-3.778187 -0.0025,-0.46031 -0.0025,-0.46031 -0.005,-0.929924 1.9e-4,-0.333017 4.29e-4,-0.666034 6.43e-4,-1.009143 -0.0013,-0.357156 -0.0025,-0.714314 -0.0038,-1.071467 -0.0038,-0.967181 -0.005,-1.934336 -0.005,-2.901528 -2.14e-4,-0.605023 -0.0013,-1.210038 -0.0025,-1.815056 -0.0038,-2.112867 -0.0063,-4.225713 -0.005,-6.338583 2.14e-4,-1.966107 -0.0038,-3.932136 -0.01134,-5.898221 -0.005,-1.691002 -0.0076,-3.38198 -0.0076,-5.072994 1.14e-4,-1.008649 -0.0011,-2.01723 -0.0063,-3.025863 -0.0038,-0.94904 -0.0038,-1.897946 -0.0011,-2.846988 6.42e-4,-0.511797 -0.0025,-1.023595 -0.0063,-1.535371 0.01286,-2.18561 0.22437,-3.638837 1.444733,-5.318021 0.240453,-0.249304 0.240453,-0.249304 0.485771,-0.503644 0.159747,-0.170272 0.319494,-0.340545 0.484081,-0.515977 0.897743,-0.787385 1.686471,-1.028328 2.783236,-1.054568 0.339018,-0.01166 0.339018,-0.01166 0.684868,-0.02364 0.473141,-0.01166 0.94627,-0.02331 1.419411,-0.03495 0.225731,-0.0079 0.451462,-0.0156 0.684024,-0.02364 0.205324,-0.0049 0.410649,-0.0099 0.6222,-0.0149 0.594684,-0.08101 0.932997,-0.173549 1.417734,-0.601957 0.142239,-0.434161 0.284479,-0.868323 0.431042,-1.315641 z"
     fill="#f7f6fd"
     id="path4"
     style="stroke-width:0.238138" /><path
     d="m 33.110638,48.560912 c 0.252402,-0.0042 0.504803,-0.0085 0.764855,-0.01288 0.243503,-1.7e-4 0.487019,-3.42e-4 0.737908,-5.26e-4 0.220878,-7.89e-4 0.441756,-0.0016 0.66934,-0.0023 0.711917,0.113186 1.117638,0.372619 1.693806,0.887351 0.302718,0.739167 0.269178,1.286197 0.215522,2.105024 -0.3836,0.825148 -0.543776,1.010683 -1.293128,1.31564 -0.377563,0.02706 -0.755818,0.04075 -1.134011,0.04625 -0.2235,0.0062 -0.447012,0.01261 -0.677293,0.01902 -0.467482,0.01125 -0.935014,0.01948 -1.402559,0.02467 -1.686962,0.0547 -2.882268,0.369232 -4.16603,1.74271 -0.116086,0.17129 -0.23226,0.34258 -0.351913,0.519062 -0.119489,0.170611 -0.238915,0.341223 -0.362009,0.517005 -0.623195,1.104283 -0.796543,2.06834 -0.800173,3.398389 -0.0025,0.459199 -0.0025,0.459199 -0.005,0.927673 1.89e-4,0.333551 4.28e-4,0.667103 6.42e-4,1.010761 -0.0013,0.356691 -0.0025,0.713381 -0.0038,1.07007 -0.0038,0.967214 -0.005,1.934403 -0.005,2.901627 -2.26e-4,0.605067 -0.0013,1.210127 -0.0025,1.815191 -0.0038,2.113166 -0.0063,4.226316 -0.005,6.339488 2.14e-4,1.965944 -0.0038,3.931814 -0.01134,5.89774 -0.005,1.690777 -0.0076,3.381528 -0.0076,5.072318 1.14e-4,1.008515 -0.0011,2.016961 -0.0063,3.025459 -0.0038,0.949469 -0.0038,1.898804 -0.0011,2.848278 6.43e-4,0.511434 -0.0025,1.022868 -0.0063,1.534284 0.0126,2.162147 0.235197,3.894922 1.397592,5.584942 0.140299,0.13873 0.280598,0.27746 0.425144,0.42039 0.139744,0.14348 0.279488,0.28695 0.423468,0.43478 0.863912,0.70905 1.6251,0.96305 2.660495,0.96427 0.22481,0.002 0.449608,0.003 0.681225,0.005 0.368374,-0.002 0.368374,-0.002 0.744197,-0.003 0.261969,10e-4 0.523937,0.002 0.793846,0.003 0.726525,0.002 1.452988,0.002 2.179514,10e-4 0.7838,-5.2e-4 1.567599,0.002 2.351399,0.004 1.535395,0.003 3.070778,0.004 4.606186,0.003 1.248118,-5.3e-4 2.496236,-1e-5 3.744366,0.001 0.177595,1.6e-4 0.355203,2.6e-4 0.538192,5.3e-4 0.360799,2.6e-4 0.721598,5.2e-4 1.082409,10e-4 3.384399,0.003 6.768798,0.002 10.153209,7.9e-4 3.095508,-0.001 6.191004,0.002 9.286512,0.007 3.178734,0.005 6.357468,0.007 9.536215,0.006 1.784495,-5.2e-4 3.568989,1.6e-4 5.353484,0.004 1.519401,0.003 3.038776,0.004 4.558164,2.6e-4 0.775002,-0.002 1.549966,-0.002 2.324955,0.001 0.840734,0.003 1.681417,5.3e-4 2.52215,-0.003 0.244146,0.002 0.488279,0.004 0.739824,0.006 1.848033,-0.0155 3.397469,-0.3689 4.773105,-1.98701 1.367002,-1.85277 1.344364,-4.076737 1.331836,-6.446537 0.0011,-0.357275 0.0025,-0.714548 0.005,-1.071818 0.0038,-0.963904 0.0025,-1.927692 -4.28e-4,-2.891601 -0.0025,-1.012154 -1.64e-4,-2.024297 0.0013,-3.036451 0.0013,-1.698918 -4.28e-4,-3.397788 -0.005,-5.096698 -0.005,-1.960303 -0.0038,-3.920486 0.0013,-5.880783 0.0038,-1.687671 0.005,-3.375308 0.0025,-5.062985 -0.0013,-1.005982 -0.0013,-2.011909 0.0013,-3.017887 0.0025,-0.945821 6.43e-4,-1.891495 -0.0038,-2.837301 -0.0013,-0.509898 8.57e-4,-1.019807 0.0038,-1.529698 -0.01689,-2.139969 -0.2281,-3.576821 -1.387232,-5.251694 -0.204618,-0.212671 -0.204618,-0.212671 -0.413358,-0.429639 -0.13474,-0.14585 -0.269481,-0.291702 -0.408317,-0.441972 -1.309993,-1.008123 -2.699203,-0.981415 -4.197945,-0.97098 -0.217916,-6.05e-4 -0.43582,-0.0012 -0.660341,-0.0018 -0.728466,-0.0014 -1.456908,9.2e-4 -2.185387,0.0033 -0.522928,-2.89e-4 -1.045869,-8.42e-4 -1.56881,-0.0016 -1.125188,-0.0012 -2.250363,-9.73e-4 -3.375563,4.75e-4 -1.77847,0.0022 -3.556915,-7.9e-4 -5.335384,-0.0045 -0.60894,-0.0012 -1.217868,-0.0024 -1.826795,-0.0035 -0.228226,-4.21e-4 -0.228226,-4.21e-4 -0.461066,-8.69e-4 -1.730006,-0.0033 -3.46,-0.0052 -5.189993,-0.0068 -0.158071,-1.44e-4 -0.316129,-2.89e-4 -0.47899,-4.48e-4 -2.564223,-0.0022 -5.128446,-0.0013 -7.692669,2.16e-4 -2.633963,0.0015 -5.267901,-0.002 -7.901851,-0.0099 -1.624143,-0.0046 -3.24821,-0.005 -4.872352,-9.4e-5 -1.243643,0.0034 -2.487223,2.6e-5 -3.730854,-0.006 -0.510437,-0.0013 -1.020874,-3.95e-4 -1.531299,0.003 -0.695696,0.0042 -1.391051,3.94e-4 -2.086734,-0.0054 -0.202967,0.0031 -0.405922,0.0064 -0.61504,0.0096 -0.973873,-0.01694 -1.393332,-0.05159 -2.189346,-0.793216 -0.413447,-0.696866 -0.413447,-0.696866 -0.548149,-1.48625 0.186872,-1.0951 0.48446,-1.426841 1.212309,-2.105024 0.713077,-0.192911 1.411886,-0.176467 2.139861,-0.165294 0.21721,-0.0019 0.43442,-0.0038 0.658197,-0.0057 0.728845,-0.0046 1.457438,1.44e-4 2.18627,0.0049 0.522197,-0.0013 1.044407,-0.0033 1.566604,-0.0057 1.272142,-0.0043 2.544233,-0.0026 3.816374,0.0022 1.034916,0.0037 2.069819,0.0047 3.104735,0.0038 0.147395,-1.26e-4 0.294777,-2.51e-4 0.446621,-3.69e-4 0.299454,-2.63e-4 0.598895,-5.51e-4 0.898348,-8.41e-4 2.648786,-0.0023 5.297533,0.0022 7.946306,0.0099 2.565913,0.0076 5.131774,0.0095 7.697699,0.0054 2.796256,-0.0045 5.592487,-0.0054 8.388743,-8.69e-4 0.298861,4.74e-4 0.597722,9.73e-4 0.896584,0.0015 0.220537,3.69e-4 0.220537,3.69e-4 0.445537,7.36e-4 1.031802,0.0015 2.06358,6.06e-4 3.095382,-0.0011 1.392551,-0.0023 2.785051,0.0012 4.177602,0.0084 0.509706,0.0018 1.019412,0.0019 1.529118,-5.6e-5 3.594853,-0.01179 6.869116,0.05148 9.620051,3.269872 2.20749,2.905941 2.44324,6.06323 2.44092,9.899489 0.001,0.346491 0.002,0.692982 0.004,1.049974 0.004,0.943286 0.005,1.886548 0.005,2.829845 2.2e-4,0.591286 0.001,1.182565 0.002,1.773849 0.004,2.068322 0.006,4.136626 0.005,6.204952 -2.1e-4,1.919171 0.004,3.838264 0.0113,5.757413 0.006,1.655288 0.008,3.310552 0.008,4.965858 -1.1e-4,0.985291 0.001,1.970513 0.006,2.955791 0.004,0.927676 0.004,1.855218 0.001,2.7829 -6.5e-4,0.496781 0.003,0.993564 0.006,1.490326 -0.0202,3.401312 -0.71586,6.496258 -2.67303,8.98988 -2.252521,2.55058 -4.643384,2.98454 -7.628138,2.97226 -0.39183,0.002 -0.39183,0.002 -0.791576,0.003 -0.720451,0.002 -1.440863,0.002 -2.161314,0.001 -0.778808,-5.2e-4 -1.557604,0.002 -2.336412,0.004 -1.524039,0.003 -3.048078,0.004 -4.572117,0.003 -1.239371,-5.3e-4 -2.478728,-1e-5 -3.718086,10e-4 -0.264956,2.3e-4 -0.264956,2.3e-4 -0.535268,5.2e-4 -0.358895,2.7e-4 -0.717791,5.3e-4 -1.076674,10e-4 -3.363173,0.003 -6.726321,0.002 -10.089482,7.9e-4 -3.073274,-0.001 -6.146522,0.002 -9.219784,0.007 -3.159298,0.005 -6.318584,0.007 -9.47787,0.006 -1.77223,-5.2e-4 -3.544448,1.5e-4 -5.316666,0.004 -1.508864,0.003 -3.017702,0.004 -4.526565,2.6e-4 -0.76899,-0.002 -1.537954,-0.002 -2.306957,0.001 -0.835666,0.003 -1.671282,5.3e-4 -2.506949,-0.003 -0.360307,0.003 -0.360307,0.003 -0.727887,0.006 -2.730172,-0.023 -5.144189,-0.74517 -7.220638,-2.9907 -1.628629,-2.051572 -2.558752,-4.730696 -2.571432,-7.583984 -0.0025,-0.311269 -0.0038,-0.622542 -0.005,-0.943249 -8.57e-4,-0.340636 -0.0013,-0.681274 -0.0025,-1.032234 -0.0013,-0.363149 -0.0038,-0.726294 -0.005,-1.089443 -0.005,-1.192146 -0.0088,-2.384296 -0.0126,-3.576455 -0.0011,-0.41143 -0.0025,-0.822862 -0.0038,-1.234292 -0.005,-1.712803 -0.0088,-3.425607 -0.01134,-5.138415 -0.0038,-2.448576 -0.01008,-4.897036 -0.02294,-7.345567 -0.0088,-1.724747 -0.0126,-3.449464 -0.01374,-5.17424 -8.7e-4,-1.028419 -0.0038,-2.056721 -0.01008,-3.085108 -0.0063,-0.969347 -0.0076,-1.938507 -0.005,-2.90788 6.3e-5,-0.520399 -0.005,-1.040787 -0.01008,-1.561141 0.01891,-3.335108 0.944971,-6.080617 2.864155,-8.456885 2.050648,-2.287408 4.277378,-2.806916 6.984219,-2.797792 z"
     fill="#000000"
     id="path10"
     style="stroke-width:0.238138" /><path
     d="m 31.655885,52.820298 c 0.262258,0.01084 0.524516,0.0217 0.794728,0.03289 -0.155853,0.285935 -0.155853,0.285935 -0.314869,0.577648 -0.136127,0.254392 -0.272253,0.508783 -0.412514,0.770883 -0.202526,0.375482 -0.202526,0.375482 -0.409149,0.758549 -0.615217,1.301703 -0.856754,2.446857 -0.860787,3.944974 -0.0025,0.465242 -0.0025,0.465242 -0.005,0.939883 1.89e-4,0.336699 3.79e-4,0.673399 5.8e-4,1.020301 -0.0013,0.36106 -0.0025,0.72212 -0.0038,1.083179 -0.0038,0.978105 -0.005,1.956187 -0.005,2.934303 -3.02e-4,0.612257 -0.0012,1.224507 -0.0025,1.836762 -0.0038,2.139366 -0.0063,4.278714 -0.005,6.418085 2.52e-4,1.988508 -0.0038,3.976943 -0.01134,5.965434 -0.005,1.711572 -0.0076,3.423121 -0.0076,5.134705 1.01e-4,1.020292 -0.0011,2.040517 -0.0063,3.060796 -0.0038,0.960917 -0.0038,1.921705 -0.0011,2.882628 6.68e-4,0.516352 -0.0025,1.032706 -0.0063,1.549038 0.01676,2.904615 0.561245,5.158702 2.051744,7.433382 -1.371653,0.1196 -2.319826,-0.0551 -3.448341,-1.05252 -1.211918,-1.37767 -2.059029,-2.629406 -2.210647,-4.706508 -6.42e-4,-0.265527 -0.0013,-0.531052 -0.0025,-0.804624 -0.0025,-0.46031 -0.0025,-0.46031 -0.005,-0.929924 1.89e-4,-0.333017 4.28e-4,-0.666034 6.43e-4,-1.009143 -0.0013,-0.357157 -0.0025,-0.714314 -0.0038,-1.071467 -0.0038,-0.967181 -0.005,-1.934336 -0.005,-2.901527 -2.27e-4,-0.605024 -0.0013,-1.210039 -0.0025,-1.815058 -0.0038,-2.112866 -0.0063,-4.225714 -0.005,-6.338582 2.14e-4,-1.966105 -0.0038,-3.932135 -0.01134,-5.898221 -0.005,-1.691002 -0.0076,-3.381978 -0.0076,-5.072993 1.13e-4,-1.008649 -0.0011,-2.017229 -0.0063,-3.025864 -0.0038,-0.949038 -0.0038,-1.897945 -0.0011,-2.846988 6.43e-4,-0.511797 -0.0025,-1.023594 -0.0063,-1.535371 0.01286,-2.18561 0.22437,-3.638836 1.444733,-5.318021 0.240478,-0.249304 0.240478,-0.249304 0.485783,-0.503643 0.159747,-0.170273 0.319494,-0.340546 0.484082,-0.515978 0.807974,-0.708651 1.51059,-1.038217 2.506268,-0.997009 z"
     fill="#e2e7f4"
     id="path14"
     style="stroke-width:0.238138" /><path
     d="m 73.359123,63.180965 c 1.684454,0.483891 3.077194,2.81352 4.26916,4.272749 0.169263,0.2064 0.338527,0.4128 0.51292,0.625454 0.35432,0.432417 0.708388,0.865162 1.062179,1.298219 0.543485,0.66496 1.088131,1.328487 1.632877,1.991899 0.345094,0.421501 0.690124,0.843087 1.035092,1.264761 0.163188,0.198708 0.326376,0.397415 0.494518,0.602144 0.224634,0.275496 0.224634,0.275496 0.453806,0.556558 0.132156,0.161556 0.2643,0.323111 0.400465,0.489563 0.408871,0.543421 0.51839,0.898319 0.632144,1.627473 -0.251633,2.073683 -2.267681,3.827077 -3.445807,5.261535 -0.169049,0.206651 -0.338111,0.413303 -0.51229,0.626218 -0.354182,0.432594 -0.708628,0.864861 -1.063326,1.296813 -0.544658,0.663537 -1.088131,1.328483 -1.631516,1.993568 -0.345232,0.421328 -0.69054,0.842577 -1.035924,1.263734 -0.16276,0.19924 -0.325519,0.398481 -0.493207,0.603757 -0.150433,0.182835 -0.300865,0.365669 -0.455861,0.554045 -0.19848,0.242021 -0.19848,0.242021 -0.400981,0.48893 -0.468578,0.525519 -0.735626,0.63507 -1.37343,0.738895 -0.686973,-0.09867 -0.686973,-0.09867 -1.306589,-0.65782 -0.457978,-0.756494 -0.457978,-0.756494 -0.619628,-1.496541 0.494253,-2.564552 3.279833,-4.937462 4.781865,-6.759103 0.283912,-0.345294 0.567762,-0.690649 0.851561,-1.036067 0.68991,-0.839427 1.380488,-1.678022 2.071444,-2.516162 C 78.929351,75.484589 78.610878,74.93966 78.108949,74.335001 77.971599,74.168202 77.83425,74.001404 77.692741,73.82955 77.544779,73.652454 77.39683,73.475357 77.244393,73.292895 77.092435,73.108739 76.940477,72.924585 76.783907,72.734848 76.298867,72.147347 75.812416,71.561636 75.32575,70.976135 74.838505,70.388527 74.351588,69.800544 73.865275,69.211784 73.562696,68.845589 73.259537,68.480101 72.95576,68.115379 72.819091,67.95024 72.682423,67.7851 72.541607,67.614956 c -0.120749,-0.145239 -0.241474,-0.290478 -0.365878,-0.440118 -0.418048,-0.551642 -0.49893,-0.888968 -0.581185,-1.642165 0.08079,-0.838722 0.08079,-0.838722 0.538809,-1.595214 0.619616,-0.559147 0.619616,-0.559147 1.22577,-0.756494 z"
     fill="#050506"
     id="path16"
     style="stroke-width:0.238138" /><path
     d="m 53.356115,63.378312 c 0.692129,0.624577 1.016362,1.035256 1.239245,2.055688 -0.494254,2.564551 -3.279834,4.937461 -4.781866,6.759102 -0.283899,0.345294 -0.567761,0.690649 -0.85156,1.036068 -0.68991,0.839426 -1.380489,1.678021 -2.071445,2.516161 0.288261,0.786461 0.601567,1.320314 1.109659,1.915708 0.137337,0.162553 0.274686,0.325105 0.416195,0.492583 0.147962,0.172969 0.295912,0.345938 0.448348,0.524148 0.312046,0.371752 0.623965,0.743664 0.935758,1.115724 0.49148,0.583756 0.983868,1.166207 1.4786,1.745858 0.477805,0.561043 0.951425,1.12697 1.424616,1.693822 0.148391,0.171374 0.296782,0.342743 0.449659,0.519307 0.871476,1.052383 1.273176,1.739412 1.280398,3.307358 -0.16968,0.696804 -0.328204,0.954851 -0.79474,1.397866 -0.739017,0.268244 -1.296242,0.256073 -2.007037,-0.08223 -0.776552,-0.723165 -1.441039,-1.5697 -2.119845,-2.424682 -0.198266,-0.243678 -0.396532,-0.487355 -0.60081,-0.738414 -0.525109,-0.645622 -1.046134,-1.29595 -1.566466,-1.947296 -0.426252,-0.531902 -0.855316,-1.06034 -1.284556,-1.588635 -0.885895,-1.090504 -1.769597,-2.18367 -2.648723,-3.282302 C 43.177874,78.1026 43.177874,78.1026 42.939488,77.805164 42.502988,77.220912 42.378369,76.88636 42.2568,76.10713 c 0.251633,-2.073682 2.267681,-3.827076 3.445807,-5.261534 0.253587,-0.309978 0.253587,-0.309978 0.51229,-0.626218 0.354182,-0.432595 0.708628,-0.864862 1.063339,-1.296814 0.544645,-0.663537 1.088118,-1.328483 1.631503,-1.993568 0.345245,-0.42133 0.690553,-0.842577 1.035924,-1.263734 0.16276,-0.19924 0.325519,-0.398481 0.493207,-0.603759 0.150433,-0.182834 0.300865,-0.365669 0.455861,-0.554043 0.13232,-0.161347 0.264653,-0.322694 0.400981,-0.488928 0.656925,-0.736748 1.187315,-0.765629 2.060403,-0.640223 z"
     fill="#050505"
     id="path18"
     style="stroke-width:0.238138" /><path
     d="m 65.42527,61.273287 c 0.63309,0.50981 0.63309,0.50981 1.077607,1.315641 0.04059,1.620315 -0.362602,3.278294 -0.684768,4.838318 -0.04739,0.234346 -0.09466,0.46869 -0.14345,0.710136 -0.155361,0.767122 -0.312574,1.533657 -0.469965,2.300162 -0.109279,0.53619 -0.218609,1.072399 -0.327838,1.608624 -0.228504,1.120256 -0.457978,2.240209 -0.688095,3.359974 -0.294613,1.434188 -0.586441,2.869194 -0.877513,4.304455 -0.224697,1.106015 -0.451033,2.211519 -0.67786,3.316887 -0.108271,0.528988 -0.216051,1.058147 -0.323226,1.587477 -0.14989,0.739178 -0.302037,1.477613 -0.454764,2.215924 -0.04374,0.21791 -0.08735,0.435821 -0.132395,0.660333 -0.232512,1.111127 -0.474704,2.049576 -1.039189,2.989285 -0.605423,0.369585 -1.053482,0.328633 -1.724158,0.263128 -0.4984,-0.246683 -0.4984,-0.246683 -0.862085,-0.789385 -0.331456,-1.647968 -0.166314,-3.012781 0.251141,-4.600435 0.102095,-0.416871 0.203837,-0.833893 0.305164,-1.251056 0.05168,-0.209095 0.103355,-0.418187 0.156659,-0.633618 0.228529,-0.949184 0.426001,-1.906709 0.620725,-2.866922 0.03794,-0.185394 0.07575,-0.370789 0.114825,-0.5618 0.117851,-0.577422 0.235033,-1.155043 0.352228,-1.732669 0.08432,-0.413591 0.168747,-0.827165 0.253208,-1.240724 0.218874,-1.072324 0.437168,-2.14482 0.655286,-3.217372 0.351056,-1.725884 0.702842,-3.451543 1.054931,-5.177108 0.121758,-0.597353 0.243201,-1.194811 0.36458,-1.792281 0.07487,-0.367551 0.149803,-0.735097 0.224723,-1.102641 0.06466,-0.318184 0.129408,-0.636367 0.196085,-0.964193 0.563829,-2.670903 0.563829,-2.670903 1.000065,-3.260566 0.660744,-0.380947 1.054755,-0.423748 1.778041,-0.279574 z"
     fill="#020202"
     id="path20"
     style="stroke-width:0.238138" /></svg>
