<?xml version="1.0" encoding="UTF-8" standalone="no"?>
<svg
   height="128px"
   viewBox="0 0 128 128"
   width="128px"
   version="1.1"
   id="svg8"
   sodipodi:docname="0development.svg"
   inkscape:version="1.2.2 (b0a8486541, 2022-12-01)"
   xml:space="preserve"
   xmlns:inkscape="http://www.inkscape.org/namespaces/inkscape"
   xmlns:sodipodi="http://sodipodi.sourceforge.net/DTD/sodipodi-0.dtd"
   xmlns="http://www.w3.org/2000/svg"
   xmlns:svg="http://www.w3.org/2000/svg"><defs
     id="defs8"><radialGradient
       id="b"
       cx="48.424"
       cy="-48.028"
       r="38.213001"
       gradientTransform="matrix(0,1.9745065,-3.186569,0.00181349,-90.777903,-58.011315)"
       gradientUnits="userSpaceOnUse"><stop
         offset="0"
         stop-color="#fafafa"
         id="stop7" /><stop
         offset="1"
         stop-color="#e6e6e6"
         id="stop8" /></radialGradient><style
       id="style1">.c{fill:none;stroke:#000000;stroke-linecap:round;stroke-linejoin:round;}</style><linearGradient
       id="a-6"
       gradientTransform="matrix(5.8289212,0,0,5.8423858,-11.80909,-70.824114)"
       gradientUnits="userSpaceOnUse"
       x1="8.9663553"
       x2="18.966356"
       y1="25.252413"
       y2="25.252413"><stop
         offset="0"
         stop-color="#003380"
         id="stop1-2" /><stop
         offset="0.392837"
         stop-color="#0055d4"
         id="stop2-6" /><stop
         offset="1"
         stop-color="#003380"
         id="stop3-1" /></linearGradient><radialGradient
       id="b-8"
       cx="12.894726"
       cy="25.794567"
       gradientTransform="matrix(5.8289212,0,0,5.8424019,-11.80909,-70.824494)"
       gradientUnits="userSpaceOnUse"
       r="5"><stop
         offset="0"
         stop-color="#55ddff"
         id="stop4-7" /><stop
         offset="1"
         stop-color="#80b3ff"
         stop-opacity="0.898039"
         id="stop5-9" /></radialGradient></defs><sodipodi:namedview
     id="namedview8"
     pagecolor="#ffffff"
     bordercolor="#000000"
     borderopacity="0.25"
     inkscape:showpageshadow="2"
     inkscape:pageopacity="0.0"
     inkscape:pagecheckerboard="0"
     inkscape:deskcolor="#d1d1d1"
     inkscape:zoom="3.0859375"
     inkscape:cx="19.281013"
     inkscape:cy="106.93671"
     inkscape:window-width="1920"
     inkscape:window-height="943"
     inkscape:window-x="0"
     inkscape:window-y="32"
     inkscape:window-maximized="1"
     inkscape:current-layer="svg8"
     showgrid="false" /><linearGradient
     id="a"
     gradientTransform="matrix(0.45451 0 0 0.455522 -1210.292114 616.172607)"
     gradientUnits="userSpaceOnUse"
     x1="2689.251953"
     x2="2918.069824"
     y1="-1106.802979"
     y2="-1106.802979"><stop
       offset="0"
       stop-color="#62a0ea"
       id="stop1"
       style="stop-color:#64aa6b;stop-opacity:1;" /><stop
       offset="0.0576991"
       stop-color="#afd4ff"
       id="stop2" /><stop
       offset="0.122204"
       stop-color="#62a0ea"
       id="stop3" /><stop
       offset="0.873306"
       stop-color="#62a0ea"
       id="stop4" /><stop
       offset="0.955997"
       stop-color="#c0d5ea"
       id="stop5" /><stop
       offset="1"
       stop-color="#62a0ea"
       id="stop6" /></linearGradient><path
     d="m 21.976562 12 c -5.527343 0 -9.976562 4.460938 -9.976562 10 v 86.03125 c 0 5.542969 4.449219 10 9.976562 10 h 84.042969 c 5.53125 0 9.980469 -4.457031 9.980469 -10 v -72.085938 c 0 -6.628906 -5.359375 -12 -11.972656 -12 h -46.027344 c -2.453125 0 -4.695312 -1.386718 -5.796875 -3.582031 l -1.503906 -2.992187 c -1.65625 -3.292969 -5.019531 -5.371094 -8.699219 -5.371094 z m 0 0"
     fill="#438de6"
     id="path6"
     inkscape:label="back"
     style="fill:#75d1b0;fill-opacity:1" /><path
     d="m 65.976562 32 c -2.746093 0 -5.226562 1.101562 -7.027343 2.890625 c -2.273438 2.253906 -5.382813 5.109375 -8.632813 5.109375 h -28.339844 c -5.527343 0 -9.976562 4.460938 -9.976562 10 v 55.976562 c 0 5.539063 4.449219 10 9.976562 10 h 84.042969 c 5.53125 0 9.980469 -4.460937 9.980469 -10 v -63.976562 c 0 -5.539062 -4.449219 -10 -9.980469 -10 z m 0 0"
     fill="#a4caee"
     id="path8"
     inkscape:label="front"
     style="fill:#80ffd1;fill-opacity:1" /><path
     d="m 62.058055,44.36077 c -3.46504,0 -6.24668,2.78582 -6.24668,6.25922 v 6.25922 h -12.48919 c -2.30933,0 -4.16515,1.85791 -4.16515,4.1735 v 12.51845 h 6.24668 c 3.46295,0 6.2446,2.78792 6.2446,6.26132 0,3.4713 -2.78165,6.25922 -6.2446,6.25922 h -6.24668 v 12.51843 c 0,2.31561 1.85582,4.17351 4.16515,4.17351 h 12.48919 v -6.25922 c 0,-3.47339 2.78164,-6.25921 6.24668,-6.25921 3.46295,0 6.24459,2.78582 6.24459,6.25921 v 6.25922 h 12.49128 c 2.30933,0 4.16306,-1.8579 4.16306,-4.17351 V 86.0917 h 6.24459 c 3.46504,0 6.24459,-2.78792 6.24459,-6.25922 0,-3.4734 -2.77955,-6.26132 -6.24459,-6.26132 h -6.24459 V 61.05271 c 0,-2.31559 -1.85373,-4.1735 -4.16306,-4.1735 h -12.49128 v -6.25922 c 0,-3.4734 -2.78164,-6.25922 -6.24459,-6.25922 z m 0,0"
     fill="url(#b)"
     id="path6-2"
     style="fill:#1d8cff;fill-opacity:1;stroke-width:0.535012" /></svg>
