<?xml version="1.0" encoding="UTF-8" standalone="no"?>
<svg
   height="128px"
   viewBox="0 0 128 128"
   width="128px"
   version="1.1"
   id="svg8"
   sodipodi:docname="downloads.svg"
   inkscape:version="1.4 (e7c3feb100, 2024-10-09)"
   xml:space="preserve"
   xmlns:inkscape="http://www.inkscape.org/namespaces/inkscape"
   xmlns:sodipodi="http://sodipodi.sourceforge.net/DTD/sodipodi-0.dtd"
   xmlns="http://www.w3.org/2000/svg"
   xmlns:svg="http://www.w3.org/2000/svg"><defs
     id="defs8"><radialGradient
       id="b"
       cx="48.424"
       cy="-48.028"
       r="38.213001"
       gradientTransform="matrix(0,1.9745065,-3.186569,0.00181349,-90.777903,-58.011315)"
       gradientUnits="userSpaceOnUse"><stop
         offset="0"
         stop-color="#fafafa"
         id="stop7" /><stop
         offset="1"
         stop-color="#e6e6e6"
         id="stop8" /></radialGradient></defs><sodipodi:namedview
     id="namedview8"
     pagecolor="#ffffff"
     bordercolor="#000000"
     borderopacity="0.25"
     inkscape:showpageshadow="2"
     inkscape:pageopacity="0.0"
     inkscape:pagecheckerboard="0"
     inkscape:deskcolor="#d1d1d1"
     inkscape:zoom="4.3641747"
     inkscape:cx="53.847524"
     inkscape:cy="85.583192"
     inkscape:window-width="1337"
     inkscape:window-height="973"
     inkscape:window-x="35"
     inkscape:window-y="32"
     inkscape:window-maximized="0"
     inkscape:current-layer="svg8" /><linearGradient
     id="a"
     gradientTransform="matrix(0.45451 0 0 0.455522 -1210.292114 616.172607)"
     gradientUnits="userSpaceOnUse"
     x1="2689.251953"
     x2="2918.069824"
     y1="-1106.802979"
     y2="-1106.802979"><stop
       offset="0"
       stop-color="#62a0ea"
       id="stop1"
       style="stop-color:#64aa6b;stop-opacity:1;" /><stop
       offset="0.0576991"
       stop-color="#afd4ff"
       id="stop2" /><stop
       offset="0.122204"
       stop-color="#62a0ea"
       id="stop3" /><stop
       offset="0.873306"
       stop-color="#62a0ea"
       id="stop4" /><stop
       offset="0.955997"
       stop-color="#c0d5ea"
       id="stop5" /><stop
       offset="1"
       stop-color="#62a0ea"
       id="stop6" /></linearGradient><path
     d="m 21.976562 12 c -5.527343 0 -9.976562 4.460938 -9.976562 10 v 86.03125 c 0 5.542969 4.449219 10 9.976562 10 h 84.042969 c 5.53125 0 9.980469 -4.457031 9.980469 -10 v -72.085938 c 0 -6.628906 -5.359375 -12 -11.972656 -12 h -46.027344 c -2.453125 0 -4.695312 -1.386718 -5.796875 -3.582031 l -1.503906 -2.992187 c -1.65625 -3.292969 -5.019531 -5.371094 -8.699219 -5.371094 z m 0 0"
     fill="#438de6"
     id="path6"
     inkscape:label="back"
     style="fill:#7a1919;fill-opacity:1" /><path
     d="m 65.976562 32 c -2.746093 0 -5.226562 1.101562 -7.027343 2.890625 c -2.273438 2.253906 -5.382813 5.109375 -8.632813 5.109375 h -28.339844 c -5.527343 0 -9.976562 4.460938 -9.976562 10 v 55.976562 c 0 5.539063 4.449219 10 9.976562 10 h 84.042969 c 5.53125 0 9.980469 -4.460937 9.980469 -10 v -63.976562 c 0 -5.539062 -4.449219 -10 -9.980469 -10 z m 0 0"
     fill="#a4caee"
     id="path8"
     inkscape:label="front"
     style="fill:#cb4e4e;fill-opacity:1" /><path
     d="m 90.689929,58.181651 -5.396156,-6.937915 c -0.256959,-0.25696 -0.770878,-0.51392 -1.284799,-0.51392 H 48.548522 c -0.513919,0 -1.02784,0.25696 -1.284799,0.51392 l -5.396156,6.937915 c -0.77088,0.770879 -1.284799,1.541759 -1.284799,2.569598 V 96.98258 c 0,2.826561 2.312638,5.1392 5.139196,5.1392 h 41.113568 c 2.826558,0 5.139196,-2.312639 5.139196,-5.1392 V 86.704188 60.751249 c 0,-1.027839 -0.513919,-1.798719 -1.284799,-2.569598 z M 66.278749,91.843384 53.430758,78.995395 h 7.708794 V 68.717003 h 10.278393 v 10.278392 h 7.708793 z M 84.265934,58.438611 H 48.291562 l 1.284799,-2.569598 h 33.404774 z"
     id="path1"
     style="fill:#7a1919;fill-opacity:1;stroke-width:2.5696" /></svg>
