<?xml version="1.0" encoding="UTF-8" standalone="no"?>
<svg
   height="128px"
   viewBox="0 0 128 128"
   width="128px"
   version="1.1"
   id="svg8"
   sodipodi:docname="godot_new.svg"
   inkscape:version="1.4 (e7c3feb100, 2024-10-09)"
   xml:space="preserve"
   xmlns:inkscape="http://www.inkscape.org/namespaces/inkscape"
   xmlns:sodipodi="http://sodipodi.sourceforge.net/DTD/sodipodi-0.dtd"
   xmlns="http://www.w3.org/2000/svg"
   xmlns:svg="http://www.w3.org/2000/svg"><defs
     id="defs8"><inkscape:path-effect
       effect="fillet_chamfer"
       id="path-effect17"
       is_visible="true"
       lpeversion="1"
       nodesatellites_param="F,0,1,1,0,7.4531646,0,1 @ F,0,1,1,0,7.4531646,0,1 @ F,0,1,1,0,7.4531646,0,1 @ F,0,0,1,0,7.4531646,0,1"
       radius="0"
       unit="px"
       method="auto"
       mode="F"
       chamfer_steps="1"
       flexible="false"
       use_knot_distance="true"
       apply_no_radius="true"
       apply_with_radius="true"
       only_selected="false"
       hide_knots="false" /><inkscape:path-effect
       effect="fillet_chamfer"
       id="path-effect16"
       is_visible="true"
       lpeversion="1"
       nodesatellites_param="F,0,0,1,0,0,0,1 @ F,0,0,1,0,0,0,1 @ F,0,0,1,0,0,0,1 @ F,0,0,1,0,0,0,1"
       radius="0"
       unit="px"
       method="auto"
       mode="F"
       chamfer_steps="1"
       flexible="false"
       use_knot_distance="true"
       apply_no_radius="true"
       apply_with_radius="true"
       only_selected="false"
       hide_knots="false" /><radialGradient
       id="b"
       cx="48.424"
       cy="-48.028"
       r="38.213001"
       gradientTransform="matrix(0,1.9745065,-3.186569,0.00181349,-90.777903,-58.011315)"
       gradientUnits="userSpaceOnUse"><stop
         offset="0"
         stop-color="#fafafa"
         id="stop7" /><stop
         offset="1"
         stop-color="#e6e6e6"
         id="stop8" /></radialGradient><style
       id="style1">.c{fill:none;stroke:#000000;stroke-linecap:round;stroke-linejoin:round;}</style><linearGradient
       id="a-6"
       gradientTransform="matrix(5.8289212,0,0,5.8423858,-11.80909,-70.824114)"
       gradientUnits="userSpaceOnUse"
       x1="8.9663553"
       x2="18.966356"
       y1="25.252413"
       y2="25.252413"><stop
         offset="0"
         stop-color="#003380"
         id="stop1-2" /><stop
         offset="0.392837"
         stop-color="#0055d4"
         id="stop2-6" /><stop
         offset="1"
         stop-color="#003380"
         id="stop3-1" /></linearGradient><radialGradient
       id="b-8"
       cx="12.894726"
       cy="25.794567"
       gradientTransform="matrix(5.8289212,0,0,5.8424019,-11.80909,-70.824494)"
       gradientUnits="userSpaceOnUse"
       r="5"><stop
         offset="0"
         stop-color="#55ddff"
         id="stop4-7" /><stop
         offset="1"
         stop-color="#80b3ff"
         stop-opacity="0.898039"
         id="stop5-9" /></radialGradient><linearGradient
       gradientUnits="userSpaceOnUse"
       x1="0.34011999"
       y1="0"
       x2="0.76372999"
       y2="0.76805001"
       id="gradient1"><stop
         offset="1e-07"
         stop-color="#72b4f5"
         stop-opacity="1"
         id="stop1-3" /><stop
         offset="1"
         stop-color="#356ebf"
         stop-opacity="1"
         id="stop2-9" /></linearGradient><style
       id="style1-7">.a{fill:#fff;}.b{fill:#478cbf;}.c{fill:#414042;}</style></defs><sodipodi:namedview
     id="namedview8"
     pagecolor="#ffffff"
     bordercolor="#000000"
     borderopacity="0.25"
     inkscape:showpageshadow="2"
     inkscape:pageopacity="0.0"
     inkscape:pagecheckerboard="0"
     inkscape:deskcolor="#d1d1d1"
     inkscape:zoom="6.1718749"
     inkscape:cx="55.817722"
     inkscape:cy="82.146837"
     inkscape:window-width="1920"
     inkscape:window-height="1008"
     inkscape:window-x="0"
     inkscape:window-y="0"
     inkscape:window-maximized="1"
     inkscape:current-layer="svg8" /><linearGradient
     id="a"
     gradientTransform="matrix(0.45451 0 0 0.455522 -1210.292114 616.172607)"
     gradientUnits="userSpaceOnUse"
     x1="2689.251953"
     x2="2918.069824"
     y1="-1106.802979"
     y2="-1106.802979"><stop
       offset="0"
       stop-color="#62a0ea"
       id="stop1"
       style="stop-color:#64aa6b;stop-opacity:1;" /><stop
       offset="0.0576991"
       stop-color="#afd4ff"
       id="stop2" /><stop
       offset="0.122204"
       stop-color="#62a0ea"
       id="stop3" /><stop
       offset="0.873306"
       stop-color="#62a0ea"
       id="stop4" /><stop
       offset="0.955997"
       stop-color="#c0d5ea"
       id="stop5" /><stop
       offset="1"
       stop-color="#62a0ea"
       id="stop6" /></linearGradient><path
     d="m 21.976562 12 c -5.527343 0 -9.976562 4.460938 -9.976562 10 v 86.03125 c 0 5.542969 4.449219 10 9.976562 10 h 84.042969 c 5.53125 0 9.980469 -4.457031 9.980469 -10 v -72.085938 c 0 -6.628906 -5.359375 -12 -11.972656 -12 h -46.027344 c -2.453125 0 -4.695312 -1.386718 -5.796875 -3.582031 l -1.503906 -2.992187 c -1.65625 -3.292969 -5.019531 -5.371094 -8.699219 -5.371094 z m 0 0"
     fill="#438de6"
     id="path6"
     inkscape:label="back"
     style="fill:#0d4b7e;fill-opacity:1" /><path
     d="m 65.976562 32 c -2.746093 0 -5.226562 1.101562 -7.027343 2.890625 c -2.273438 2.253906 -5.382813 5.109375 -8.632813 5.109375 h -28.339844 c -5.527343 0 -9.976562 4.460938 -9.976562 10 v 55.976562 c 0 5.539063 4.449219 10 9.976562 10 h 84.042969 c 5.53125 0 9.980469 -4.460937 9.980469 -10 v -63.976562 c 0 -5.539062 -4.449219 -10 -9.980469 -10 z m 0 0"
     fill="#a4caee"
     id="path8"
     inkscape:label="front"
     style="fill:#1366aa;fill-opacity:1" /><g
     id="g1"
     transform="matrix(0.13093476,0,0,0.13093476,32.383587,47.176487)"><path
       class="a"
       d="m 461.74,315.88 c 0,0 -0.72,-4.4 -1.13,-4.36 l -79.82,7.7 a 13,13 0 0 0 -11.73,12 l -2.2,31.44 -61.75,4.41 -4.2,-28.48 A 13.08,13.08 0 0 0 288,327.51 h -84.21 a 13.09,13.09 0 0 0 -12.87,11.12 l -4.21,28.48 -61.71,-4.41 -2.19,-31.44 a 13,13 0 0 0 -11.73,-12 l -79.86,-7.7 c -0.41,0 -0.72,4.36 -1.13,4.36 l -0.11,17.28 67.64,10.9 2.22,31.71 a 13.08,13.08 0 0 0 12,12.07 l 85.05,6.06 c 0.32,0 0.64,0 1,0 a 13.08,13.08 0 0 0 12.85,-11.11 L 215,353.51 h 61.8 l 4.32,29.32 A 13.09,13.09 0 0 0 294,393.94 c 0.31,0 0.62,0 0.93,0 l 85.07,-6.1 a 13.08,13.08 0 0 0 12,-12.07 l 2.21,-31.71 67.6,-10.95 z"
       id="path1" /><path
       class="b"
       d="M 30.07,185.77 V 316 a 5.53,5.53 0 0 1 0.71,0 l 79.87,7.69 a 8.61,8.61 0 0 1 7.75,8 l 2.46,35.31 69.65,5 4.8,-32.54 a 8.59,8.59 0 0 1 8.5,-7.34 h 84.26 a 8.59,8.59 0 0 1 8.5,7.34 l 4.8,32.54 69.63,-5 2.46,-35.25 a 8.61,8.61 0 0 1 7.75,-8 l 79.82,-7.69 a 5.63,5.63 0 0 1 0.71,0 v -10.43 0 -119.85 h 0.3 A 470,470 0 0 0 491.8,142.87 C 479.33,121.65 464.05,102.67 447.72,85.11 A 435.23,435.23 0 0 0 404,110.55 C 397,103.64 389.22,97.99 381.52,92.08 374,86 365.49,81.56 357.41,76.38 a 500.18,500.18 0 0 0 4.07,-53.94 C 340.64,12 318.41,5 295.93,0 a 467.37,467.37 0 0 0 -24.33,47.39 165.82,165.82 0 0 0 -25.53,-2 v 0 h -0.16 -0.16 v 0 a 165.82,165.82 0 0 0 -25.53,2 A 462.33,462.33 0 0 0 195.89,0 c -22.46,5 -44.7,12 -65.52,22.44 a 495.31,495.31 0 0 0 4.07,53.94 c -8.09,5.18 -16.59,9.63 -24.15,15.7 C 102.61,98 94.76,103.64 87.8,110.55 A 429.1,429.1 0 0 0 44.06,85.11 C 27.73,102.69 12.46,121.65 0,142.87 a 468,468 0 0 0 29.76,42.91 z"
       id="path2" /><path
       class="b"
       d="m 390.15,340.07 -2.47,35.43 a 8.59,8.59 0 0 1 -8,8 l -85.06,6.07 c -0.21,0 -0.42,0 -0.62,0 a 8.59,8.59 0 0 1 -8.5,-7.34 l -4.88,-33.07 h -69.38 l -4.87,33.07 a 8.6,8.6 0 0 1 -9.12,7.32 l -85.07,-6.07 a 8.6,8.6 0 0 1 -8,-8 l -2.47,-35.43 -71.81,-6.93 c 0,7.72 0.13,16.17 0.13,17.86 0,75.82 96.19,112.29 215.72,112.71 h 0.29 c 119.53,-0.42 215.7,-36.87 215.7,-112.71 0,-1.72 0.1,-10.14 0.14,-17.86 z"
       id="path3" /><path
       class="a"
       d="m 180.85,238.63 a 48.12,48.12 0 1 1 -48.11,-48.09 48.12,48.12 0 0 1 48.11,48.09"
       id="path4" /><path
       class="c"
       d="m 169.34,241.36 a 31.95,31.95 0 1 1 -31.94,-31.94 31.93,31.93 0 0 1 31.94,31.94"
       id="path5" /><path
       class="a"
       d="m 246,291.1 c -8.55,0 -15.49,-6.3 -15.49,-14.07 v -44.3 c 0,-7.77 6.94,-14.08 15.49,-14.08 8.55,0 15.51,6.31 15.51,14.08 V 277 c 0,7.77 -6.95,14.07 -15.51,14.07"
       id="path6-5" /><path
       class="a"
       d="M 311,238.63 A 48.13,48.13 0 1 0 359.14,190.54 48.13,48.13 0 0 0 311,238.63"
       id="path7" /><path
       class="c"
       d="m 322.66,241.36 a 31.94,31.94 0 1 0 31.93,-31.94 31.92,31.92 0 0 0 -31.93,31.94"
       id="path8-3" /></g></svg>
