<?xml version="1.0" encoding="UTF-8" standalone="no"?>
<svg
   height="128px"
   viewBox="0 0 128 128"
   width="128px"
   version="1.1"
   id="svg8"
   sodipodi:docname="localsend.svg"
   inkscape:version="1.4 (e7c3feb100, 2024-10-09)"
   xml:space="preserve"
   xmlns:inkscape="http://www.inkscape.org/namespaces/inkscape"
   xmlns:sodipodi="http://sodipodi.sourceforge.net/DTD/sodipodi-0.dtd"
   xmlns="http://www.w3.org/2000/svg"
   xmlns:svg="http://www.w3.org/2000/svg"><defs
     id="defs8"><radialGradient
       id="b"
       cx="48.424"
       cy="-48.028"
       r="38.213001"
       gradientTransform="matrix(0,1.9745065,-3.186569,0.00181349,-90.777903,-58.011315)"
       gradientUnits="userSpaceOnUse"><stop
         offset="0"
         stop-color="#fafafa"
         id="stop7" /><stop
         offset="1"
         stop-color="#e6e6e6"
         id="stop8" /></radialGradient><style
       id="style1">.c{fill:none;stroke:#000000;stroke-linecap:round;stroke-linejoin:round;}</style></defs><sodipodi:namedview
     id="namedview8"
     pagecolor="#ffffff"
     bordercolor="#000000"
     borderopacity="0.25"
     inkscape:showpageshadow="2"
     inkscape:pageopacity="0.0"
     inkscape:pagecheckerboard="0"
     inkscape:deskcolor="#d1d1d1"
     inkscape:zoom="4.3641747"
     inkscape:cx="95.550713"
     inkscape:cy="57.857446"
     inkscape:window-width="1337"
     inkscape:window-height="973"
     inkscape:window-x="35"
     inkscape:window-y="32"
     inkscape:window-maximized="0"
     inkscape:current-layer="svg8" /><linearGradient
     id="a"
     gradientTransform="matrix(0.45451 0 0 0.455522 -1210.292114 616.172607)"
     gradientUnits="userSpaceOnUse"
     x1="2689.251953"
     x2="2918.069824"
     y1="-1106.802979"
     y2="-1106.802979"><stop
       offset="0"
       stop-color="#62a0ea"
       id="stop1"
       style="stop-color:#64aa6b;stop-opacity:1;" /><stop
       offset="0.0576991"
       stop-color="#afd4ff"
       id="stop2" /><stop
       offset="0.122204"
       stop-color="#62a0ea"
       id="stop3" /><stop
       offset="0.873306"
       stop-color="#62a0ea"
       id="stop4" /><stop
       offset="0.955997"
       stop-color="#c0d5ea"
       id="stop5" /><stop
       offset="1"
       stop-color="#62a0ea"
       id="stop6" /></linearGradient><path
     d="m 21.976562 12 c -5.527343 0 -9.976562 4.460938 -9.976562 10 v 86.03125 c 0 5.542969 4.449219 10 9.976562 10 h 84.042969 c 5.53125 0 9.980469 -4.457031 9.980469 -10 v -72.085938 c 0 -6.628906 -5.359375 -12 -11.972656 -12 h -46.027344 c -2.453125 0 -4.695312 -1.386718 -5.796875 -3.582031 l -1.503906 -2.992187 c -1.65625 -3.292969 -5.019531 -5.371094 -8.699219 -5.371094 z m 0 0"
     fill="#438de6"
     id="path6"
     inkscape:label="back"
     style="fill:#8ae4b9;fill-opacity:1" /><path
     d="m 65.976562 32 c -2.746093 0 -5.226562 1.101562 -7.027343 2.890625 c -2.273438 2.253906 -5.382813 5.109375 -8.632813 5.109375 h -28.339844 c -5.527343 0 -9.976562 4.460938 -9.976562 10 v 55.976562 c 0 5.539063 4.449219 10 9.976562 10 h 84.042969 c 5.53125 0 9.980469 -4.460937 9.980469 -10 v -63.976562 c 0 -5.539062 -4.449219 -10 -9.980469 -10 z m 0 0"
     fill="#a4caee"
     id="path8"
     inkscape:label="front"
     style="fill:#c1fadf;fill-opacity:1" /><g
     id="g8"
     transform="matrix(1.3091865,0,0,1.3091865,33.692738,47.005323)"
     style="fill:#008081;fill-opacity:1;stroke:#008081;stroke-opacity:1"><circle
       class="c"
       cx="24"
       cy="24"
       r="11.6"
       id="circle1"
       style="fill:#008081;fill-opacity:1;stroke:#008081;stroke-opacity:1" /><path
       class="c"
       d="M 3.3,18.1 C 2.8,20 2.5,22 2.5,24 c 0,2 0.3,4 0.8,5.8 v 0 c 0.3,0 2.2,-0.6 2.3,-2.6 0.1,-0.6 0,-2.4 0,-3.2 -0.1,-0.9 0.1,-2.5 0,-3.1 -0.2,-2.1 -2,-2.8 -2.3,-2.8"
       id="path1"
       style="fill:#008081;fill-opacity:1;stroke:#008081;stroke-opacity:1" /><path
       class="c"
       d="m 44.7,18.2 c 0.5,1.9 0.8,3.8 0.8,5.9 0,2 -0.3,4 -0.8,5.8 v 0 c -0.3,0 -2.2,-0.6 -2.3,-2.6 -0.1,-0.6 0,-2.4 0,-3.2 0.1,-0.9 -0.1,-2.5 0,-3.1 0.2,-2.2 2,-2.8 2.3,-2.8"
       id="path2"
       style="fill:#008081;fill-opacity:1;stroke:#008081;stroke-opacity:1" /><path
       class="c"
       d="M 29.8,3.3 C 28,2.8 26,2.5 24,2.5 c -2,0 -4,0.3 -5.8,0.8 v 0 c 0,0.3 0.6,2.2 2.6,2.3 0.6,0.1 2.4,0 3.2,0 0.9,-0.1 2.5,0.1 3.1,0 2.1,-0.2 2.7,-2 2.7,-2.3"
       id="path3"
       style="fill:#008081;fill-opacity:1;stroke:#008081;stroke-opacity:1" /><path
       class="c"
       d="m 29.8,44.7 c -1.9,0.5 -3.8,0.8 -5.9,0.8 -2,0 -4,-0.3 -5.8,-0.8 v 0 c 0,-0.3 0.6,-2.2 2.6,-2.3 0.6,-0.1 2.4,0 3.2,0 0.9,0.1 2.5,-0.1 3.1,0 2.2,0.2 2.8,2 2.8,2.3"
       id="path4"
       style="fill:#008081;fill-opacity:1;stroke:#008081;stroke-opacity:1" /><path
       class="c"
       d="m 13.5,5.2 c -1.7,0.9 -3.3,2.1 -4.7,3.6 -1.4,1.4 -2.6,3 -3.5,4.7 v 0 c 0.2,0.2 2,1.1 3.5,-0.2 0.5,-0.4 1.7,-1.6 2.3,-2.3 0.6,-0.6 1.8,-1.7 2.2,-2.2 1.3,-1.6 0.4,-3.3 0.2,-3.6"
       id="path5"
       style="fill:#008081;fill-opacity:1;stroke:#008081;stroke-opacity:1" /><path
       class="c"
       d="m 42.7,34.5 c -0.9,1.7 -2.1,3.3 -3.6,4.7 -1.4,1.4 -3,2.6 -4.7,3.5 v 0 c -0.2,-0.2 -1.1,-2 0.2,-3.5 0.4,-0.5 1.6,-1.7 2.3,-2.3 0.6,-0.6 1.7,-1.8 2.2,-2.2 1.7,-1.2 3.4,-0.4 3.6,-0.2"
       id="path6-5"
       style="fill:#008081;fill-opacity:1;stroke:#008081;stroke-opacity:1" /><path
       class="c"
       d="m 34.5,5.2 c 1.7,0.9 3.3,2.1 4.7,3.6 1.4,1.4 2.6,3 3.5,4.7 v 0 c -0.2,0.2 -2,1.1 -3.5,-0.2 C 38.7,12.9 37.5,11.7 36.9,11 36.3,10.4 35.1,9.3 34.7,8.8 33.4,7.2 34.3,5.5 34.5,5.2"
       id="path7"
       style="fill:#008081;fill-opacity:1;stroke:#008081;stroke-opacity:1" /><path
       class="c"
       d="m 5.3,34.5 c 0.9,1.7 2.1,3.3 3.6,4.7 1.4,1.4 3,2.6 4.7,3.5 v 0 c 0.2,-0.2 1.1,-2 -0.2,-3.5 C 13,38.7 11.8,37.5 11.1,36.9 10.5,36.3 9.4,35.1 8.9,34.7 7.2,33.4 5.5,34.3 5.3,34.5"
       id="path8-3"
       style="fill:#008081;fill-opacity:1;stroke:#008081;stroke-opacity:1" /></g></svg>
