<?xml version="1.0" encoding="UTF-8" standalone="no"?>
<svg
   height="128px"
   viewBox="0 0 128 128"
   width="128px"
   version="1.1"
   id="svg8"
   sodipodi:docname="music.svg"
   inkscape:version="1.4 (e7c3feb100, 2024-10-09)"
   xml:space="preserve"
   xmlns:inkscape="http://www.inkscape.org/namespaces/inkscape"
   xmlns:sodipodi="http://sodipodi.sourceforge.net/DTD/sodipodi-0.dtd"
   xmlns="http://www.w3.org/2000/svg"
   xmlns:svg="http://www.w3.org/2000/svg"><defs
     id="defs8"><radialGradient
       id="b"
       cx="48.424"
       cy="-48.028"
       r="38.213001"
       gradientTransform="matrix(0,1.9745065,-3.186569,0.00181349,-90.777903,-58.011315)"
       gradientUnits="userSpaceOnUse"><stop
         offset="0"
         stop-color="#fafafa"
         id="stop7" /><stop
         offset="1"
         stop-color="#e6e6e6"
         id="stop8" /></radialGradient><style
       id="style1">.c{fill:none;stroke:#000000;stroke-linecap:round;stroke-linejoin:round;}</style></defs><sodipodi:namedview
     id="namedview8"
     pagecolor="#ffffff"
     bordercolor="#000000"
     borderopacity="0.25"
     inkscape:showpageshadow="2"
     inkscape:pageopacity="0.0"
     inkscape:pagecheckerboard="0"
     inkscape:deskcolor="#d1d1d1"
     inkscape:zoom="4.3641747"
     inkscape:cx="31.162822"
     inkscape:cy="93.14476"
     inkscape:window-width="1337"
     inkscape:window-height="973"
     inkscape:window-x="35"
     inkscape:window-y="32"
     inkscape:window-maximized="0"
     inkscape:current-layer="svg8" /><linearGradient
     id="a"
     gradientTransform="matrix(0.45451 0 0 0.455522 -1210.292114 616.172607)"
     gradientUnits="userSpaceOnUse"
     x1="2689.251953"
     x2="2918.069824"
     y1="-1106.802979"
     y2="-1106.802979"><stop
       offset="0"
       stop-color="#62a0ea"
       id="stop1"
       style="stop-color:#64aa6b;stop-opacity:1;" /><stop
       offset="0.0576991"
       stop-color="#afd4ff"
       id="stop2" /><stop
       offset="0.122204"
       stop-color="#62a0ea"
       id="stop3" /><stop
       offset="0.873306"
       stop-color="#62a0ea"
       id="stop4" /><stop
       offset="0.955997"
       stop-color="#c0d5ea"
       id="stop5" /><stop
       offset="1"
       stop-color="#62a0ea"
       id="stop6" /></linearGradient><path
     d="m 21.976562 12 c -5.527343 0 -9.976562 4.460938 -9.976562 10 v 86.03125 c 0 5.542969 4.449219 10 9.976562 10 h 84.042969 c 5.53125 0 9.980469 -4.457031 9.980469 -10 v -72.085938 c 0 -6.628906 -5.359375 -12 -11.972656 -12 h -46.027344 c -2.453125 0 -4.695312 -1.386718 -5.796875 -3.582031 l -1.503906 -2.992187 c -1.65625 -3.292969 -5.019531 -5.371094 -8.699219 -5.371094 z m 0 0"
     fill="#438de6"
     id="path6"
     inkscape:label="back"
     style="fill:#64376d;fill-opacity:1" /><path
     d="m 65.976562 32 c -2.746093 0 -5.226562 1.101562 -7.027343 2.890625 c -2.273438 2.253906 -5.382813 5.109375 -8.632813 5.109375 h -28.339844 c -5.527343 0 -9.976562 4.460938 -9.976562 10 v 55.976562 c 0 5.539063 4.449219 10 9.976562 10 h 84.042969 c 5.53125 0 9.980469 -4.460937 9.980469 -10 v -63.976562 c 0 -5.539062 -4.449219 -10 -9.980469 -10 z m 0 0"
     fill="#a4caee"
     id="path8"
     inkscape:label="front"
     style="fill:#9553a4;fill-opacity:1" /><g
     style="fill:#573e5d;fill-opacity:1"
     id="g8"
     transform="matrix(3.0896101,0,0,3.0896101,23.470825,41.090399)"><path
       d="M 10.0909,11.9629 19.3636,8.63087 V 14.1707 C 18.8126,13.8538 18.1574,13.67 17.4545,13.67 c -1.9581,0 -3.5454,1.426 -3.5454,3.185 0,1.759 1.5873,3.185 3.5454,3.185 1.9581,0 3.5455,-1.426 3.5455,-3.185 0,0 0,10e-5 0,0 V 7.49236 C 21,6.37238 21,5.4331 20.9123,4.68472 20.8999,4.57895 20.8852,4.4738 20.869,4.37569 20.7845,3.86441 20.6352,3.38745 20.347,2.98917 20.2028,2.79002 20.024,2.61055 19.8012,2.45628 19.7594,2.42736 19.716,2.39932 19.6711,2.3722 L 19.6621,2.36679 C 18.8906,1.90553 18.0233,1.93852 17.1298,2.14305 16.2657,2.34086 15.1944,2.74368 13.8808,3.23763 L 11.5963,4.09656 C 10.9806,4.32806 10.4589,4.52419 10.0494,4.72734 9.61376,4.94348 9.23849,5.1984 8.95707,5.57828 8.67564,5.95817 8.55876,6.36756 8.50501,6.81203 8.4545,7.22978 8.45452,7.7378 8.45455,8.33743 V 16.1307 C 7.90347,15.8138 7.24835,15.63 6.54545,15.63 4.58735,15.63 3,17.056 3,18.815 3,20.574 4.58735,22 6.54545,22 c 1.9581,0 3.54545,-1.426 3.54545,-3.185 0,0 0,10e-5 0,0 z"
       fill="#1c274c"
       id="path1"
       style="fill:#573e5d;fill-opacity:1" /></g></svg>
