<?xml version="1.0" encoding="UTF-8" standalone="no"?>
<svg
   height="128px"
   viewBox="0 0 128 128"
   width="128px"
   version="1.1"
   id="svg8"
   sodipodi:docname="pictures.svg"
   inkscape:version="1.4 (e7c3feb100, 2024-10-09)"
   xml:space="preserve"
   xmlns:inkscape="http://www.inkscape.org/namespaces/inkscape"
   xmlns:sodipodi="http://sodipodi.sourceforge.net/DTD/sodipodi-0.dtd"
   xmlns="http://www.w3.org/2000/svg"
   xmlns:svg="http://www.w3.org/2000/svg"><defs
     id="defs8"><radialGradient
       id="b"
       cx="48.424"
       cy="-48.028"
       r="38.213001"
       gradientTransform="matrix(0,1.9745065,-3.186569,0.00181349,-90.777903,-58.011315)"
       gradientUnits="userSpaceOnUse"><stop
         offset="0"
         stop-color="#fafafa"
         id="stop7" /><stop
         offset="1"
         stop-color="#e6e6e6"
         id="stop8" /></radialGradient><style
       id="style1">.c{fill:none;stroke:#000000;stroke-linecap:round;stroke-linejoin:round;}</style><linearGradient
       id="a-6"
       gradientTransform="matrix(5.8289212,0,0,5.8423858,-11.80909,-70.824114)"
       gradientUnits="userSpaceOnUse"
       x1="8.9663553"
       x2="18.966356"
       y1="25.252413"
       y2="25.252413"><stop
         offset="0"
         stop-color="#003380"
         id="stop1-2" /><stop
         offset="0.392837"
         stop-color="#0055d4"
         id="stop2-6" /><stop
         offset="1"
         stop-color="#003380"
         id="stop3-1" /></linearGradient><radialGradient
       id="b-8"
       cx="12.894726"
       cy="25.794567"
       gradientTransform="matrix(5.8289212,0,0,5.8424019,-11.80909,-70.824494)"
       gradientUnits="userSpaceOnUse"
       r="5"><stop
         offset="0"
         stop-color="#55ddff"
         id="stop4-7" /><stop
         offset="1"
         stop-color="#80b3ff"
         stop-opacity="0.898039"
         id="stop5-9" /></radialGradient></defs><sodipodi:namedview
     id="namedview8"
     pagecolor="#ffffff"
     bordercolor="#000000"
     borderopacity="0.25"
     inkscape:showpageshadow="2"
     inkscape:pageopacity="0.0"
     inkscape:pagecheckerboard="0"
     inkscape:deskcolor="#d1d1d1"
     inkscape:zoom="4.3641747"
     inkscape:cx="66.220998"
     inkscape:cy="62.211076"
     inkscape:window-width="1337"
     inkscape:window-height="973"
     inkscape:window-x="35"
     inkscape:window-y="32"
     inkscape:window-maximized="0"
     inkscape:current-layer="svg8" /><linearGradient
     id="a"
     gradientTransform="matrix(0.45451 0 0 0.455522 -1210.292114 616.172607)"
     gradientUnits="userSpaceOnUse"
     x1="2689.251953"
     x2="2918.069824"
     y1="-1106.802979"
     y2="-1106.802979"><stop
       offset="0"
       stop-color="#62a0ea"
       id="stop1"
       style="stop-color:#64aa6b;stop-opacity:1;" /><stop
       offset="0.0576991"
       stop-color="#afd4ff"
       id="stop2" /><stop
       offset="0.122204"
       stop-color="#62a0ea"
       id="stop3" /><stop
       offset="0.873306"
       stop-color="#62a0ea"
       id="stop4" /><stop
       offset="0.955997"
       stop-color="#c0d5ea"
       id="stop5" /><stop
       offset="1"
       stop-color="#62a0ea"
       id="stop6" /></linearGradient><path
     d="m 21.976562 12 c -5.527343 0 -9.976562 4.460938 -9.976562 10 v 86.03125 c 0 5.542969 4.449219 10 9.976562 10 h 84.042969 c 5.53125 0 9.980469 -4.457031 9.980469 -10 v -72.085938 c 0 -6.628906 -5.359375 -12 -11.972656 -12 h -46.027344 c -2.453125 0 -4.695312 -1.386718 -5.796875 -3.582031 l -1.503906 -2.992187 c -1.65625 -3.292969 -5.019531 -5.371094 -8.699219 -5.371094 z m 0 0"
     fill="#438de6"
     id="path6"
     inkscape:label="back"
     style="fill:#389a26;fill-opacity:1" /><path
     d="m 65.976562 32 c -2.746093 0 -5.226562 1.101562 -7.027343 2.890625 c -2.273438 2.253906 -5.382813 5.109375 -8.632813 5.109375 h -28.339844 c -5.527343 0 -9.976562 4.460938 -9.976562 10 v 55.976562 c 0 5.539063 4.449219 10 9.976562 10 h 84.042969 c 5.53125 0 9.980469 -4.460937 9.980469 -10 v -63.976562 c 0 -5.539062 -4.449219 -10 -9.980469 -10 z m 0 0"
     fill="#a4caee"
     id="path8"
     inkscape:label="front"
     style="fill:#56dc3d;fill-opacity:1" /><g
     style="fill:#3a6432;fill-opacity:1"
     id="g10"
     transform="matrix(2.8884776,0,0,2.8884776,30.046881,43.730226)"><path
       fill-rule="evenodd"
       clip-rule="evenodd"
       d="M 22,13.6477 V 8.976 C 22,7.72287 21.9342,6.64762 21.7345,5.74915 21.5323,4.83933 21.1798,4.05065 20.5646,3.43543 19.9494,2.82021 19.1607,2.46772 18.2508,2.26552 17.3524,2.06584 16.2771,2 15.024,2 H 8.976 C 7.72287,2 6.64762,2.06584 5.74915,2.26552 4.83933,2.46772 4.05065,2.82021 3.43543,3.43543 2.82021,4.05065 2.46772,4.83933 2.26552,5.74915 2.06584,6.64762 2,7.72287 2,8.976 v 6.048 c 0,1.2531 0.06584,2.3284 0.26552,3.2268 0.2022,0.9099 0.55469,1.6986 1.16991,2.3138 0.61522,0.6152 1.4039,0.9677 2.31372,1.1699 C 6.64762,21.9342 7.72287,22 8.976,22 h 6.048 c 1.2531,0 2.3284,-0.0658 3.2268,-0.2655 0.9099,-0.2022 1.6986,-0.5547 2.3138,-1.1699 0.6152,-0.6152 0.9677,-1.4039 1.1699,-2.3138 C 21.9342,17.3524 22,16.2771 22,15.024 v -1.3298 c 4e-4,-0.0155 4e-4,-0.031 0,-0.0465 z M 4.21788,6.18305 C 4.066,6.86645 4,7.76851 4,8.976 v 2.12 C 4.71987,10.4038 5.39001,9.83748 6.03895,9.42453 6.82527,8.92417 7.6322,8.61574 8.50225,8.61574 c 0.87005,0 1.67695,0.30843 2.46335,0.80879 0.7765,0.49412 1.5833,1.20787 2.4694,2.09397 l 1.6253,1.6253 c 0.9833,-0.8106 1.9475,-1.3703 2.9853,-1.4996 0.6836,-0.0852 1.3283,0.0231 1.9544,0.2756 V 8.976 C 20,7.76851 19.934,6.86645 19.7821,6.18305 19.6328,5.51101 19.414,5.11327 19.1504,4.84964 18.8867,4.58602 18.489,4.36724 17.8169,4.21788 17.1336,4.066 16.2315,4 15.024,4 H 8.976 C 7.76851,4 6.86645,4.066 6.18305,4.21788 5.51101,4.36724 5.11327,4.58602 4.84964,4.84964 4.58602,5.11327 4.36724,5.51101 4.21788,6.18305 Z"
       fill="#323232"
       id="path1"
       style="fill:#3a6432;fill-opacity:1" /><path
       fill-rule="evenodd"
       clip-rule="evenodd"
       d="m 14,8 c 0,-1.10457 0.8954,-2 2,-2 1.1046,0 2,0.89543 2,2 0,1.10457 -0.8954,2 -2,2 -1.1046,0 -2,-0.89543 -2,-2 z"
       fill="#323232"
       id="path2"
       style="fill:#3a6432;fill-opacity:1" /></g></svg>
