<?xml version="1.0" encoding="UTF-8" standalone="no"?>
<svg
   height="128px"
   viewBox="0 0 128 128"
   width="128px"
   version="1.1"
   id="svg8"
   sodipodi:docname="share.svg"
   inkscape:version="1.4 (e7c3feb100, 2024-10-09)"
   xml:space="preserve"
   xmlns:inkscape="http://www.inkscape.org/namespaces/inkscape"
   xmlns:sodipodi="http://sodipodi.sourceforge.net/DTD/sodipodi-0.dtd"
   xmlns="http://www.w3.org/2000/svg"
   xmlns:svg="http://www.w3.org/2000/svg"><defs
     id="defs8"><radialGradient
       id="b"
       cx="48.424"
       cy="-48.028"
       r="38.213001"
       gradientTransform="matrix(0,1.9745065,-3.186569,0.00181349,-90.777903,-58.011315)"
       gradientUnits="userSpaceOnUse"><stop
         offset="0"
         stop-color="#fafafa"
         id="stop7" /><stop
         offset="1"
         stop-color="#e6e6e6"
         id="stop8" /></radialGradient><style
       id="style1">.c{fill:none;stroke:#000000;stroke-linecap:round;stroke-linejoin:round;}</style><linearGradient
       id="a-6"
       gradientTransform="matrix(5.8289212,0,0,5.8423858,-11.80909,-70.824114)"
       gradientUnits="userSpaceOnUse"
       x1="8.9663553"
       x2="18.966356"
       y1="25.252413"
       y2="25.252413"><stop
         offset="0"
         stop-color="#003380"
         id="stop1-2" /><stop
         offset="0.392837"
         stop-color="#0055d4"
         id="stop2-6" /><stop
         offset="1"
         stop-color="#003380"
         id="stop3-1" /></linearGradient><radialGradient
       id="b-8"
       cx="12.894726"
       cy="25.794567"
       gradientTransform="matrix(5.8289212,0,0,5.8424019,-11.80909,-70.824494)"
       gradientUnits="userSpaceOnUse"
       r="5"><stop
         offset="0"
         stop-color="#55ddff"
         id="stop4-7" /><stop
         offset="1"
         stop-color="#80b3ff"
         stop-opacity="0.898039"
         id="stop5-9" /></radialGradient></defs><sodipodi:namedview
     id="namedview8"
     pagecolor="#ffffff"
     bordercolor="#000000"
     borderopacity="0.25"
     inkscape:showpageshadow="2"
     inkscape:pageopacity="0.0"
     inkscape:pagecheckerboard="0"
     inkscape:deskcolor="#d1d1d1"
     inkscape:zoom="4.3641747"
     inkscape:cx="69.428935"
     inkscape:cy="62.211076"
     inkscape:window-width="1337"
     inkscape:window-height="973"
     inkscape:window-x="35"
     inkscape:window-y="32"
     inkscape:window-maximized="0"
     inkscape:current-layer="svg8" /><linearGradient
     id="a"
     gradientTransform="matrix(0.45451 0 0 0.455522 -1210.292114 616.172607)"
     gradientUnits="userSpaceOnUse"
     x1="2689.251953"
     x2="2918.069824"
     y1="-1106.802979"
     y2="-1106.802979"><stop
       offset="0"
       stop-color="#62a0ea"
       id="stop1"
       style="stop-color:#64aa6b;stop-opacity:1;" /><stop
       offset="0.0576991"
       stop-color="#afd4ff"
       id="stop2" /><stop
       offset="0.122204"
       stop-color="#62a0ea"
       id="stop3" /><stop
       offset="0.873306"
       stop-color="#62a0ea"
       id="stop4" /><stop
       offset="0.955997"
       stop-color="#c0d5ea"
       id="stop5" /><stop
       offset="1"
       stop-color="#62a0ea"
       id="stop6" /></linearGradient><path
     d="m 21.976562 12 c -5.527343 0 -9.976562 4.460938 -9.976562 10 v 86.03125 c 0 5.542969 4.449219 10 9.976562 10 h 84.042969 c 5.53125 0 9.980469 -4.457031 9.980469 -10 v -72.085938 c 0 -6.628906 -5.359375 -12 -11.972656 -12 h -46.027344 c -2.453125 0 -4.695312 -1.386718 -5.796875 -3.582031 l -1.503906 -2.992187 c -1.65625 -3.292969 -5.019531 -5.371094 -8.699219 -5.371094 z m 0 0"
     fill="#438de6"
     id="path6"
     inkscape:label="back"
     style="fill:#df9e77;fill-opacity:1" /><path
     d="m 65.976562 32 c -2.746093 0 -5.226562 1.101562 -7.027343 2.890625 c -2.273438 2.253906 -5.382813 5.109375 -8.632813 5.109375 h -28.339844 c -5.527343 0 -9.976562 4.460938 -9.976562 10 v 55.976562 c 0 5.539063 4.449219 10 9.976562 10 h 84.042969 c 5.53125 0 9.980469 -4.460937 9.980469 -10 v -63.976562 c 0 -5.539062 -4.449219 -10 -9.980469 -10 z m 0 0"
     fill="#a4caee"
     id="path8"
     inkscape:label="front"
     style="fill:#e7ad8f;fill-opacity:1" /><g
     fill="#222222"
     id="g4"
     transform="matrix(3.4777559,0,0,3.4777559,36.212448,47.878805)"
     style="fill:#df773b;fill-opacity:1"><path
       d="M 5.96875,7.96875 C 5.96875,9.609375 4.640625,10.9375 3,10.9375 1.359375,10.9375 0.03125,9.609375 0.03125,7.96875 0.03125,6.328125 1.359375,5 3,5 4.640625,5 5.96875,6.328125 5.96875,7.96875 Z m 0,0"
       id="path1"
       style="fill:#df773b;fill-opacity:1" /><path
       d="m 15.9375,12.96875 c 0,1.640625 -1.328125,2.96875 -2.96875,2.96875 C 11.328125,15.9375 10,14.609375 10,12.96875 10,11.328125 11.328125,10 12.96875,10 c 1.640625,0 2.96875,1.328125 2.96875,2.96875 z m 0,0"
       id="path2"
       style="fill:#df773b;fill-opacity:1" /><path
       d="m 15.9375,2.96875 c 0,1.640625 -1.328125,2.96875 -2.96875,2.96875 C 11.328125,5.9375 10,4.609375 10,2.96875 10,1.328125 11.328125,0 12.96875,0 14.609375,0 15.9375,1.328125 15.9375,2.96875 Z m 0,0"
       id="path3"
       style="fill:#df773b;fill-opacity:1" /><path
       d="M 12.613281,2.144531 0.746094,7.925781 12.601562,13.894531 13.5,12.105469 5.253906,7.957031 13.488281,3.945312 Z m 0,0"
       id="path4"
       style="fill:#df773b;fill-opacity:1" /></g></svg>
