<?xml version="1.0" encoding="UTF-8" standalone="no"?>
<svg
   height="128px"
   viewBox="0 0 128 128"
   width="128px"
   version="1.1"
   id="svg8"
   sodipodi:docname="qbtorrent.svg"
   inkscape:version="1.4 (e7c3feb100, 2024-10-09)"
   xml:space="preserve"
   xmlns:inkscape="http://www.inkscape.org/namespaces/inkscape"
   xmlns:sodipodi="http://sodipodi.sourceforge.net/DTD/sodipodi-0.dtd"
   xmlns:xlink="http://www.w3.org/1999/xlink"
   xmlns="http://www.w3.org/2000/svg"
   xmlns:svg="http://www.w3.org/2000/svg"><defs
     id="defs8"><radialGradient
       id="b"
       cx="48.424"
       cy="-48.028"
       r="38.213001"
       gradientTransform="matrix(0,1.9745065,-3.186569,0.00181349,-90.777903,-58.011315)"
       gradientUnits="userSpaceOnUse"><stop
         offset="0"
         stop-color="#fafafa"
         id="stop7" /><stop
         offset="1"
         stop-color="#e6e6e6"
         id="stop8" /></radialGradient><style
       id="style1">.c{fill:none;stroke:#000000;stroke-linecap:round;stroke-linejoin:round;}</style><linearGradient
       id="a-6"
       gradientTransform="matrix(5.8289212,0,0,5.8423858,-11.80909,-70.824114)"
       gradientUnits="userSpaceOnUse"
       x1="8.9663553"
       x2="18.966356"
       y1="25.252413"
       y2="25.252413"><stop
         offset="0"
         stop-color="#003380"
         id="stop1-2" /><stop
         offset="0.392837"
         stop-color="#0055d4"
         id="stop2-6" /><stop
         offset="1"
         stop-color="#003380"
         id="stop3-1" /></linearGradient><radialGradient
       id="b-8"
       cx="12.894726"
       cy="25.794567"
       gradientTransform="matrix(5.8289212,0,0,5.8424019,-11.80909,-70.824494)"
       gradientUnits="userSpaceOnUse"
       r="5"><stop
         offset="0"
         stop-color="#55ddff"
         id="stop4-7" /><stop
         offset="1"
         stop-color="#80b3ff"
         stop-opacity="0.898039"
         id="stop5-9" /></radialGradient><linearGradient
       gradientUnits="userSpaceOnUse"
       x1="0.34011999"
       y1="0"
       x2="0.76372999"
       y2="0.76805001"
       id="gradient1"><stop
         offset="1e-07"
         stop-color="#72b4f5"
         stop-opacity="1"
         id="stop1-3" /><stop
         offset="1"
         stop-color="#356ebf"
         stop-opacity="1"
         id="stop2-9" /></linearGradient><linearGradient
       inkscape:collect="always"
       xlink:href="#gradient1"
       id="linearGradient31"
       gradientUnits="userSpaceOnUse"
       x1="0.34011999"
       y1="0"
       x2="0.76372999"
       y2="0.76805001" /><linearGradient
       inkscape:collect="always"
       xlink:href="#gradient1"
       id="linearGradient10"
       gradientUnits="userSpaceOnUse"
       x1="0.34011999"
       y1="0"
       x2="0.76372999"
       y2="0.76805001" /></defs><sodipodi:namedview
     id="namedview8"
     pagecolor="#ffffff"
     bordercolor="#000000"
     borderopacity="0.25"
     inkscape:showpageshadow="2"
     inkscape:pageopacity="0.0"
     inkscape:pagecheckerboard="0"
     inkscape:deskcolor="#d1d1d1"
     inkscape:zoom="4.3641747"
     inkscape:cx="56.368046"
     inkscape:cy="91.999068"
     inkscape:window-width="1337"
     inkscape:window-height="973"
     inkscape:window-x="35"
     inkscape:window-y="32"
     inkscape:window-maximized="0"
     inkscape:current-layer="svg8" /><linearGradient
     id="a"
     gradientTransform="matrix(0.45451 0 0 0.455522 -1210.292114 616.172607)"
     gradientUnits="userSpaceOnUse"
     x1="2689.251953"
     x2="2918.069824"
     y1="-1106.802979"
     y2="-1106.802979"><stop
       offset="0"
       stop-color="#62a0ea"
       id="stop1"
       style="stop-color:#64aa6b;stop-opacity:1;" /><stop
       offset="0.0576991"
       stop-color="#afd4ff"
       id="stop2" /><stop
       offset="0.122204"
       stop-color="#62a0ea"
       id="stop3" /><stop
       offset="0.873306"
       stop-color="#62a0ea"
       id="stop4" /><stop
       offset="0.955997"
       stop-color="#c0d5ea"
       id="stop5" /><stop
       offset="1"
       stop-color="#62a0ea"
       id="stop6" /></linearGradient><path
     d="m 21.976562 12 c -5.527343 0 -9.976562 4.460938 -9.976562 10 v 86.03125 c 0 5.542969 4.449219 10 9.976562 10 h 84.042969 c 5.53125 0 9.980469 -4.457031 9.980469 -10 v -72.085938 c 0 -6.628906 -5.359375 -12 -11.972656 -12 h -46.027344 c -2.453125 0 -4.695312 -1.386718 -5.796875 -3.582031 l -1.503906 -2.992187 c -1.65625 -3.292969 -5.019531 -5.371094 -8.699219 -5.371094 z m 0 0"
     fill="#438de6"
     id="path6"
     inkscape:label="back"
     style="fill:#3379c2;fill-opacity:1" /><path
     d="m 65.976562 32 c -2.746093 0 -5.226562 1.101562 -7.027343 2.890625 c -2.273438 2.253906 -5.382813 5.109375 -8.632813 5.109375 h -28.339844 c -5.527343 0 -9.976562 4.460938 -9.976562 10 v 55.976562 c 0 5.539063 4.449219 10 9.976562 10 h 84.042969 c 5.53125 0 9.980469 -4.460937 9.980469 -10 v -63.976562 c 0 -5.539062 -4.449219 -10 -9.980469 -10 z m 0 0"
     fill="#a4caee"
     id="path8"
     inkscape:label="front"
     style="fill:#c4e8fd;fill-opacity:1" /><g
     fill="none"
     stroke="#000000"
     stroke-width="1"
     fill-rule="evenodd"
     stroke-linecap="square"
     stroke-linejoin="bevel"
     id="g31"
     transform="matrix(0.06170887,0,0,0.06170887,32.908859,45.812656)"><g
       fill="#000000"
       fill-opacity="1"
       stroke="#000000"
       stroke-opacity="1"
       stroke-width="1"
       stroke-linecap="square"
       stroke-linejoin="miter"
       stroke-miterlimit="2"
       id="g2" /><g
       fill="#000000"
       fill-opacity="1"
       stroke="#000000"
       stroke-opacity="1"
       stroke-width="1"
       stroke-linecap="square"
       stroke-linejoin="miter"
       stroke-miterlimit="2"
       id="g3" /><g
       fill="#000000"
       fill-opacity="1"
       stroke="#000000"
       stroke-opacity="1"
       stroke-width="1"
       stroke-linecap="square"
       stroke-linejoin="miter"
       stroke-miterlimit="2"
       id="g5" /><g
       fill="#000000"
       fill-opacity="1"
       stroke="#000000"
       stroke-opacity="1"
       stroke-width="1"
       stroke-linecap="square"
       stroke-linejoin="miter"
       stroke-miterlimit="2"
       id="g6" /><g
       fill="#000000"
       fill-opacity="1"
       stroke="#000000"
       stroke-opacity="1"
       stroke-width="1"
       stroke-linecap="square"
       stroke-linejoin="miter"
       stroke-miterlimit="2"
       transform="translate(8,8)"
       id="g7" /><g
       fill="url(#gradient1)"
       stroke="none"
       transform="translate(8,8)"
       id="g8"
       style="fill:url(#linearGradient31)"><path
         vector-effect="none"
         fill-rule="evenodd"
         d="m 1008,512 c 0,273.933 -222.067,496 -496,496 C 238.067,1008 16,785.933 16,512 16,238.067 238.067,16 512,16 c 273.933,0 496,222.067 496,496"
         id="path6-8"
         style="fill:url(#linearGradient10)" /></g><g
       fill="#000000"
       fill-opacity="1"
       stroke="#000000"
       stroke-opacity="1"
       stroke-width="1"
       stroke-linecap="square"
       stroke-linejoin="miter"
       stroke-miterlimit="2"
       transform="translate(8,8)"
       id="g9" /><g
       fill="none"
       stroke="#daefff"
       stroke-opacity="1"
       stroke-width="32"
       stroke-linecap="butt"
       stroke-linejoin="miter"
       stroke-miterlimit="4"
       transform="translate(8,8)"
       id="g10"><path
         vector-effect="none"
         fill-rule="nonzero"
         d="m 1008,512 c 0,273.933 -222.067,496 -496,496 C 238.067,1008 16,785.933 16,512 16,238.067 238.067,16 512,16 c 273.933,0 496,222.067 496,496"
         id="path8-5" /></g><g
       fill="#000000"
       fill-opacity="1"
       stroke="#000000"
       stroke-opacity="1"
       stroke-width="1"
       stroke-linecap="square"
       stroke-linejoin="miter"
       stroke-miterlimit="2"
       transform="translate(8,8)"
       id="g11" /><g
       fill="#ffffff"
       fill-opacity="1"
       stroke="none"
       transform="translate(8,8)"
       id="g12"><path
         vector-effect="none"
         fill-rule="evenodd"
         d="m 712.898,332.399 c 44.438,0 78.898,15.224 103.38,45.671 24.687,30.243 37.03,73.137 37.03,128.684 0,55.547 -12.447,98.75 -37.34,129.61 -24.687,30.653 -59.043,45.98 -103.07,45.98 -22.013,0 -42.175,-4.012 -60.484,-12.035 C 634.31,662.08 619.086,649.53 606.742,632.66 h -3.703 l -10.8,43.512 H 555.515 V 196 h 51.227 v 116.65 c 0,26.127 -0.823,49.58 -2.469,70.359 h 2.47 c 23.864,-33.74 59.249,-50.61 106.155,-50.61 v 0 m -7.406,42.894 c -34.973,0 -60.175,10.081 -75.605,30.242 -15.43,19.956 -23.145,53.696 -23.145,101.219 0,47.523 7.921,81.572 23.762,102.145 15.841,20.367 41.248,30.55 76.222,30.55 31.477,0 54.93,-11.418 70.36,-34.254 15.429,-23.041 23.144,-56.061 23.144,-99.058 0,-44.027 -7.715,-76.841 -23.144,-98.442 -15.43,-21.601 -39.295,-32.402 -71.594,-32.402 v 0"
         id="path10" /></g><g
       fill="#000000"
       fill-opacity="1"
       stroke="#000000"
       stroke-opacity="1"
       stroke-width="1"
       stroke-linecap="square"
       stroke-linejoin="miter"
       stroke-miterlimit="2"
       transform="translate(8,8)"
       id="g13" /><g
       fill="#c8e8ff"
       fill-opacity="1"
       stroke="none"
       transform="translate(8,8)"
       id="g14"><path
         vector-effect="none"
         fill-rule="evenodd"
         d="m 317.273,639.45 c 34.151,0 59.045,-9.155 74.68,-27.466 15.635,-18.309 23.967,-49.169 24.996,-92.578 v -11.418 c 0,-47.317 -8.023,-81.365 -24.07,-102.144 -16.047,-20.779 -41.454,-31.168 -76.223,-31.168 -30.037,0 -53.078,11.727 -69.125,35.18 -15.841,23.247 -23.762,56.163 -23.762,98.75 0,42.586 7.818,75.091 23.454,97.515 15.841,22.219 39.191,33.328 70.05,33.328 v 0.001 m -7.715,42.894 c -43.614,0 -77.662,-15.327 -102.144,-45.98 -24.482,-30.654 -36.723,-73.446 -36.723,-128.376 0,-55.341 12.344,-98.544 37.032,-129.609 24.687,-31.065 59.043,-46.598 103.07,-46.598 46.289,0 81.88,17.487 106.773,52.461 h 2.778 l 7.406,-46.289 h 40.426 V 828 H 416.949 V 683.27 c 0,-20.573 1.132,-38.06 3.395,-52.461 h -4.012 c -23.659,34.357 -59.25,51.535 -106.774,51.535 v 0"
         id="path12" /></g><g
       fill="#000000"
       fill-opacity="1"
       stroke="#000000"
       stroke-opacity="1"
       stroke-width="1"
       stroke-linecap="square"
       stroke-linejoin="miter"
       stroke-miterlimit="2"
       transform="translate(8,8)"
       id="g15" /><g
       fill="#000000"
       fill-opacity="1"
       stroke="#000000"
       stroke-opacity="1"
       stroke-width="1"
       stroke-linecap="square"
       stroke-linejoin="miter"
       stroke-miterlimit="2"
       transform="translate(8,8)"
       id="g16" /><g
       fill="#000000"
       fill-opacity="1"
       stroke="#000000"
       stroke-opacity="1"
       stroke-width="1"
       stroke-linecap="square"
       stroke-linejoin="miter"
       stroke-miterlimit="2"
       transform="translate(8,8)"
       id="g17" /><g
       fill="#000000"
       fill-opacity="1"
       stroke="#000000"
       stroke-opacity="1"
       stroke-width="1"
       stroke-linecap="square"
       stroke-linejoin="miter"
       stroke-miterlimit="2"
       id="g18" /><g
       fill="#000000"
       fill-opacity="1"
       stroke="#000000"
       stroke-opacity="1"
       stroke-width="1"
       stroke-linecap="square"
       stroke-linejoin="miter"
       stroke-miterlimit="2"
       id="g19" /><g
       fill="#000000"
       fill-opacity="1"
       stroke="#000000"
       stroke-opacity="1"
       stroke-width="1"
       stroke-linecap="square"
       stroke-linejoin="miter"
       stroke-miterlimit="2"
       id="g20" /><g
       fill="#000000"
       fill-opacity="1"
       stroke="#000000"
       stroke-opacity="1"
       stroke-width="1"
       stroke-linecap="square"
       stroke-linejoin="miter"
       stroke-miterlimit="2"
       id="g21" /><g
       fill="#000000"
       fill-opacity="1"
       stroke="#000000"
       stroke-opacity="1"
       stroke-width="1"
       stroke-linecap="square"
       stroke-linejoin="miter"
       stroke-miterlimit="2"
       transform="translate(8,8)"
       id="g22" /><g
       fill="#000000"
       fill-opacity="1"
       stroke="#000000"
       stroke-opacity="1"
       stroke-width="1"
       stroke-linecap="square"
       stroke-linejoin="miter"
       stroke-miterlimit="2"
       transform="translate(8,8)"
       id="g23" /><g
       fill="#000000"
       fill-opacity="1"
       stroke="#000000"
       stroke-opacity="1"
       stroke-width="1"
       stroke-linecap="square"
       stroke-linejoin="miter"
       stroke-miterlimit="2"
       transform="translate(8,8)"
       id="g24" /><g
       fill="#000000"
       fill-opacity="1"
       stroke="#000000"
       stroke-opacity="1"
       stroke-width="1"
       stroke-linecap="square"
       stroke-linejoin="miter"
       stroke-miterlimit="2"
       id="g25" /><g
       fill="#000000"
       fill-opacity="1"
       stroke="#000000"
       stroke-opacity="1"
       stroke-width="1"
       stroke-linecap="square"
       stroke-linejoin="miter"
       stroke-miterlimit="2"
       id="g26" /><g
       fill="#000000"
       fill-opacity="1"
       stroke="#000000"
       stroke-opacity="1"
       stroke-width="1"
       stroke-linecap="square"
       stroke-linejoin="miter"
       stroke-miterlimit="2"
       id="g27" /><g
       fill="#000000"
       fill-opacity="1"
       stroke="#000000"
       stroke-opacity="1"
       stroke-width="1"
       stroke-linecap="square"
       stroke-linejoin="miter"
       stroke-miterlimit="2"
       id="g28" /><g
       fill="#000000"
       fill-opacity="1"
       stroke="#000000"
       stroke-opacity="1"
       stroke-width="1"
       stroke-linecap="square"
       stroke-linejoin="miter"
       stroke-miterlimit="2"
       id="g29" /><g
       fill="#000000"
       fill-opacity="1"
       stroke="#000000"
       stroke-opacity="1"
       stroke-width="1"
       stroke-linecap="square"
       stroke-linejoin="miter"
       stroke-miterlimit="2"
       id="g30" /></g></svg>
