<?xml version="1.0" encoding="UTF-8" standalone="no"?>
<svg
   height="128px"
   viewBox="0 0 128 128"
   width="128px"
   version="1.1"
   id="svg8"
   sodipodi:docname="app_images.svg"
   inkscape:version="1.4 (e7c3feb100, 2024-10-09)"
   xmlns:inkscape="http://www.inkscape.org/namespaces/inkscape"
   xmlns:sodipodi="http://sodipodi.sourceforge.net/DTD/sodipodi-0.dtd"
   xmlns="http://www.w3.org/2000/svg"
   xmlns:svg="http://www.w3.org/2000/svg">
  <defs
     id="defs8">
    <radialGradient
       id="b"
       cx="48.424"
       cy="-48.028"
       r="38.213001"
       gradientTransform="matrix(0,1.9745065,-3.186569,0.00181349,-90.777903,-58.011315)"
       gradientUnits="userSpaceOnUse">
      <stop
         offset="0"
         stop-color="#fafafa"
         id="stop7" />
      <stop
         offset="1"
         stop-color="#e6e6e6"
         id="stop8" />
    </radialGradient>
  </defs>
  <sodipodi:namedview
     id="namedview8"
     pagecolor="#ffffff"
     bordercolor="#000000"
     borderopacity="0.25"
     inkscape:showpageshadow="2"
     inkscape:pageopacity="0.0"
     inkscape:pagecheckerboard="0"
     inkscape:deskcolor="#d1d1d1"
     inkscape:zoom="4.3641747"
     inkscape:cx="32.766791"
     inkscape:cy="57.857446"
     inkscape:window-width="1337"
     inkscape:window-height="973"
     inkscape:window-x="35"
     inkscape:window-y="32"
     inkscape:window-maximized="0"
     inkscape:current-layer="svg8" />
  <linearGradient
     id="a"
     gradientTransform="matrix(0.45451 0 0 0.455522 -1210.292114 616.172607)"
     gradientUnits="userSpaceOnUse"
     x1="2689.251953"
     x2="2918.069824"
     y1="-1106.802979"
     y2="-1106.802979">
    <stop
       offset="0"
       stop-color="#62a0ea"
       id="stop1"
       style="stop-color:#64aa6b;stop-opacity:1;" />
    <stop
       offset="0.0576991"
       stop-color="#afd4ff"
       id="stop2" />
    <stop
       offset="0.122204"
       stop-color="#62a0ea"
       id="stop3" />
    <stop
       offset="0.873306"
       stop-color="#62a0ea"
       id="stop4" />
    <stop
       offset="0.955997"
       stop-color="#c0d5ea"
       id="stop5" />
    <stop
       offset="1"
       stop-color="#62a0ea"
       id="stop6" />
  </linearGradient>
  <path
     d="m 21.976562 12 c -5.527343 0 -9.976562 4.460938 -9.976562 10 v 86.03125 c 0 5.542969 4.449219 10 9.976562 10 h 84.042969 c 5.53125 0 9.980469 -4.457031 9.980469 -10 v -72.085938 c 0 -6.628906 -5.359375 -12 -11.972656 -12 h -46.027344 c -2.453125 0 -4.695312 -1.386718 -5.796875 -3.582031 l -1.503906 -2.992187 c -1.65625 -3.292969 -5.019531 -5.371094 -8.699219 -5.371094 z m 0 0"
     fill="#438de6"
     id="path6"
     inkscape:label="back"
     style="fill:#a4c1d0;fill-opacity:1" />
  <path
     d="m 65.976562 32 c -2.746093 0 -5.226562 1.101562 -7.027343 2.890625 c -2.273438 2.253906 -5.382813 5.109375 -8.632813 5.109375 h -28.339844 c -5.527343 0 -9.976562 4.460938 -9.976562 10 v 55.976562 c 0 5.539063 4.449219 10 9.976562 10 h 84.042969 c 5.53125 0 9.980469 -4.460937 9.980469 -10 v -63.976562 c 0 -5.539062 -4.449219 -10 -9.980469 -10 z m 0 0"
     fill="#a4caee"
     id="path8"
     inkscape:label="front"
     style="fill:#437ea3;fill-opacity:1" />
  <path
     d="m 57.568042,42.624423 a 3.8802259,3.8802259 0 0 0 -3.908365,3.908365 v 7.63695 h -2.224643 a 3.8802259,3.8802259 0 0 0 -2.885937,6.492577 l 9.739648,11.065366 c -0.120378,0.211052 -0.343937,0.472131 -0.418977,0.661296 a 5.7781285,5.7781285 0 0 0 -0.481511,2.345019 v 0.240756 L 57.208473,74.794967 A 5.843789,5.843789 0 0 0 55.104209,73.409842 4.210092,4.210092 0 0 0 53.239136,73.10968 c -0.837954,0.04065 -2.02766,0.40647 -2.82653,1.203776 l -2.945345,2.945346 c -0.797307,0.797306 -1.164693,1.987012 -1.203777,2.82653 a 4.2366689,4.2366689 0 0 0 0.300163,1.863508 c 0.375203,0.952078 0.848897,1.5696 1.385125,2.105828 l 0.179784,0.179785 h -0.240755 c -0.734773,0 -1.424208,0.10318 -2.34502,0.481511 -0.45806,0.187601 -1.034935,0.412723 -1.622753,1.020865 -0.589382,0.609705 -1.203777,1.760328 -1.203777,2.945344 v 4.210093 c 0,1.185016 0.614395,2.337203 1.203777,2.945344 0.587818,0.609706 1.163129,0.834827 1.622753,1.023992 0.920812,0.376767 1.610247,0.481511 2.34502,0.481511 h 0.240755 l -0.179784,0.179785 A 5.843789,5.843789 0 0 0 46.56521,99.62716 c -0.187602,0.47526 -0.34081,1.02556 -0.300163,1.86352 0.03909,0.83794 0.404907,2.0292 1.202214,2.82651 l 2.945345,2.94535 c 0.797307,0.7973 1.988576,1.16313 2.82653,1.20377 0.837954,0.0391 1.388251,-0.11412 1.865073,-0.30173 a 5.8375356,5.8375356 0 0 0 2.104264,-1.382 l 0.179784,-0.17978 v 0.23919 c 0,0.73478 0.103181,1.42577 0.481511,2.34503 0.187602,0.45961 0.412724,1.03649 1.022428,1.62431 0.606579,0.58625 1.758765,1.20378 2.945346,1.20378 h 4.208528 c 1.188144,0 2.338766,-0.61753 2.945345,-1.20378 0.609705,-0.58782 0.834826,-1.1647 1.023992,-1.62275 0.376766,-0.92238 0.481511,-1.61025 0.481511,-2.34502 v -0.24076 l 0.179784,0.17978 c 0.536228,0.53467 1.15375,1.00836 2.104264,1.382 0.475258,0.18761 1.025556,0.34081 1.86351,0.30016 0.837953,-0.039 2.029223,-0.40334 2.82653,-1.20064 l 2.945344,-2.94535 c 0.797307,-0.79887 1.16313,-1.99013 1.203778,-2.82807 a 4.2085287,4.2085287 0 0 0 -0.2986,-1.86352 5.8234656,5.8234656 0 0 0 -1.385125,-2.104262 l -0.179784,-0.179785 h 0.239191 c 0.734773,0 1.425772,-0.106307 2.345021,-0.481511 0.459623,-0.189165 1.036498,-0.414286 1.624316,-1.023992 0.586255,-0.608141 1.203777,-1.760328 1.203777,-2.945344 v -4.208529 c 0,-1.18658 -0.617522,-2.338767 -1.203777,-2.946908 -0.587818,-0.609705 -1.164693,-0.834827 -1.622754,-1.022429 a 5.7781285,5.7781285 0 0 0 -2.345019,-0.479947 h -0.242318 l 0.179784,-0.179785 c 0.536227,-0.536228 1.009922,-1.15375 1.381999,-2.105828 0.187601,-0.47682 0.340809,-1.025554 0.300162,-1.863508 -0.03909,-0.839518 -0.403344,-2.027661 -1.200651,-2.82653 l -2.945344,-2.945346 c -0.79887,-0.800433 -1.99014,-1.164692 -2.828093,-1.203776 a 4.2085287,4.2085287 0 0 0 -1.86351,0.300162 5.8312823,5.8312823 0 0 0 -2.104264,1.385125 l -0.179785,0.179785 v -0.242319 c 0,-0.734772 -0.106308,-1.422645 -0.48151,-2.345019 A 4.5540282,4.5540282 0 0 0 69.052386,70.886601 L 78.130738,60.662315 A 3.8802259,3.8802259 0 0 0 75.2448,54.168174 h -2.224641 v -7.636949 a 3.8802259,3.8802259 0 0 0 -3.908367,-3.906802 z m 6.373763,46.72061 a 1.4117018,1.4117018 0 0 1 1.44297,1.442968 1.4117018,1.4117018 0 0 1 -1.44297,1.442969 1.4117018,1.4117018 0 0 1 -1.441405,-1.442969 1.4117018,1.4117018 0 0 1 1.441405,-1.442968 z"
     opacity="0.05"
     id="path10"
     style="stroke-width:1.56335" />
  <path
     d="m 57.388257,44.66928 a 1.8541289,1.8541289 0 0 0 -1.683723,1.863508 v 9.680243 h -4.267936 a 1.8541289,1.8541289 0 0 0 -1.383562,3.06885 l 11.12321,12.564615 c -0.306416,0.118814 -0.656606,0.184475 -0.842643,0.362696 a 2.5122977,2.5122977 0 0 0 -0.598762,0.900488 4.1506848,4.1506848 0 0 0 -0.300163,1.622753 v 3.187663 a 13.522947,13.522947 0 0 0 -1.385125,0.601889 l -2.282486,-2.28405 a 3.8833526,3.8833526 0 0 0 -1.385125,-0.903614 2.5420013,2.5420013 0 0 0 -1.081836,-0.179784 c -0.448679,0.02032 -1.031808,0.187601 -1.442968,0.601888 l -2.945345,2.945345 c -0.412724,0.412723 -0.581565,0.995852 -0.603452,1.444532 a 2.540438,2.540438 0 0 0 0.181349,1.080273 c 0.225121,0.573748 0.515904,1.000541 0.900487,1.383561 l 2.285612,2.285613 c -0.220431,0.45337 -0.428356,0.898924 -0.600324,1.381998 h -3.1861 c -0.534665,0 -1.066203,0.07192 -1.622754,0.300162 a 2.5122977,2.5122977 0 0 0 -0.903614,0.601889 2.2668524,2.2668524 0 0 0 -0.601889,1.503939 v 4.208529 c 0,0.609704 0.287656,1.178763 0.600325,1.502376 0.317359,0.328302 0.625338,0.487764 0.902051,0.601888 0.559678,0.229812 1.091216,0.300162 1.622754,0.300162 h 3.189227 c 0.171968,0.484638 0.379893,0.930192 0.600324,1.385125 l -2.284049,2.282489 a 3.8802259,3.8802259 0 0 0 -0.90205,1.383564 c -0.112562,0.28609 -0.203236,0.63471 -0.181349,1.0834 0.02189,0.44712 0.190728,1.03024 0.601889,1.44296 l 2.945344,2.94533 c 0.412724,0.41273 0.995853,0.58157 1.444532,0.60189 a 2.540438,2.540438 0 0 0 1.081836,-0.17978 c 0.572185,-0.22513 1.000542,-0.51903 1.383561,-0.90205 l 2.28405,-2.2856 c 0.45337,0.22199 0.900487,0.42835 1.383561,0.60188 v 3.18609 c 0,0.53154 0.07035,1.06308 0.300163,1.62275 0.114125,0.28141 0.276712,0.58938 0.600326,0.90362 0.326739,0.31267 0.894233,0.59877 1.505502,0.59877 h 4.208528 c 0.609706,0 1.1772,-0.28454 1.500813,-0.59877 0.328302,-0.31267 0.487764,-0.62221 0.601888,-0.90362 0.229812,-0.55811 0.300163,-1.08965 0.300163,-1.62275 v -3.18609 a 13.827799,13.827799 0 0 0 1.385125,-0.60032 l 2.282486,2.28248 c 0.386147,0.38458 0.812939,0.67848 1.383561,0.90204 0.287656,0.11413 0.636282,0.20324 1.0834,0.18135 0.448679,-0.0219 1.031808,-0.18916 1.442968,-0.60032 l 2.945345,-2.9469 c 0.412724,-0.41272 0.581565,-0.99584 0.603452,-1.44296 a 2.540438,2.540438 0 0 0 -0.181349,-1.0834 3.8833526,3.8833526 0 0 0 -0.90205,-1.382001 l -2.285613,-2.284052 c 0.221995,-0.456497 0.428357,-0.902051 0.601888,-1.383561 h 3.187664 c 0.531537,0 1.063076,-0.07192 1.622754,-0.301726 a 2.260599,2.260599 0 0 0 1.500812,-2.104264 v -4.208529 c 0,-0.611268 -0.284529,-1.1772 -0.598762,-1.503939 A 2.5122977,2.5122977 0 0 0 81.621691,86.579472 4.1585016,4.1585016 0 0 0 79.998937,86.277747 H 76.80971 a 13.522947,13.522947 0 0 0 -0.600325,-1.381998 l 2.28405,-2.285613 a 3.8614657,3.8614657 0 0 0 0.90205,-1.383561 2.5326213,2.5326213 0 0 0 0.181349,-1.081836 c -0.02345,-0.447117 -0.190728,-1.031809 -0.601889,-1.444532 l -2.945344,-2.945346 c -0.412724,-0.412723 -0.995853,-0.578438 -1.444532,-0.59876 a 2.540438,2.540438 0 0 0 -1.0834,0.17822 3.8833526,3.8833526 0 0 0 -1.381998,0.902052 l -2.284049,2.284049 A 13.521384,13.521384 0 0 0 68.452061,77.92166 v -3.189227 c 0,-0.531538 -0.07035,-1.063075 -0.2986,-1.622753 A 2.5122977,2.5122977 0 0 0 67.550009,72.207628 2.260599,2.260599 0 0 0 66.04607,71.607304 H 65.747471 L 76.628363,59.280317 A 1.8541289,1.8541289 0 0 0 75.246364,56.213031 H 70.978428 V 46.532788 A 1.8541289,1.8541289 0 0 0 69.113356,44.667716 H 57.568042 a 1.8541289,1.8541289 0 0 0 -0.179785,0 z m 6.553548,42.630896 a 3.4862625,3.4862625 0 0 1 3.487827,3.487825 3.4862625,3.4862625 0 0 1 -3.486263,3.486263 3.4862625,3.4862625 0 0 1 -3.487826,-3.486263 3.4862625,3.4862625 0 0 1 3.486262,-3.487825 z"
     opacity="0.05"
     id="path11"
     style="stroke-width:1.56335" />
  <path
     fill="url(#b)"
     d="M 57.568042,46.532788 V 58.07654 H 51.435034 L 63.341481,71.546333 75.246364,58.07654 H 69.113356 V 46.532788 Z m 4.267936,26.938025 c -0.331429,0 -0.539354,0.565931 -0.539354,1.26162 v 4.393004 a 11.993994,11.993994 0 0 0 -3.728582,1.56022 L 54.441349,77.558964 C 53.948896,77.068072 53.41423,76.842951 53.179728,77.077453 l -2.945344,2.945344 c -0.236066,0.237629 -0.01251,0.773857 0.479947,1.263185 l 3.126693,3.126693 a 11.993994,11.993994 0 0 0 -1.563346,3.730144 h -4.388313 c -0.69569,0 -1.261621,0.207925 -1.261621,0.540918 v 4.208529 c 0,0.331429 0.565931,0.540918 1.261621,0.540918 h 4.388313 a 11.993994,11.993994 0 0 0 1.56491,3.727018 l -3.126693,3.126698 c -0.492454,0.49245 -0.716013,1.02868 -0.481511,1.26318 l 2.945344,2.94533 c 0.236066,0.23763 0.772294,0.0109 1.264748,-0.47994 l 3.126693,-3.12668 a 11.993994,11.993994 0 0 0 3.727018,1.56334 v 4.38986 c 0,0.69413 0.207925,1.26318 0.542481,1.26318 h 4.206965 c 0.334557,0 0.542482,-0.56905 0.542482,-1.26318 v -4.38986 a 11.993994,11.993994 0 0 0 3.728581,-1.56334 l 3.126693,3.12668 c 0.49089,0.49088 1.027118,0.71757 1.26162,0.47994 l 2.945346,-2.94533 c 0.236064,-0.2345 0.01251,-0.77073 -0.479948,-1.26318 l -3.126693,-3.126698 a 11.993994,11.993994 0 0 0 1.563347,-3.727018 h 4.389876 c 0.694126,0 1.261621,-0.209489 1.261621,-0.540918 v -4.208529 c 0,-0.334557 -0.567495,-0.540918 -1.261621,-0.540918 h -4.388314 a 11.993994,11.993994 0 0 0 -1.564909,-3.728581 l 3.126693,-3.126693 c 0.492454,-0.490891 0.716012,-1.027119 0.481511,-1.264748 l -2.945345,-2.945344 c -0.236066,-0.234502 -0.772294,-0.0094 -1.264747,0.481511 l -3.126693,3.126693 A 11.993994,11.993994 0 0 0 66.590115,79.12231 v -4.389877 c 0,-0.695689 -0.207925,-1.26162 -0.542482,-1.26162 z m 2.105827,11.965853 a 5.3700951,5.3700951 0 0 1 5.351336,5.351335 5.3700951,5.3700951 0 0 1 -5.351336,5.351336 5.3700951,5.3700951 0 0 1 -5.351334,-5.351336 5.3700951,5.3700951 0 0 1 5.351334,-5.351335 z"
     id="path12"
     style="fill:url(#b);stroke-width:1.56335" />
</svg>
