<?xml version="1.0" encoding="UTF-8" standalone="no"?>
<svg
   height="128px"
   viewBox="0 0 128 128"
   width="128px"
   version="1.1"
   id="svg8"
   sodipodi:docname="vid.svg"
   inkscape:version="1.2.2 (b0a8486541, 2022-12-01)"
   xml:space="preserve"
   xmlns:inkscape="http://www.inkscape.org/namespaces/inkscape"
   xmlns:sodipodi="http://sodipodi.sourceforge.net/DTD/sodipodi-0.dtd"
   xmlns="http://www.w3.org/2000/svg"
   xmlns:svg="http://www.w3.org/2000/svg"><defs
     id="defs8"><inkscape:path-effect
       effect="fillet_chamfer"
       id="path-effect17"
       is_visible="true"
       lpeversion="1"
       nodesatellites_param="F,0,1,1,0,7.4531646,0,1 @ F,0,1,1,0,7.4531646,0,1 @ F,0,1,1,0,7.4531646,0,1 @ F,0,0,1,0,7.4531646,0,1"
       radius="0"
       unit="px"
       method="auto"
       mode="F"
       chamfer_steps="1"
       flexible="false"
       use_knot_distance="true"
       apply_no_radius="true"
       apply_with_radius="true"
       only_selected="false"
       hide_knots="false" /><inkscape:path-effect
       effect="fillet_chamfer"
       id="path-effect16"
       is_visible="true"
       lpeversion="1"
       nodesatellites_param="F,0,0,1,0,0,0,1 @ F,0,0,1,0,0,0,1 @ F,0,0,1,0,0,0,1 @ F,0,0,1,0,0,0,1"
       radius="0"
       unit="px"
       method="auto"
       mode="F"
       chamfer_steps="1"
       flexible="false"
       use_knot_distance="true"
       apply_no_radius="true"
       apply_with_radius="true"
       only_selected="false"
       hide_knots="false" /><radialGradient
       id="b"
       cx="48.424"
       cy="-48.028"
       r="38.213001"
       gradientTransform="matrix(0,1.9745065,-3.186569,0.00181349,-90.777903,-58.011315)"
       gradientUnits="userSpaceOnUse"><stop
         offset="0"
         stop-color="#fafafa"
         id="stop7" /><stop
         offset="1"
         stop-color="#e6e6e6"
         id="stop8" /></radialGradient><style
       id="style1">.c{fill:none;stroke:#000000;stroke-linecap:round;stroke-linejoin:round;}</style><linearGradient
       id="a-6"
       gradientTransform="matrix(5.8289212,0,0,5.8423858,-11.80909,-70.824114)"
       gradientUnits="userSpaceOnUse"
       x1="8.9663553"
       x2="18.966356"
       y1="25.252413"
       y2="25.252413"><stop
         offset="0"
         stop-color="#003380"
         id="stop1-2" /><stop
         offset="0.392837"
         stop-color="#0055d4"
         id="stop2-6" /><stop
         offset="1"
         stop-color="#003380"
         id="stop3-1" /></linearGradient><radialGradient
       id="b-8"
       cx="12.894726"
       cy="25.794567"
       gradientTransform="matrix(5.8289212,0,0,5.8424019,-11.80909,-70.824494)"
       gradientUnits="userSpaceOnUse"
       r="5"><stop
         offset="0"
         stop-color="#55ddff"
         id="stop4-7" /><stop
         offset="1"
         stop-color="#80b3ff"
         stop-opacity="0.898039"
         id="stop5-9" /></radialGradient><linearGradient
       gradientUnits="userSpaceOnUse"
       x1="0.34011999"
       y1="0"
       x2="0.76372999"
       y2="0.76805001"
       id="gradient1"><stop
         offset="1e-07"
         stop-color="#72b4f5"
         stop-opacity="1"
         id="stop1-3" /><stop
         offset="1"
         stop-color="#356ebf"
         stop-opacity="1"
         id="stop2-9" /></linearGradient><style
       id="style1-7">.a{fill:#fff;}.b{fill:#478cbf;}.c{fill:#414042;}</style></defs><sodipodi:namedview
     id="namedview8"
     pagecolor="#ffffff"
     bordercolor="#000000"
     borderopacity="0.25"
     inkscape:showpageshadow="2"
     inkscape:pageopacity="0.0"
     inkscape:pagecheckerboard="0"
     inkscape:deskcolor="#d1d1d1"
     inkscape:zoom="2.8365187"
     inkscape:cx="78.793769"
     inkscape:cy="102.94309"
     inkscape:window-width="1920"
     inkscape:window-height="943"
     inkscape:window-x="0"
     inkscape:window-y="32"
     inkscape:window-maximized="1"
     inkscape:current-layer="svg8"
     showgrid="false" /><linearGradient
     id="a"
     gradientTransform="matrix(0.45451 0 0 0.455522 -1210.292114 616.172607)"
     gradientUnits="userSpaceOnUse"
     x1="2689.251953"
     x2="2918.069824"
     y1="-1106.802979"
     y2="-1106.802979"><stop
       offset="0"
       stop-color="#62a0ea"
       id="stop1"
       style="stop-color:#64aa6b;stop-opacity:1;" /><stop
       offset="0.0576991"
       stop-color="#afd4ff"
       id="stop2" /><stop
       offset="0.122204"
       stop-color="#62a0ea"
       id="stop3" /><stop
       offset="0.873306"
       stop-color="#62a0ea"
       id="stop4" /><stop
       offset="0.955997"
       stop-color="#c0d5ea"
       id="stop5" /><stop
       offset="1"
       stop-color="#62a0ea"
       id="stop6" /></linearGradient><path
     d="m 21.976562 12 c -5.527343 0 -9.976562 4.460938 -9.976562 10 v 86.03125 c 0 5.542969 4.449219 10 9.976562 10 h 84.042969 c 5.53125 0 9.980469 -4.457031 9.980469 -10 v -72.085938 c 0 -6.628906 -5.359375 -12 -11.972656 -12 h -46.027344 c -2.453125 0 -4.695312 -1.386718 -5.796875 -3.582031 l -1.503906 -2.992187 c -1.65625 -3.292969 -5.019531 -5.371094 -8.699219 -5.371094 z m 0 0"
     fill="#438de6"
     id="path6"
     inkscape:label="back"
     style="fill:#33475c;fill-opacity:1" /><path
     d="m 65.976562 32 c -2.746093 0 -5.226562 1.101562 -7.027343 2.890625 c -2.273438 2.253906 -5.382813 5.109375 -8.632813 5.109375 h -28.339844 c -5.527343 0 -9.976562 4.460938 -9.976562 10 v 55.976562 c 0 5.539063 4.449219 10 9.976562 10 h 84.042969 c 5.53125 0 9.980469 -4.460937 9.980469 -10 v -63.976562 c 0 -5.539062 -4.449219 -10 -9.980469 -10 z m 0 0"
     fill="#a4caee"
     id="path8"
     inkscape:label="front"
     style="fill:#3f5c6c;fill-opacity:1" /><path
     d="m 57.992411,63.606586 c 0.518602,0.256165 0.518602,0.256165 1.031876,0.616831 0.19143,0.132324 0.38286,0.264646 0.580088,0.40098 0.201561,0.14356 0.403122,0.28712 0.610795,0.43503 0.210038,0.146144 0.420076,0.292287 0.636488,0.442858 0.425696,0.296395 0.850566,0.59391 1.274588,0.892568 0.661941,0.465551 1.328519,0.924237 1.996561,1.381413 0.421427,0.288486 0.841943,0.578182 1.262186,0.8683 0.858604,0.592659 1.718098,1.184068 2.577696,1.775348 0.291232,0.200386 0.582453,0.400778 0.873685,0.601175 0.144156,0.09919 0.288312,0.198388 0.436843,0.300588 0.436832,0.300588 0.873674,0.601176 1.310517,0.901764 0.144376,0.0993 0.288752,0.198614 0.437502,0.30093 0.289191,0.199061 0.578236,0.39831 0.867155,0.597752 0.758205,0.52302 1.518954,1.041919 2.284035,1.555338 0.158473,0.107069 0.316936,0.214145 0.480203,0.324462 0.302409,0.204221 0.605645,0.407298 0.909823,0.609004 1.847288,1.252153 1.847288,1.252153 2.075002,2.411358 -0.197238,1.046778 -0.956867,1.717341 -1.818841,2.317032 -0.257668,0.168697 -0.516592,0.335601 -0.77652,0.50098 -0.294048,0.192088 -0.587948,0.384403 -0.881713,0.57691 -0.155093,0.101038 -0.310175,0.202068 -0.469967,0.306166 -0.850472,0.559147 -1.689055,1.134781 -2.528506,1.709495 -0.260504,0.177997 -0.260504,0.177997 -0.526273,0.35959 -1.539143,1.05206 -3.075156,2.108426 -4.610134,3.166254 -0.867991,0.598032 -1.736517,1.195324 -2.604938,1.792764 -0.764024,0.525661 -1.527902,1.051527 -2.29156,1.577694 -0.159395,0.109785 -0.318789,0.219572 -0.483018,0.332683 -0.305999,0.210765 -0.611946,0.421591 -0.917851,0.632488 -0.206501,0.142204 -0.206501,0.142204 -0.417167,0.28728 -0.120932,0.08334 -0.241875,0.16668 -0.366481,0.252545 -0.804726,0.547303 -1.19465,0.764092 -2.18551,0.628866 -0.52282,-0.331722 -0.733036,-0.485184 -1.027868,-1.001959 -0.156725,-0.852812 -0.140304,-1.698401 -0.132999,-2.562825 -0.0021,-0.260446 -0.0031,-0.520892 -0.0052,-0.789229 -0.0042,-0.712996 -0.0031,-1.425849 3.87e-4,-2.13885 0.0021,-0.746782 1.89e-4,-1.493551 -10e-4,-2.240333 -0.0021,-1.254005 5.96e-4,-2.507952 0.0052,-3.761948 0.0052,-1.448994 0.0042,-2.897844 -0.0021,-4.346834 -0.0042,-1.244936 -0.0052,-2.489829 -0.0031,-3.734771 0.0021,-0.743173 0.0021,-1.486279 -0.0021,-2.229447 -0.0031,-0.828573 10e-4,-1.656903 0.0073,-2.485465 -0.0021,-0.245915 -0.0042,-0.491829 -0.0063,-0.745195 0.02376,-1.849493 0.02376,-1.849493 0.623019,-2.472464 0.670167,-0.427527 0.990661,-0.476169 1.777574,-0.347126 z"
     fill="#e54c3c"
     id="path6-3"
     style="stroke-width:0.202966" /><path
     d="m 94.584351,49.779538 c 0.60753,0.405773 0.971028,0.729362 1.1214,1.450591 0.03789,0.578297 0.0404,1.148687 0.03286,1.72814 10e-4,0.222053 0.0021,0.444106 0.0031,0.672887 0.0031,0.74558 -0.0021,1.490944 -0.0063,2.236512 4.08e-4,0.533883 0.001,1.067751 0.0021,1.601632 0.0021,1.300389 -0.001,2.600714 -0.0063,3.901092 -0.0052,1.513972 -0.0063,3.02793 -0.0063,4.541911 -2.1e-4,2.700972 -0.0052,5.401916 -0.01329,8.102875 -0.0073,2.621668 -0.01204,5.243314 -0.01266,7.864995 -4.2e-5,0.161496 -7.3e-5,0.322992 -1.15e-4,0.489382 -4.2e-5,0.161215 -7.3e-5,0.32243 -1.15e-4,0.488531 -7.3e-5,0.324587 -1.46e-4,0.649176 -1.99e-4,0.973763 -4.2e-5,0.160069 -8.4e-5,0.32014 -1.15e-4,0.485061 -8.27e-4,2.497457 -0.0042,4.994911 -0.0084,7.492366 -10e-4,0.905556 -0.0021,1.811111 -0.0031,2.716668 -10e-4,1.436231 -0.0031,2.872445 -0.0084,4.308662 -0.0021,0.65637 -0.0042,1.312724 -0.0042,1.969094 -1.99e-4,0.71092 -0.0031,1.42179 -0.0063,2.13271 8.17e-4,0.31243 8.17e-4,0.31243 10e-4,0.63116 -10e-4,0.19016 -0.0031,0.3803 -0.0042,0.57622 -6.18e-4,0.24618 -6.18e-4,0.24618 -0.001,0.49734 -0.05924,0.50651 -0.18199,0.81943 -0.463394,1.24817 -0.768305,0.49929 -1.145723,0.49255 -2.055725,0.40078 -0.566001,-0.35982 -0.930483,-0.61171 -1.233436,-1.20235 -0.01989,-0.29667 -0.0269,-0.5942 -0.02763,-0.8915 -0.001,-0.18866 -0.0021,-0.3773 -0.0031,-0.57168 3.2e-5,-0.20867 7.4e-5,-0.41734 1.15e-4,-0.63234 -8.26e-4,-0.22058 -10e-4,-0.44116 -0.0021,-0.66842 -0.0021,-0.74414 -0.0031,-1.48827 -0.0042,-2.2324 -0.001,-0.531494 -0.0031,-1.062984 -0.0042,-1.594474 -0.0042,-1.598529 -0.0063,-3.197058 -0.0084,-4.795591 -8.16e-4,-0.752376 -0.0021,-1.504749 -0.0031,-2.257126 -0.0031,-2.50035 -0.0063,-5.000699 -0.0084,-7.501051 -4.09e-4,-0.649041 -8.17e-4,-1.298083 -10e-4,-1.947124 -9.4e-5,-0.16132 -1.99e-4,-0.322639 -4.08e-4,-0.488848 -0.0021,-2.614312 -0.0073,-5.228607 -0.01361,-7.84291 -0.0073,-2.682716 -0.01047,-5.365424 -0.0112,-8.04815 -4.08e-4,-1.506798 -0.0021,-3.013569 -0.0073,-4.520359 -0.0042,-1.283037 -0.0063,-2.566041 -0.0042,-3.849085 0.001,-0.654788 9.5e-5,-1.309493 -0.0031,-1.964276 -0.0031,-0.709607 -0.0021,-1.419039 4.18e-4,-2.128646 -0.0021,-0.207331 -0.0042,-0.414663 -0.0073,-0.628276 0.0084,-0.88757 0.0157,-1.397996 0.498811,-2.167781 0.74842,-0.656604 1.281056,-0.677257 2.280749,-0.578155 z"
     fill="#35495e"
     id="path8-6"
     style="stroke-width:0.202966" /><path
     d="m 36.40728,49.779538 c 0.566001,0.359828 0.930473,0.611706 1.233437,1.202351 0.01989,0.296674 0.0269,0.594204 0.02763,0.891508 9.31e-4,0.188652 0.0021,0.377305 0.0031,0.571673 -4.1e-5,0.208672 -8.3e-5,0.417345 -1.15e-4,0.63234 7.54e-4,0.22058 10e-4,0.441159 0.0021,0.668423 0.0021,0.744135 0.0031,1.488265 0.0042,2.232402 10e-4,0.53149 0.0031,1.062979 0.0042,1.594467 0.0042,1.598529 0.0063,3.197058 0.0084,4.79559 9.1e-4,0.752376 0.0021,1.504751 0.0031,2.257128 0.0031,2.500348 0.0063,5.000697 0.0084,7.50105 3.87e-4,0.649041 7.85e-4,1.298083 10e-4,1.947124 9.4e-5,0.16132 1.99e-4,0.322639 3.03e-4,0.488849 0.0021,2.614312 0.0073,5.228606 0.01361,7.842909 0.0063,2.682716 0.01047,5.365424 0.0112,8.04815 4.5e-4,1.506798 0.0021,3.013569 0.0073,4.520358 0.0042,1.283038 0.0063,2.566042 0.0042,3.849086 -9.53e-4,0.65479 -9.5e-5,1.309494 0.0031,1.964284 0.0031,0.7096 0.0021,1.41903 -5.13e-4,2.12864 0.0021,0.20734 0.0042,0.41467 0.0073,0.62828 -0.0084,0.88757 -0.0157,1.398 -0.498822,2.16777 -0.567707,0.49808 -0.760884,0.57087 -1.535532,0.64079 -0.745196,-0.0626 -0.745196,-0.0626 -1.233436,-0.43836 -0.486105,-0.61966 -0.565394,-0.9512 -0.566064,-1.71868 -6.59e-4,-0.18878 -10e-4,-0.37756 -0.0021,-0.57205 3.03e-4,-0.20881 6.38e-4,-0.41762 9.63e-4,-0.63275 -4.71e-4,-0.22072 -9.21e-4,-0.44145 -10e-4,-0.66886 -10e-4,-0.7446 -10e-4,-1.4892 -9.63e-4,-2.2338 -6.17e-4,-0.531824 -10e-4,-1.063634 -0.0021,-1.595454 -0.0021,-1.29763 -0.0021,-2.595263 -0.0021,-3.892898 -9.4e-5,-1.054489 -5.13e-4,-2.108975 -0.001,-3.163462 -0.0021,-2.987656 -0.0031,-5.97531 -0.0021,-8.962965 0,-0.161177 1.1e-5,-0.322354 2.1e-5,-0.488415 1.1e-5,-0.161371 2.1e-5,-0.322745 2.1e-5,-0.489008 8.4e-5,-2.615737 -0.0021,-5.231468 -0.0052,-7.847202 -0.0031,-2.683848 -0.0042,-5.367694 -0.0042,-8.051545 6.3e-5,-1.507566 -4.92e-4,-3.015126 -0.0031,-4.522691 -0.0021,-1.28355 -0.0021,-2.567092 -9.31e-4,-3.850643 6.8e-4,-0.655147 4.6e-4,-1.310273 -0.001,-1.965419 -0.0021,-0.709633 -6.38e-4,-1.419223 9.52e-4,-2.128856 -10e-4,-0.207915 -0.0021,-0.41583 -0.0031,-0.630045 9.52e-4,-0.189821 0.0021,-0.379642 0.0031,-0.575215 -4.1e-5,-0.163839 -8.3e-5,-0.327678 -1.36e-4,-0.496481 0.05829,-0.506735 0.180965,-0.818825 0.462484,-1.24759 0.768305,-0.499294 1.145723,-0.492549 2.055724,-0.400783 z"
     fill="#35495e"
     id="path10"
     style="stroke-width:0.202966" /><path
     d="m 23.363301,97.424692 c 0.461594,-0.002 0.923,-0.0081 1.384552,-0.01449 0.294571,-0.0014 0.589152,-0.0024 0.883722,-0.0031 0.401395,-0.0028 0.401395,-0.0028 0.810901,-0.0056 0.757012,0.07573 1.142123,0.225663 1.741897,0.672604 0.470731,0.91773 0.26962,2.267634 0.277542,3.286954 0.0031,0.32091 0.0094,0.64179 0.01685,0.96262 0.0113,0.46354 0.0158,0.92672 0.01873,1.39037 0.0042,0.1426 0.0094,0.28522 0.01413,0.43214 -0.0031,0.74089 -0.106102,1.12012 -0.542809,1.73264 -0.743354,0.50394 -1.323715,0.55996 -2.199964,0.55147 -0.151252,10e-4 -0.302493,0.003 -0.458329,0.004 -0.318589,0.001 -0.63721,6e-4 -0.955789,-0.003 -0.486262,-0.004 -0.97131,0.004 -1.457478,0.0129 -0.3105,7e-5 -0.621009,-5.9e-4 -0.931498,-0.002 -0.216538,0.004 -0.216538,0.004 -0.43745,0.01 -0.819535,-0.0189 -1.139223,-0.14779 -1.761175,-0.67983 -0.490584,-0.79485 -0.552259,-1.2476 -0.551715,-2.16937 -4.19e-4,-0.13827 -0.001,-0.27652 -0.001,-0.41896 1.99e-4,-0.29052 0.0031,-0.58104 0.0084,-0.87151 0.0073,-0.44304 0.0042,-0.88528 2.09e-4,-1.32833 0.001,-0.28351 0.0031,-0.567 0.0063,-0.8505 0.0031,-0.383624 0.0031,-0.383624 0.0063,-0.775004 0.126867,-0.79051 0.359857,-1.122773 0.931959,-1.685282 0.919609,-0.448205 2.173329,-0.245917 3.196267,-0.248523 z"
     fill="#eaeeef"
     id="path12"
     style="stroke-width:0.202966" /><path
     d="m 103.69377,97.353849 c 0.21319,-1.1e-5 0.21319,-1.1e-5 0.43067,-2.3e-5 0.29927,0.001 0.59853,0.0046 0.89772,0.01041 0.45624,0.0084 0.91185,0.0082 1.36815,0.0068 2.48766,0.01793 2.48766,0.01793 3.40641,0.702937 0.67712,0.990093 0.48759,2.171557 0.48733,3.331227 8.2e-4,0.44826 0.008,0.89613 0.0161,1.34433 0.001,0.28624 0.002,0.57247 0.002,0.85871 0.002,0.25958 0.003,0.51915 0.005,0.7866 -0.11565,0.80223 -0.34145,1.12741 -0.92216,1.69482 -0.92234,0.44954 -2.26008,0.26274 -3.2841,0.27054 -0.31924,0.003 -0.63845,0.009 -0.9576,0.0165 -0.46124,0.011 -0.9221,0.0154 -1.38345,0.0183 -0.14179,0.004 -0.28359,0.009 -0.42968,0.0138 -0.74963,-0.003 -1.12477,-0.10814 -1.74373,-0.52913 -0.52053,-0.72556 -0.57352,-1.28842 -0.56085,-2.14452 -0.001,-0.14743 -0.002,-0.29487 -0.003,-0.44677 -6.2e-4,-0.31058 0.001,-0.62117 0.005,-0.93171 0.005,-0.47391 5e-5,-0.94687 -0.006,-1.42075 6.1e-4,-0.30268 0.002,-0.60535 0.004,-0.90802 -0.002,-0.140724 -0.004,-0.281444 -0.006,-0.426434 0.0179,-0.73587 0.1324,-1.11227 0.57132,-1.717218 0.75348,-0.517134 1.18627,-0.535273 2.10259,-0.530336 z"
     fill="#eaeeef"
     id="path14"
     style="stroke-width:0.202966" /><path
     d="m 23.374594,65.573373 c 0.463813,-4.41e-4 0.927531,-0.0041 1.391334,-0.0079 0.29524,-5.81e-4 0.59048,-9.82e-4 0.885721,-0.0012 0.268678,-8.21e-4 0.537345,-0.0016 0.814166,-0.0025 0.646085,0.04554 0.98996,0.09078 1.512989,0.449463 0.496508,0.726004 0.480935,1.274612 0.487423,2.115075 0.0031,0.222004 0.0031,0.222004 0.0052,0.448491 0.0031,0.312955 0.0052,0.625923 0.0052,0.938891 0.0021,0.477348 0.01256,0.954175 0.02292,1.431413 0.0021,0.3045 0.0031,0.609003 0.0042,0.913506 0.0042,0.141976 0.0084,0.283952 0.01214,0.43023 -0.0073,0.738235 -0.112905,1.117168 -0.548534,1.727066 -0.743061,0.504656 -1.32317,0.560407 -2.199524,0.55191 -0.151241,0.0014 -0.302493,0.0028 -0.458319,0.0043 -0.318589,0.0015 -0.63721,5.61e-4 -0.955789,-0.0028 -0.486262,-0.0039 -0.97131,0.004 -1.457478,0.01296 -0.310499,5.8e-5 -0.621009,-5.61e-4 -0.931498,-0.002 -0.216538,0.0046 -0.216538,0.0046 -0.43745,0.0093 -0.819535,-0.01886 -1.139223,-0.147793 -1.761175,-0.67983 -0.490584,-0.79486 -0.552259,-1.247601 -0.551715,-2.16938 -4.18e-4,-0.138256 -10e-4,-0.276512 -10e-4,-0.418957 1.98e-4,-0.290514 0.0031,-0.581036 0.0084,-0.871507 0.0073,-0.443036 0.0042,-0.885273 2.1e-4,-1.328331 0.001,-0.283501 0.0031,-0.566999 0.0063,-0.850492 0.0031,-0.383626 0.0031,-0.383626 0.0063,-0.775003 0.126866,-0.790514 0.359856,-1.122771 0.931958,-1.685279 0.920719,-0.448752 2.182895,-0.237626 3.207559,-0.237518 z"
     fill="#e9eeef"
     id="path16"
     style="stroke-width:0.202966" /><path
     d="m 21.965802,49.626895 c 0.151242,-6.81e-4 0.302483,-0.0013 0.458319,-0.0021 0.31861,6e-5 0.637231,0.0031 0.955789,0.0089 0.48621,0.0079 0.971258,0.0041 1.457478,-0.001 0.31051,0.0015 0.62101,0.0037 0.931509,0.0066 0.144355,-0.0014 0.28871,-0.0028 0.437439,-0.0042 0.749613,0.02089 1.142688,0.135472 1.761175,0.556591 0.521019,0.72735 0.568251,1.292485 0.551715,2.149811 4.92e-4,0.14791 9.94e-4,0.295821 0.001,0.448213 -1.99e-4,0.31142 -0.0031,0.622847 -0.0084,0.934228 -0.0073,0.476025 -0.0042,0.951306 -2.51e-4,1.427353 -0.001,0.30333 -0.0031,0.606659 -0.0063,0.909983 10e-4,0.141753 0.0021,0.283505 0.0031,0.429553 -0.01675,0.685619 -0.07023,1.043213 -0.512249,1.588016 -1.059798,0.783238 -2.348274,0.577978 -3.625835,0.588016 -0.309254,0.0034 -0.618508,0.0088 -0.927678,0.01644 -0.446953,0.01101 -0.893518,0.01536 -1.340596,0.0183 -0.401395,0.006 -0.401395,0.006 -0.810901,0.01204 -0.890734,-0.145864 -1.182018,-0.444823 -1.741897,-1.118888 -0.449726,-0.876787 -0.269201,-2.045413 -0.277542,-3.019089 -0.0031,-0.29038 -0.0094,-0.580743 -0.01685,-0.87104 -0.0113,-0.420276 -0.0158,-0.840169 -0.01873,-1.260572 -0.0042,-0.251407 -0.0084,-0.502815 -0.01235,-0.761841 0.271284,-1.584047 1.193029,-2.088228 2.741004,-2.055388 z"
     fill="#eaeeef"
     id="path18"
     style="stroke-width:0.202966" /><path
     d="m 103.69377,65.491523 c 0.21319,-1.3e-5 0.21319,-1.3e-5 0.43067,-2.5e-5 0.29927,0.0011 0.59853,0.0046 0.89772,0.01041 0.45624,0.0084 0.91185,0.0082 1.36815,0.0068 2.48766,0.01793 2.48766,0.01793 3.40641,0.702938 0.67712,0.990097 0.48759,2.171562 0.48733,3.331223 8.2e-4,0.448265 0.008,0.896134 0.0161,1.344329 0.001,0.286235 0.002,0.572473 0.002,0.858711 0.002,0.259577 0.003,0.519154 0.005,0.786597 -0.11565,0.802243 -0.34145,1.127411 -0.92216,1.694819 -0.92234,0.449549 -2.26008,0.262753 -3.2841,0.270549 -0.31924,0.0034 -0.63845,0.0088 -0.9576,0.01644 -0.46124,0.011 -0.9221,0.01536 -1.38345,0.0183 -0.14179,0.0046 -0.28359,0.0091 -0.42968,0.01376 -0.74963,-0.0031 -1.12477,-0.108164 -1.74373,-0.52913 -0.52053,-0.725567 -0.57352,-1.288416 -0.56085,-2.144526 -0.001,-0.147435 -0.002,-0.29487 -0.003,-0.446772 -6.2e-4,-0.310573 0.001,-0.621161 0.005,-0.931706 0.005,-0.473909 5e-5,-0.946868 -0.006,-1.420748 6.1e-4,-0.302678 0.002,-0.605354 0.004,-0.908026 -0.002,-0.140719 -0.004,-0.281438 -0.006,-0.426421 0.0179,-0.735871 0.1324,-1.112269 0.57132,-1.717226 0.75348,-0.517133 1.18627,-0.535272 2.10259,-0.530334 z"
     fill="#eaeeef"
     id="path20"
     style="stroke-width:0.202966" /><path
     d="m 103.73874,49.65351 c 0.14669,-4.82e-4 0.29337,-9.62e-4 0.4445,-0.0014 0.30893,1.95e-4 0.61787,0.0028 0.92675,0.0079 0.47121,0.0068 0.9416,0.0041 1.41282,2.4e-4 0.30114,0.0014 0.60227,0.0034 0.90339,0.0059 0.13987,-0.001 0.27972,-0.002 0.42382,-0.003 0.97243,0.0233 1.46748,0.251252 2.15227,0.918082 0.44901,0.875394 0.26073,2.046677 0.26625,3.01909 0.003,0.433302 0.0126,0.866294 0.0217,1.299514 0.002,0.277364 0.004,0.554729 0.005,0.832096 0.003,0.251409 0.006,0.502817 0.009,0.761843 -0.11463,0.831048 -0.37325,1.261174 -0.9189,1.902745 -1.09359,0.355345 -2.27203,0.2615 -3.41734,0.270549 -0.30786,0.0034 -0.6157,0.0088 -0.92347,0.01644 -0.44559,0.01101 -0.89081,0.01536 -1.33653,0.0183 -0.39943,0.006 -0.39943,0.006 -0.80692,0.01204 -0.71077,-0.116927 -0.71077,-0.116927 -1.31103,-0.527398 -0.52444,-0.725434 -0.5768,-1.286742 -0.56412,-2.144527 -0.001,-0.147436 -0.002,-0.29487 -0.003,-0.446773 -6.1e-4,-0.310573 0.001,-0.621159 0.005,-0.931705 0.005,-0.473909 5e-5,-0.946868 -0.006,-1.420748 6.2e-4,-0.302677 0.002,-0.605354 0.004,-0.908026 -0.002,-0.140719 -0.004,-0.281437 -0.006,-0.42642 0.0179,-0.733904 0.13257,-1.112416 0.56852,-1.716786 0.73123,-0.500055 1.28712,-0.554219 2.15037,-0.53782 z"
     fill="#eaeeef"
     id="path22"
     style="stroke-width:0.202966" /><path
     d="m 103.60303,81.521317 c 0.1561,-0.0018 0.31221,-0.0035 0.47304,-0.0052 0.32949,-0.0023 0.65901,-0.0025 0.9885,-8.02e-4 0.50292,0.0012 1.00483,-0.0081 1.50762,-0.0183 0.32081,-0.001 0.64162,-0.0012 0.96242,-8.01e-4 0.1495,-0.0037 0.29899,-0.0074 0.45303,-0.01118 0.83543,0.01475 1.16688,0.135026 1.8015,0.676991 0.48052,0.782817 0.5461,1.217513 0.54078,2.123244 1e-5,0.133809 2e-5,0.267616 3e-5,0.405478 -10e-4,0.281088 -0.004,0.562176 -0.0107,0.843205 -0.008,0.42845 -0.008,0.85627 -0.007,1.28479 -0.0186,2.370457 -0.0186,2.370457 -0.72111,3.239539 -0.97908,0.702175 -2.37398,0.483076 -3.5393,0.486058 -0.44097,0.0024 -0.88134,0.01225 -1.32218,0.02235 -0.28266,0.002 -0.56532,0.0034 -0.84798,0.0043 -0.25529,0.0027 -0.51058,0.0054 -0.77361,0.0081 -0.93469,-0.15768 -1.32241,-0.427778 -1.9454,-1.122067 -0.12149,-0.591194 -0.16465,-1.015526 -0.14936,-1.603919 -2.1e-4,-0.152358 -4.1e-4,-0.304716 -6.2e-4,-0.461691 10e-4,-0.320866 0.005,-0.641733 0.0117,-0.962531 0.009,-0.490566 0.008,-0.98026 0.005,-1.470893 0.002,-0.312467 0.005,-0.624928 0.008,-0.937382 -4e-4,-0.146136 -8.1e-4,-0.292272 -0.001,-0.442835 0.0185,-0.646631 0.0864,-1.075174 0.44255,-1.6263 0.69446,-0.426328 1.32587,-0.432226 2.12261,-0.430284 z"
     fill="#e9eeef"
     id="path24"
     style="stroke-width:0.202966" /><path
     d="m 21.965802,81.496268 c 0.151242,-2e-4 0.302483,-4.01e-4 0.458319,-6e-4 0.318621,0.001 0.637242,0.0048 0.955789,0.01147 0.486116,0.0094 0.9713,0.0082 1.457478,0.0055 0.31051,0.0023 0.62101,0.0051 0.931509,0.0086 0.216527,-6e-4 0.216527,-6e-4 0.437439,-0.0012 0.686337,0.0192 1.150558,0.118996 1.760264,0.431391 0.572113,0.664675 0.575253,1.237694 0.567079,2.069136 0.001,0.152166 0.0031,0.304332 0.0042,0.461111 0.0021,0.321196 5.75e-4,0.642416 -0.0031,0.963601 -0.0042,0.490283 0.0042,0.979423 0.01329,1.469622 6.2e-5,0.312722 -5.97e-4,0.625443 -0.0021,0.938164 0.0031,0.145729 0.0063,0.291459 0.0094,0.441607 -0.01894,0.811349 -0.144596,1.138307 -0.6974,1.755217 -0.813465,0.473903 -1.283494,0.538071 -2.225469,0.542125 -0.212748,0.0014 -0.212748,0.0014 -0.429788,0.0029 -0.298014,6.02e-4 -0.596049,-0.0012 -0.894041,-0.0053 -0.454583,-0.0054 -0.908118,-3.9e-5 -1.362669,0.0064 -0.290834,-6.01e-4 -0.581658,-0.002 -0.872481,-0.0039 -0.262357,-0.0012 -0.524724,-0.0023 -0.795035,-0.0035 -0.873957,-0.161638 -1.174441,-0.469157 -1.728846,-1.131607 -0.449736,-0.876787 -0.269201,-2.045414 -0.277543,-3.01909 -0.0031,-0.290378 -0.0094,-0.580742 -0.01685,-0.871038 -0.0113,-0.420276 -0.0158,-0.840172 -0.01873,-1.260572 -0.0042,-0.251407 -0.0084,-0.502815 -0.01235,-0.761842 0.271567,-1.585656 1.191867,-2.087957 2.741015,-2.048345 z"
     fill="#e9eeef"
     id="path26"
     style="stroke-width:0.202966" /></svg>
