<?xml version="1.0" encoding="UTF-8" standalone="no"?>
<svg
   height="128px"
   viewBox="0 0 128 128"
   width="128px"
   version="1.1"
   id="svg8"
   sodipodi:docname="world.svg"
   inkscape:version="1.4 (e7c3feb100, 2024-10-09)"
   xml:space="preserve"
   xmlns:inkscape="http://www.inkscape.org/namespaces/inkscape"
   xmlns:sodipodi="http://sodipodi.sourceforge.net/DTD/sodipodi-0.dtd"
   xmlns="http://www.w3.org/2000/svg"
   xmlns:svg="http://www.w3.org/2000/svg"><defs
     id="defs8"><inkscape:path-effect
       effect="fillet_chamfer"
       id="path-effect17"
       is_visible="true"
       lpeversion="1"
       nodesatellites_param="F,0,1,1,0,7.4531646,0,1 @ F,0,1,1,0,7.4531646,0,1 @ F,0,1,1,0,7.4531646,0,1 @ F,0,0,1,0,7.4531646,0,1"
       radius="0"
       unit="px"
       method="auto"
       mode="F"
       chamfer_steps="1"
       flexible="false"
       use_knot_distance="true"
       apply_no_radius="true"
       apply_with_radius="true"
       only_selected="false"
       hide_knots="false" /><inkscape:path-effect
       effect="fillet_chamfer"
       id="path-effect16"
       is_visible="true"
       lpeversion="1"
       nodesatellites_param="F,0,0,1,0,0,0,1 @ F,0,0,1,0,0,0,1 @ F,0,0,1,0,0,0,1 @ F,0,0,1,0,0,0,1"
       radius="0"
       unit="px"
       method="auto"
       mode="F"
       chamfer_steps="1"
       flexible="false"
       use_knot_distance="true"
       apply_no_radius="true"
       apply_with_radius="true"
       only_selected="false"
       hide_knots="false" /><radialGradient
       id="b"
       cx="48.424"
       cy="-48.028"
       r="38.213001"
       gradientTransform="matrix(0,1.9745065,-3.186569,0.00181349,-90.777903,-58.011315)"
       gradientUnits="userSpaceOnUse"><stop
         offset="0"
         stop-color="#fafafa"
         id="stop7" /><stop
         offset="1"
         stop-color="#e6e6e6"
         id="stop8" /></radialGradient><style
       id="style1">.c{fill:none;stroke:#000000;stroke-linecap:round;stroke-linejoin:round;}</style><linearGradient
       id="a-6"
       gradientTransform="matrix(5.8289212,0,0,5.8423858,-11.80909,-70.824114)"
       gradientUnits="userSpaceOnUse"
       x1="8.9663553"
       x2="18.966356"
       y1="25.252413"
       y2="25.252413"><stop
         offset="0"
         stop-color="#003380"
         id="stop1-2" /><stop
         offset="0.392837"
         stop-color="#0055d4"
         id="stop2-6" /><stop
         offset="1"
         stop-color="#003380"
         id="stop3-1" /></linearGradient><radialGradient
       id="b-8"
       cx="12.894726"
       cy="25.794567"
       gradientTransform="matrix(5.8289212,0,0,5.8424019,-11.80909,-70.824494)"
       gradientUnits="userSpaceOnUse"
       r="5"><stop
         offset="0"
         stop-color="#55ddff"
         id="stop4-7" /><stop
         offset="1"
         stop-color="#80b3ff"
         stop-opacity="0.898039"
         id="stop5-9" /></radialGradient><linearGradient
       gradientUnits="userSpaceOnUse"
       x1="0.34011999"
       y1="0"
       x2="0.76372999"
       y2="0.76805001"
       id="gradient1"><stop
         offset="1e-07"
         stop-color="#72b4f5"
         stop-opacity="1"
         id="stop1-3" /><stop
         offset="1"
         stop-color="#356ebf"
         stop-opacity="1"
         id="stop2-9" /></linearGradient></defs><sodipodi:namedview
     id="namedview8"
     pagecolor="#ffffff"
     bordercolor="#000000"
     borderopacity="0.25"
     inkscape:showpageshadow="2"
     inkscape:pageopacity="0.0"
     inkscape:pagecheckerboard="0"
     inkscape:deskcolor="#d1d1d1"
     inkscape:zoom="4.3641747"
     inkscape:cx="19.362195"
     inkscape:cy="87.4163"
     inkscape:window-width="1538"
     inkscape:window-height="973"
     inkscape:window-x="35"
     inkscape:window-y="32"
     inkscape:window-maximized="0"
     inkscape:current-layer="svg8" /><linearGradient
     id="a"
     gradientTransform="matrix(0.45451 0 0 0.455522 -1210.292114 616.172607)"
     gradientUnits="userSpaceOnUse"
     x1="2689.251953"
     x2="2918.069824"
     y1="-1106.802979"
     y2="-1106.802979"><stop
       offset="0"
       stop-color="#62a0ea"
       id="stop1"
       style="stop-color:#64aa6b;stop-opacity:1;" /><stop
       offset="0.0576991"
       stop-color="#afd4ff"
       id="stop2" /><stop
       offset="0.122204"
       stop-color="#62a0ea"
       id="stop3" /><stop
       offset="0.873306"
       stop-color="#62a0ea"
       id="stop4" /><stop
       offset="0.955997"
       stop-color="#c0d5ea"
       id="stop5" /><stop
       offset="1"
       stop-color="#62a0ea"
       id="stop6" /></linearGradient><path
     d="m 21.976562 12 c -5.527343 0 -9.976562 4.460938 -9.976562 10 v 86.03125 c 0 5.542969 4.449219 10 9.976562 10 h 84.042969 c 5.53125 0 9.980469 -4.457031 9.980469 -10 v -72.085938 c 0 -6.628906 -5.359375 -12 -11.972656 -12 h -46.027344 c -2.453125 0 -4.695312 -1.386718 -5.796875 -3.582031 l -1.503906 -2.992187 c -1.65625 -3.292969 -5.019531 -5.371094 -8.699219 -5.371094 z m 0 0"
     fill="#438de6"
     id="path6"
     inkscape:label="back"
     style="fill:#225d8d;fill-opacity:1;stroke:none" /><path
     d="m 65.976562 32 c -2.746093 0 -5.226562 1.101562 -7.027343 2.890625 c -2.273438 2.253906 -5.382813 5.109375 -8.632813 5.109375 h -28.339844 c -5.527343 0 -9.976562 4.460938 -9.976562 10 v 55.976562 c 0 5.539063 4.449219 10 9.976562 10 h 84.042969 c 5.53125 0 9.980469 -4.460937 9.980469 -10 v -63.976562 c 0 -5.539062 -4.449219 -10 -9.980469 -10 z m 0 0"
     fill="#a4caee"
     id="path8"
     inkscape:label="front"
     style="fill:#3288ce;fill-opacity:1;stroke:none" /><path
     id="path3"
     d="m 21.008069,59.75816 c -1.334899,0.794036 -2.629269,1.47291 -4.017875,2.106339 -0.422836,0.192858 -0.771575,-0.390948 -0.428612,-0.716774 0.224125,-0.212953 0.572317,-0.377965 0.843479,-0.619399 0.704977,-0.627991 0.566909,-1.191061 1.054524,-1.843965 0.212063,-0.283735 0.720176,-0.318076 0.931661,-0.602447 0.173228,-0.232846 0.06926,-0.751529 0.249781,-0.958623 0.407771,-0.467381 -0.0029,-0.242486 0.548462,-0.601811 0.372196,-0.242277 0.978266,-0.0913 1.334757,-0.357654 0.525521,-0.393043 0.715249,-1.286129 1.250855,-1.659909 0.513222,-0.358072 1.430394,-0.388638 2.030947,-0.397228 1.750481,-0.02515 3.25529,0.883875 4.994572,0.739808 0.692995,-0.05737 1.244081,-0.248348 1.922482,-0.376288 0.924979,-0.174426 1.189879,0.01446 2.101253,0.377756 0.492546,0.196205 1.160503,1.010139 1.36312,-0.27683 0.143296,-0.911088 -1.100784,-1.182473 0.152946,-1.95683 1.613633,-0.996318 2.467852,1.254302 3.902324,1.44862 2.130219,0.288345 0.84811,-2.731607 2.455233,-2.613506 0.836486,0.06157 1.152623,1.129291 2.026553,0.839689 0.691415,-0.229081 0.783853,-1.000923 1.488283,-1.388728 1.26989,-0.698977 2.853959,-0.568523 4.306166,-0.502982 0.235534,0.01048 0.306486,0.34488 0.09796,0.461933 -1.022733,0.572913 -2.019261,1.146041 -2.980701,1.688176 -1.995208,1.12489 0.03289,1.60023 0.821506,2.777469 0.918666,1.37135 -0.163982,2.261292 -1.613043,1.937148 -1.217272,-0.27243 -0.588139,-0.504652 -1.461077,-1.238595 -0.574341,-0.482873 -1.318581,-0.227829 -1.943376,-0.129621 -1.229689,0.193276 -2.966507,0.549677 -3.508326,1.941543 -0.280666,0.721385 -0.05795,1.504748 0.3461,1.987616 0.708956,0.847443 1.087381,0.489784 1.854089,-0.158305 0.470084,-0.397229 0.837468,-1.045528 1.381254,-1.275028 1.201903,-0.507372 1.287638,0.201445 2.080166,0.80828 1.105708,0.846594 2.883721,-0.01215 3.129897,1.770052 0.06977,0.505485 -0.211096,1.058507 -0.163986,1.567977 0.03606,0.390948 0.349651,0.778545 0.360889,1.161323 0.02288,0.777077 -0.205182,1.550393 -1.032201,1.382454 -1.038896,-0.211076 -0.449579,-1.291782 -1.098422,-1.91391 -0.426516,-0.409166 -1.702131,-0.284151 -2.197033,-0.09339 0.954536,1.774654 0.979967,2.74124 -1.07635,3.080886 -0.466721,0.07706 -1.420676,0.0052 -1.788459,0.232431 -0.578869,0.357447 -0.736547,1.622423 -1.263386,2.091896 -0.58262,0.519101 -1.947512,0.416913 -2.418578,1.036732 -0.383744,0.504657 -0.02955,2.03599 -0.196902,2.676957 -0.638789,2.445782 -1.272656,0.266147 -2.162937,-0.284993 -0.532362,-0.329384 -1.499907,-0.224894 -2.049223,-0.07685 -0.966356,0.260704 -1.471912,0.680968 -1.726959,1.448205 -0.124954,0.37545 -0.360687,2.353435 -0.323831,2.682401 0.121218,1.0851 0.361082,0.811212 1.187113,0.55658 0.448401,-0.138201 1.438616,-1.121327 1.889372,-0.980195 0.877475,0.274312 0.173839,1.50788 0.439328,1.913904 0.186458,0.284784 0.867824,0.211702 1.102364,0.460051 0.235731,0.249599 0.140926,0.545272 0.303729,0.893714 0.338412,0.724516 0.416065,1.170535 0.922803,1.867211 1.392301,-1.162164 2.08883,-1.09788 3.756669,-0.746929 0.472051,0.09925 1.42777,0.02386 1.841479,0.193695 0.632477,0.259863 0.840219,1.375119 1.417519,1.780098 0.524674,0.368121 1.513507,0.04208 2.009204,0.433038 0.519748,0.409792 0.34472,1.556463 0.787203,2.075771 0.364039,0.427175 1.216093,0.354723 1.699965,0.652489 0.586167,0.360581 0.952372,1.040923 1.559827,1.384336 1.660342,0.93873 2.753434,0.929934 1.450041,3.027068 -0.324032,0.520983 -0.628744,0.954855 -0.791941,1.521702 -0.237107,0.823144 0.168913,2.173139 -0.234544,2.906872 -0.314564,0.571865 -1.308724,0.685569 -1.748642,1.178911 -0.493927,0.554077 -0.531572,1.128662 -0.718218,1.95495 -0.120034,0.531665 -0.172857,1.396905 -0.492747,1.802086 -0.569609,0.72159 -1.359572,0.47387 -1.705671,1.366123 -0.146451,0.37713 0.08297,1.05035 -0.130286,1.38308 -0.204586,0.31954 -0.91985,0.35849 -1.17549,0.62464 -0.72098,0.75028 -0.22587,1.19607 -0.16043,2.38923 0.04099,0.75175 -0.30018,1.61929 -0.187248,2.33418 0.11491,0.72766 0.771836,1.56 1.127794,2.21438 -0.988444,0.64307 -2.446169,-0.51176 -3.083582,-1.27376 -1.139219,-1.36193 -0.576116,-2.03871 -0.853627,-3.65276 -0.198278,-1.15253 -0.967348,-2.16205 -1.115766,-3.32819 -0.219169,-1.721043 0,-3.642696 0,-5.378406 0,-1.69445 0.0469,-1.679791 -1.164449,-2.845516 -1.129953,-1.087201 -1.422449,-1.729433 -2.060844,-3.236679 -0.626569,-1.479407 -1.173907,-2.128539 -0.763354,-3.641448 0.38355,-1.413022 0.809675,-2.737053 1.044612,-4.185252 -1.464425,-0.04879 -1.965255,0.08313 -3.072737,-0.917169 -0.997114,-0.900207 -1.911841,-1.936313 -3.096985,-2.491431 -1.669663,-0.782313 -2.254139,-0.368328 -2.973801,-2.170415 -0.200068,-0.501089 -0.353744,-1.356067 -0.698803,-1.750156 -0.42118,-0.48078 -1.439577,-0.503185 -1.808209,-1.027519 -0.594288,-0.845346 -0.210084,-2.701244 -0.520569,-3.734005 -0.318312,-1.058718 -1.562983,-2.180887 -1.036689,-3.375085 0.292296,-0.663375 1.434115,-0.970352 1.677943,-1.652371 0.152708,-0.426959 -0.296786,-0.992758 -0.245797,-1.461182 0.09947,-0.913815 0.581058,-0.890369 0.37592,-1.730682 -0.173721,-0.711749 -1.080956,-1.105832 -0.331992,-1.817167 -1.774127,-0.400996 -2.28731,-0.380894 -3.998446,0.280183"
     style="fill:#418033;fill-opacity:1;fill-rule:nonzero;stroke:none;stroke-width:0.00203155" /><path
     id="path4"
     d="m 21.008069,59.75816 c -1.334899,0.794036 -2.629269,1.47291 -4.017875,2.106339 -0.422836,0.192858 -0.771575,-0.390948 -0.428612,-0.716774 0.224125,-0.212953 0.572317,-0.377965 0.843479,-0.619399 0.704977,-0.627991 0.566909,-1.191061 1.054524,-1.843965 0.212063,-0.283735 0.720176,-0.318076 0.931661,-0.602447 0.173228,-0.232846 0.06926,-0.751529 0.249781,-0.958623 0.407771,-0.467381 -0.0029,-0.242486 0.548462,-0.601811 0.372196,-0.242277 0.978266,-0.0913 1.334757,-0.357654 0.525521,-0.393043 0.715249,-1.286129 1.250855,-1.659909 0.513222,-0.358072 1.430394,-0.388638 2.030947,-0.397228 1.750481,-0.02515 3.25529,0.883875 4.994572,0.739808 0.692995,-0.05737 1.244081,-0.248348 1.922482,-0.376288 0.924979,-0.174426 1.189879,0.01446 2.101253,0.377756 0.492546,0.196205 1.160503,1.010139 1.36312,-0.27683 0.143296,-0.911088 -1.100784,-1.182473 0.152946,-1.95683 1.613633,-0.996318 2.467852,1.254302 3.902324,1.44862 2.130219,0.288345 0.84811,-2.731607 2.455233,-2.613506 0.836486,0.06157 1.152623,1.129291 2.026553,0.839689 0.691415,-0.229081 0.783853,-1.000923 1.488283,-1.388728 1.26989,-0.698977 2.853959,-0.568523 4.306166,-0.502982 0.235534,0.01048 0.306486,0.34488 0.09796,0.461933 -1.022733,0.572913 -2.019261,1.146041 -2.980701,1.688176 -1.995208,1.12489 0.03289,1.60023 0.821506,2.777469 0.918666,1.37135 -0.163982,2.261292 -1.613043,1.937148 -1.217272,-0.27243 -0.588139,-0.504652 -1.461077,-1.238595 -0.574341,-0.482873 -1.318581,-0.227829 -1.943376,-0.129621 -1.229689,0.193276 -2.966507,0.549677 -3.508326,1.941543 -0.280666,0.721385 -0.05795,1.504748 0.3461,1.987616 0.708956,0.847443 1.087381,0.489784 1.854089,-0.158305 0.470084,-0.397229 0.837468,-1.045528 1.381254,-1.275028 1.201903,-0.507372 1.287638,0.201445 2.080166,0.80828 1.105708,0.846594 2.883721,-0.01215 3.129897,1.770052 0.06977,0.505485 -0.211096,1.058507 -0.163986,1.567977 0.03606,0.390948 0.349651,0.778545 0.360889,1.161323 0.02288,0.777077 -0.205182,1.550393 -1.032201,1.382454 -1.038896,-0.211076 -0.449579,-1.291782 -1.098422,-1.91391 -0.426516,-0.409166 -1.702131,-0.284151 -2.197033,-0.09339 0.954536,1.774654 0.979967,2.74124 -1.07635,3.080886 -0.466721,0.07706 -1.420676,0.0052 -1.788459,0.232431 -0.578869,0.357447 -0.736547,1.622423 -1.263386,2.091896 -0.58262,0.519101 -1.947512,0.416913 -2.418578,1.036732 -0.383744,0.504657 -0.02955,2.03599 -0.196902,2.676957 -0.638789,2.445782 -1.272656,0.266147 -2.162937,-0.284993 -0.532362,-0.329384 -1.499907,-0.224894 -2.049223,-0.07685 -0.966356,0.260704 -1.471912,0.680968 -1.726959,1.448205 -0.124954,0.37545 -0.360687,2.353435 -0.323831,2.682401 0.121218,1.0851 0.361082,0.811212 1.187113,0.55658 0.448401,-0.138201 1.438616,-1.121327 1.889372,-0.980195 0.877475,0.274312 0.173839,1.50788 0.439328,1.913904 0.186458,0.284784 0.867824,0.211702 1.102364,0.460051 0.235731,0.249599 0.140926,0.545272 0.303729,0.893714 0.338412,0.724516 0.416065,1.170535 0.922803,1.867211 1.392301,-1.162164 2.08883,-1.09788 3.756669,-0.746929 0.472051,0.09925 1.42777,0.02386 1.841479,0.193695 0.632477,0.259863 0.840219,1.375119 1.417519,1.780098 0.524674,0.368121 1.513507,0.04208 2.009204,0.433038 0.519748,0.409792 0.34472,1.556463 0.787203,2.075771 0.364039,0.427175 1.216093,0.354723 1.699965,0.652489 0.586167,0.360581 0.952372,1.040923 1.559827,1.384336 1.660342,0.93873 2.753434,0.929934 1.450041,3.027068 -0.324032,0.520983 -0.628744,0.954855 -0.791941,1.521702 -0.237107,0.823144 0.168913,2.173139 -0.234544,2.906872 -0.314564,0.571865 -1.308724,0.685569 -1.748642,1.178911 -0.493927,0.554077 -0.531572,1.128662 -0.718218,1.95495 -0.120034,0.531665 -0.172857,1.396905 -0.492747,1.802086 -0.569609,0.72159 -1.359572,0.47387 -1.705671,1.366123 -0.146451,0.37713 0.08297,1.05035 -0.130286,1.38308 -0.204586,0.31954 -0.91985,0.35849 -1.17549,0.62464 -0.72098,0.75028 -0.22587,1.19607 -0.16043,2.38923 0.04099,0.75175 -0.30018,1.61929 -0.187248,2.33418 0.11491,0.72766 0.771836,1.56 1.127794,2.21438 -0.988444,0.64307 -2.446169,-0.51176 -3.083582,-1.27376 -1.139219,-1.36193 -0.576116,-2.03871 -0.853627,-3.65276 -0.198278,-1.15253 -0.967348,-2.16205 -1.115766,-3.32819 -0.219169,-1.721043 0,-3.642696 0,-5.378406 0,-1.69445 0.0469,-1.679791 -1.164449,-2.845516 -1.129953,-1.087201 -1.422449,-1.729433 -2.060844,-3.236679 -0.626569,-1.479407 -1.173907,-2.128539 -0.763354,-3.641448 0.38355,-1.413022 0.809675,-2.737053 1.044612,-4.185252 -1.464425,-0.04879 -1.965255,0.08313 -3.072737,-0.917169 -0.997114,-0.900207 -1.911841,-1.936313 -3.096985,-2.491431 -1.669663,-0.782313 -2.254139,-0.368328 -2.973801,-2.170415 -0.200068,-0.501089 -0.353744,-1.356067 -0.698803,-1.750156 -0.42118,-0.48078 -1.439577,-0.503185 -1.808209,-1.027519 -0.594288,-0.845346 -0.210084,-2.701244 -0.520569,-3.734005 -0.318312,-1.058718 -1.562983,-2.180887 -1.036689,-3.375085 0.292296,-0.663375 1.434115,-0.970352 1.677943,-1.652371 0.152708,-0.426959 -0.296786,-0.992758 -0.245797,-1.461182 0.09947,-0.913815 0.581058,-0.890369 0.37592,-1.730682 -0.173721,-0.711749 -1.080956,-1.105832 -0.331992,-1.817167 -1.774127,-0.400996 -2.28731,-0.380894 -3.998446,0.280184 z"
     style="fill:#418033;fill-opacity:1;stroke:none;stroke-width:0.589148;stroke-linecap:butt;stroke-linejoin:miter;stroke-miterlimit:10;stroke-dasharray:none;stroke-opacity:1" /><path
     id="path5"
     d="m 48.513986,52.849252 c 0.916896,0 2.155254,-0.349276 2.636369,0.746925 0.493331,1.124052 -0.413314,1.956203 -0.666582,2.875254 -0.284217,1.031504 0.402273,2.096926 1.416138,2.379189 1.353466,0.376497 1.466793,-1.031918 2.366938,-1.836008 0.870181,-0.777081 1.66547,-0.228247 2.661796,-0.738967 0.660663,-0.338808 0.946652,-1.381408 1.591555,-1.865743 0.382167,-0.287088 1.122665,-0.351796 1.383819,-0.741277 0.272386,-0.406442 -0.06425,-1.39522 0.253859,-1.753082 0.636031,-0.715308 2.839575,0.17464 2.328699,-1.49385 -0.658307,0.07203 -1.699171,0.394085 -2.342497,0.256301 -0.180142,-0.03851 -0.46633,0.133807 -0.645293,0.07057 -0.147229,-0.05214 -0.0465,-0.719696 -0.224893,-0.7842 -1.064121,-0.385919 -3.326598,0.716354 -4.466404,0.847232 -1.156766,0.13276 -2.46372,-0.230547 -3.581448,0.03143 -0.783268,0.183432 -2.949362,0.976639 -2.712056,2.006252"
     style="fill:#418033;fill-opacity:1;fill-rule:nonzero;stroke:none;stroke-width:0.00203155" /><path
     id="path6-2"
     d="m 48.513986,52.849252 c 0.916896,0 2.155254,-0.349276 2.636369,0.746925 0.493331,1.124052 -0.413314,1.956203 -0.666582,2.875254 -0.284217,1.031504 0.402273,2.096926 1.416138,2.379189 1.353466,0.376497 1.466793,-1.031918 2.366938,-1.836008 0.870181,-0.777081 1.66547,-0.228247 2.661796,-0.738967 0.660663,-0.338808 0.946652,-1.381408 1.591555,-1.865743 0.382167,-0.287088 1.122665,-0.351796 1.383819,-0.741277 0.272386,-0.406442 -0.06425,-1.39522 0.253859,-1.753082 0.636031,-0.715308 2.839575,0.17464 2.328699,-1.49385 -0.658307,0.07203 -1.699171,0.394085 -2.342497,0.256301 -0.180142,-0.03851 -0.46633,0.133807 -0.645293,0.07057 -0.147229,-0.05214 -0.0465,-0.719696 -0.224893,-0.7842 -1.064121,-0.385919 -3.326598,0.716354 -4.466404,0.847232 -1.156766,0.13276 -2.46372,-0.230547 -3.581448,0.03143 -0.783268,0.183432 -2.949362,0.976639 -2.712056,2.006252 z"
     style="fill:#418033;fill-opacity:1;stroke:none;stroke-width:0.589148;stroke-linecap:butt;stroke-linejoin:miter;stroke-miterlimit:10;stroke-dasharray:none;stroke-opacity:1" /><path
     id="path7"
     d="m 58.004793,56.491115 v 0.70002 c 0,0.133388 0.127327,0.224055 0.243414,0.173592 l 1.607524,-0.70002 c 0.179159,-0.07791 0.126532,-0.361006 -0.06701,-0.361006 h -1.607334 c -0.09757,0 -0.176595,0.08397 -0.176595,0.187414"
     style="fill:#418033;fill-opacity:1;fill-rule:nonzero;stroke:none;stroke-width:0.00203155" /><path
     id="path8-2"
     d="m 58.004793,56.491115 v 0.70002 c 0,0.133388 0.127327,0.224055 0.243414,0.173592 l 1.607524,-0.70002 c 0.179159,-0.07791 0.126532,-0.361006 -0.06701,-0.361006 h -1.607334 c -0.09757,0 -0.176595,0.08397 -0.176594,0.187414 z"
     style="fill:#418033;fill-opacity:1;stroke:none;stroke-width:0.589148;stroke-linecap:butt;stroke-linejoin:miter;stroke-miterlimit:10;stroke-dasharray:none;stroke-opacity:1" /><path
     id="path9"
     d="m 66.968367,57.097327 c -1.00244,0.74944 -1.123855,0.513655 -0.823083,1.566722 0.257805,0.903135 0.604304,1.073799 1.394269,1.164048 2.037983,0.233057 1.073977,-2.823323 2.159585,-2.634035 1.147498,0.200192 0.392819,2.995454 -0.182312,3.684378 -1.107882,1.327587 -2.602274,-0.229086 -3.799832,0.530828 -0.474808,0.301322 -0.476973,1.695709 -1.269501,1.383077 -0.162802,-0.06408 -0.297615,-1.404856 -0.453321,-1.811298 -0.439331,-1.146883 -1.032787,-2.684497 -2.259518,-1.838521 -0.353394,0.243945 -1.539525,2.14466 -1.572047,2.584813 -0.05913,0.80221 0.07627,0.634483 0.663431,0.61543 0.967348,-0.03158 0.77656,-0.793414 1.660539,-0.02158 0.21326,0.186154 -0.109386,0.788171 0.146243,0.984801 0.198082,0.152022 0.995739,0 1.259851,0 -0.22154,0.386552 -0.508711,0.782314 -0.624404,1.209489 -0.06741,0.249814 0.09243,1.000503 -0.07864,1.171169 -0.200449,0.199764 -1.039684,-0.07978 -1.299265,0 -0.744828,0.228871 -0.311414,-0.110358 -0.796468,0.56705 -0.456079,0.636993 -0.521517,1.573423 -0.364228,2.314064 0.09184,0.431994 0.513824,0.658146 0.435579,1.043643 -0.09697,0.476803 -0.958876,0.749021 -1.139214,1.21012 -0.517189,1.322774 0.338604,1.220163 -0.835303,2.181513 -0.888516,0.727666 -1.319169,0.793202 -1.537355,1.814866 -0.198477,0.928683 0.07983,1.840197 -0.205178,2.753589 -0.369361,1.183733 -0.92773,1.451766 -0.132643,2.413951 0.540631,0.653953 1.465219,0.974755 2.066555,1.574054 0.859935,0.85707 0.889701,1.705553 2.128651,1.67938 0.787005,-0.01654 1.476058,-0.838852 2.201181,-0.745044 0.771432,0.09967 1.301228,1.097671 1.994814,1.440454 1.330007,0.657513 0.691219,-0.0046 1.024507,1.754342 0.190793,1.00658 0.993563,1.758955 1.237969,2.740198 0.204587,0.821883 -0.161032,1.719794 -0.288749,2.590262 -0.149596,1.019565 -0.07726,1.407574 0.194734,2.448083 0.469092,1.793497 0.925564,3.681852 1.256096,5.494204 0.213454,1.170543 -0.204589,1.251583 1.044609,1.433133 0.995736,0.14448 1.832217,-0.1269 2.634987,-0.868183 0.679005,-0.62693 0.709554,-1.632048 1.268717,-2.384836 0.354775,-0.47764 1.379681,-0.767237 1.520407,-1.225607 0.25741,-0.838228 -0.504174,-1.472077 -0.0883,-2.331449 0.413506,-0.854558 1.881877,-1.580333 2.089817,-2.502946 0.15551,-0.689132 -0.638991,-2.04059 -0.730838,-2.736842 -0.112346,-0.850372 -0.109583,-1.379098 0.426719,-2.166024 1.226139,-1.799151 3.093039,-2.523674 3.687086,-4.834595 0.203605,-0.792369 0.301758,-1.383498 -0.382759,-1.699482 -0.738127,-0.340904 -2.49426,0.284783 -1.220622,-1.283828 0.990802,-1.220379 3.553262,-0.04753 4.132726,-2.168953 0.493133,-1.805646 -0.867819,-1.788054 -1.959935,-2.099643 -0.685302,-0.195787 -2.408128,-0.931193 -2.474543,-1.842499 -0.102493,-1.409461 1.104133,-0.932243 1.707841,-0.517633 0.715066,0.490835 1.258267,1.016631 2.101247,1.213884 1.466996,0.343207 1.954412,-0.222591 2.885895,1.09683 0.242823,0.344048 0.456473,0.755514 0.786024,0.968053 0.38946,0.251699 1.284082,0.08355 1.586629,0.432411 0.481701,0.555326 0.113325,2.338986 0.351622,3.080885 0.325206,1.013069 1.047767,2.003944 1.537746,2.941005 0.766112,-0.790902 0.267071,-1.408836 0.527238,-2.349666 0.191375,-0.691642 0.773793,-1.154202 1.280928,-1.706601 1.139421,-1.241106 2.550828,-3.730647 3.274174,-1.126146 0.08302,0.2986 0.180746,1.245925 0.401879,1.446739 0.214641,0.194945 0.747793,-0.05215 0.904875,0.109093 0.453128,0.465495 0.161617,1.799366 0.400302,2.561577 0.236916,0.756349 0.871953,1.411137 1.336909,2.059437 0.711128,0.991506 0.713294,1.112955 1.89174,1.012861 -0.698125,-1.018095 -2.546295,-2.729511 -2.240801,-4.107987 0.838049,0.124389 1.166616,1.182482 1.801468,1.307073 0.774393,0.152022 1.236383,-0.751745 1.098413,-1.493854 -0.20951,-1.127823 -2.711256,-2.859761 -0.37369,-3.495915 0.78484,-0.213586 1.42029,0.266566 2.07365,-0.210861 0.58321,-0.426126 0.978,-1.383707 1.11223,-2.049808 0.34708,-1.721467 -1.52515,-3.2817 -1.21728,-4.554841 0.54341,-2.247062 2.22267,1.699274 3.10665,1.161956 0.80001,-0.486438 0.0135,-1.41659 -0.1506,-1.971073 -0.46692,-1.578451 0.12398,-0.504443 0.76574,-1.856949 0.17384,-0.366242 -0.17582,-1.015169 0,-1.380145 0.12376,-0.256936 0.6106,-0.307612 0.70856,-0.536692 0.22705,-0.53062 0.37586,-1.377428 -0.0999,-2.133984 -0.64983,-1.033379 -3.69319,-1.311047 -3.19553,-2.500641 0.4888,-1.16803 1.8734,-0.09967 2.60916,-0.282063 0.69812,-0.173169 0.89896,-1.40632 1.71337,-1.195667 0.89107,0.230548 0.26627,1.86051 0.57551,2.62649 0.22333,0.552815 0.85995,1.006371 1.41477,1.416165 0.2379,0.175683 0.56803,0.06219 0.66382,-0.228456 0.38336,-1.163625 0.11155,-1.576351 -0.49491,-2.791492 -0.10801,-0.216521 -0.006,-0.48455 0.21326,-0.560564 l 1.44749,-0.502138 c 0.1555,-0.05402 0.23493,-0.237248 0.17246,-0.397858 l -0.30747,-0.789431 c -0.044,-0.112867 0.0529,-0.230553 0.16398,-0.19893 0.65278,0.186151 1.59452,0.556375 2.13082,0.239135 0.17836,-0.105747 0.19018,-0.373989 0.0228,-0.498371 -0.45766,-0.340061 -0.8414,-0.615213 -1.38698,-0.7419 -1.01977,-0.237039 -2.19742,0.254422 -3.21286,0 -1.60634,-0.402458 -2.16059,-1.754549 -3.92145,-1.530919 -2.15722,0.274107 -3.33192,0.240812 -5.434753,-0.31137 -1.613626,-0.423824 -3.124764,0.57438 -4.501292,-0.139256 -1.003416,-0.52014 -0.907239,-0.656036 -2.017877,-0.482245 -1.249988,0.195792 -1.489465,0.557003 -2.369497,-0.261746 -0.94922,-0.882828 -0.416861,-0.82964 -1.441174,-0.746087 -1.129956,0.09214 -2.48539,0.837594 -3.566272,1.201949 -0.615139,0.207306 -1.476058,0.702114 -2.128054,0.717192 -0.610804,0.01446 -1.631371,-0.882408 -2.188172,-0.688294 -0.433413,0.151185 -0.712699,1.194829 -1.181987,1.462652 -0.891664,0.50842 -2.329096,0.558044 -3.313589,0.79404 -0.637809,0.152856 -1.725787,0.656676 -2.342695,0.483916 -0.830964,-0.232638 -1.198549,-1.173678 -2.090808,-1.307066 -0.852242,-0.127525 -2.825383,-0.089 -3.62047,0.242901 -0.743254,0.310126 -1.476843,1.344972 -2.082129,1.9181"
     style="fill:#418033;fill-opacity:1;fill-rule:nonzero;stroke:none;stroke-width:0.00203155" /><path
     id="path10"
     d="m 66.968367,57.097327 c -1.00244,0.74944 -1.123855,0.513655 -0.823083,1.566722 0.257805,0.903135 0.604304,1.073799 1.394269,1.164048 2.037983,0.233057 1.073977,-2.823323 2.159585,-2.634035 1.147498,0.200192 0.392819,2.995454 -0.182312,3.684378 -1.107882,1.327587 -2.602274,-0.229086 -3.799832,0.530828 -0.474808,0.301322 -0.476973,1.695709 -1.269501,1.383077 -0.162802,-0.06408 -0.297615,-1.404856 -0.453321,-1.811298 -0.439331,-1.146883 -1.032787,-2.684497 -2.259518,-1.838521 -0.353394,0.243945 -1.539525,2.14466 -1.572047,2.584813 -0.05913,0.80221 0.07627,0.634483 0.663431,0.61543 0.967348,-0.03158 0.77656,-0.793414 1.660539,-0.02158 0.21326,0.186154 -0.109386,0.788171 0.146243,0.984801 0.198082,0.152022 0.995739,0 1.259851,0 -0.22154,0.386552 -0.508711,0.782314 -0.624404,1.209489 -0.06741,0.249814 0.09243,1.000503 -0.07864,1.171169 -0.200449,0.199764 -1.039684,-0.07978 -1.299265,0 -0.744828,0.228871 -0.311414,-0.110358 -0.796468,0.56705 -0.456079,0.636993 -0.521517,1.573423 -0.364228,2.314064 0.09184,0.431994 0.513824,0.658146 0.435579,1.043643 -0.09697,0.476803 -0.958876,0.749021 -1.139214,1.21012 -0.517189,1.322774 0.338604,1.220163 -0.835303,2.181513 -0.888516,0.727666 -1.319169,0.793202 -1.537355,1.814866 -0.198477,0.928683 0.07983,1.840197 -0.205178,2.753589 -0.369361,1.183733 -0.92773,1.451766 -0.132643,2.413951 0.540631,0.653953 1.465219,0.974755 2.066555,1.574054 0.859935,0.85707 0.889701,1.705553 2.128651,1.67938 0.787005,-0.01654 1.476058,-0.838852 2.201181,-0.745044 0.771432,0.09967 1.301228,1.097671 1.994814,1.440454 1.330007,0.657513 0.691219,-0.0046 1.024507,1.754342 0.190793,1.00658 0.993563,1.758955 1.237969,2.740198 0.204587,0.821883 -0.161032,1.719794 -0.288749,2.590262 -0.149596,1.019565 -0.07726,1.407574 0.194734,2.448083 0.469092,1.793497 0.925564,3.681852 1.256096,5.494204 0.213454,1.170543 -0.204589,1.251583 1.044609,1.433133 0.995736,0.14448 1.832217,-0.1269 2.634987,-0.868183 0.679005,-0.62693 0.709554,-1.632048 1.268717,-2.384836 0.354775,-0.47764 1.379681,-0.767237 1.520407,-1.225607 0.25741,-0.838228 -0.504174,-1.472077 -0.0883,-2.331449 0.413506,-0.854558 1.881877,-1.580333 2.089817,-2.502946 0.15551,-0.689132 -0.638991,-2.04059 -0.730838,-2.736842 -0.112346,-0.850372 -0.109583,-1.379098 0.426719,-2.166024 1.226139,-1.799151 3.093039,-2.523674 3.687086,-4.834595 0.203605,-0.792369 0.301758,-1.383498 -0.382759,-1.699482 -0.738127,-0.340904 -2.49426,0.284783 -1.220622,-1.283828 0.990802,-1.220379 3.553262,-0.04753 4.132726,-2.168953 0.493133,-1.805646 -0.867819,-1.788054 -1.959935,-2.099643 -0.685302,-0.195787 -2.408128,-0.931193 -2.474543,-1.842499 -0.102493,-1.409461 1.104133,-0.932243 1.707841,-0.517633 0.715066,0.490835 1.258267,1.016631 2.101247,1.213884 1.466996,0.343207 1.954412,-0.222591 2.885895,1.09683 0.242823,0.344048 0.456473,0.755514 0.786024,0.968053 0.38946,0.251699 1.284082,0.08355 1.586629,0.432411 0.481701,0.555326 0.113325,2.338986 0.351622,3.080885 0.325206,1.013069 1.047767,2.003944 1.537746,2.941005 0.766112,-0.790902 0.267071,-1.408836 0.527238,-2.349666 0.191375,-0.691642 0.773793,-1.154202 1.280928,-1.706601 1.139421,-1.241106 2.550828,-3.730647 3.274174,-1.126146 0.08302,0.2986 0.180746,1.245925 0.401879,1.446739 0.214641,0.194945 0.747793,-0.05215 0.904875,0.109093 0.453128,0.465495 0.161617,1.799366 0.400302,2.561577 0.236916,0.756349 0.871953,1.411137 1.336909,2.059437 0.711128,0.991506 0.713294,1.112955 1.89174,1.012861 -0.698125,-1.018095 -2.546295,-2.729511 -2.240801,-4.107987 0.838049,0.124389 1.166616,1.182482 1.801468,1.307073 0.774393,0.152022 1.236383,-0.751745 1.098413,-1.493854 -0.20951,-1.127823 -2.711256,-2.859761 -0.37369,-3.495915 0.78484,-0.213586 1.42029,0.266566 2.07365,-0.210861 0.58321,-0.426126 0.978,-1.383707 1.11223,-2.049808 0.34708,-1.721467 -1.52515,-3.2817 -1.21728,-4.554841 0.54341,-2.247062 2.22267,1.699274 3.10665,1.161956 0.80001,-0.486438 0.0135,-1.41659 -0.1506,-1.971073 -0.46692,-1.578451 0.12398,-0.504443 0.76574,-1.856949 0.17384,-0.366242 -0.17582,-1.015169 0,-1.380145 0.12376,-0.256936 0.6106,-0.307612 0.70856,-0.536692 0.22705,-0.53062 0.37586,-1.377428 -0.0999,-2.133984 -0.64983,-1.033379 -3.69319,-1.311047 -3.19553,-2.500641 0.4888,-1.16803 1.8734,-0.09967 2.60916,-0.282063 0.69812,-0.173169 0.89896,-1.40632 1.71337,-1.195667 0.89107,0.230548 0.26627,1.86051 0.57551,2.62649 0.22333,0.552815 0.85995,1.006371 1.41477,1.416165 0.2379,0.175683 0.56803,0.06219 0.66382,-0.228456 0.38336,-1.163625 0.11155,-1.576351 -0.49491,-2.791492 -0.10801,-0.216521 -0.006,-0.48455 0.21326,-0.560564 l 1.44749,-0.502138 c 0.1555,-0.05402 0.23493,-0.237248 0.17246,-0.397858 l -0.30747,-0.789431 c -0.044,-0.112867 0.0529,-0.230553 0.16398,-0.19893 0.65278,0.186151 1.59452,0.556375 2.13082,0.239135 0.17836,-0.105747 0.19018,-0.373989 0.0228,-0.498371 -0.45766,-0.340061 -0.8414,-0.615213 -1.38698,-0.7419 -1.01977,-0.237039 -2.19742,0.254422 -3.21286,0 -1.60634,-0.402458 -2.16059,-1.754549 -3.92145,-1.530919 -2.15722,0.274107 -3.33192,0.240812 -5.434753,-0.31137 -1.613626,-0.423824 -3.124764,0.57438 -4.501292,-0.139256 -1.003416,-0.52014 -0.907239,-0.656036 -2.017877,-0.482245 -1.249988,0.195792 -1.489465,0.557003 -2.369497,-0.261746 -0.94922,-0.882828 -0.416861,-0.82964 -1.441174,-0.746087 -1.129956,0.09214 -2.48539,0.837594 -3.566272,1.201949 -0.615139,0.207306 -1.476058,0.702114 -2.128054,0.717192 -0.610804,0.01446 -1.631371,-0.882408 -2.188172,-0.688294 -0.433413,0.151185 -0.712699,1.194829 -1.181987,1.462652 -0.891664,0.50842 -2.329096,0.558044 -3.313589,0.79404 -0.637809,0.152856 -1.725787,0.656676 -2.342695,0.483916 -0.830964,-0.232638 -1.198549,-1.173678 -2.090808,-1.307066 -0.852242,-0.127525 -2.825383,-0.089 -3.62047,0.242901 -0.743254,0.310126 -1.476843,1.344972 -2.082129,1.9181 z"
     style="fill:#418033;fill-opacity:1;stroke:none;stroke-width:0.589148;stroke-linecap:butt;stroke-linejoin:miter;stroke-miterlimit:10;stroke-dasharray:none;stroke-opacity:1" /><path
     id="path11"
     d="m 77.99613,54.423932 1.335136,-1.672682 c 0.217989,-0.273052 -0.0099,-0.687037 -0.340193,-0.616467 -0.806123,0.172121 -1.176071,0.774148 -1.899027,1.617395 -0.07765,0.09067 -0.05873,0.2339 0.03941,0.298608 l 0.626372,0.412927 c 0.07785,0.05129 0.179165,0.03437 0.238292,-0.03976"
     style="fill:#418033;fill-opacity:1;fill-rule:nonzero;stroke:none;stroke-width:0.00203155" /><path
     id="path12"
     d="m 77.99613,54.423932 1.335136,-1.672682 c 0.217989,-0.273052 -0.0099,-0.687037 -0.340193,-0.616467 -0.806123,0.172121 -1.176071,0.774148 -1.899027,1.617395 -0.07765,0.09067 -0.05873,0.2339 0.03941,0.298608 l 0.626372,0.412927 c 0.07785,0.05129 0.179165,0.03437 0.238292,-0.03976 z"
     style="fill:#418033;fill-opacity:1;stroke:none;stroke-width:0.589148;stroke-linecap:butt;stroke-linejoin:miter;stroke-miterlimit:10;stroke-dasharray:none;stroke-opacity:1" /><path
     id="path13"
     d="m 62.486577,69.607862 c 1.055259,-0.218406 3.19356,-1.217242 4.198949,-0.404772 0.439139,0.35493 0.420217,1.004072 0.896598,1.36905 0.624991,0.478686 1.598849,0.633016 2.243946,0.451887 0.556997,-0.156632 0.866439,-0.503816 1.438812,-0.592395 0.850663,-0.131712 1.888376,0.132553 2.754031,0.193276 0.647463,0.04544 1.362924,0.32017 1.847195,-0.223427 0.363444,-0.407908 0.378819,-1.126777 -0.285592,-1.493854 -0.515216,-0.284569 -1.643596,0.409589 -2.227001,0.285625 -0.764543,-0.162704 -0.902117,-0.995276 -1.582097,-1.455535 -1.007366,-0.68201 -2.179103,-0.101549 -3.297041,-0.958416 -1.391504,-1.066888 -2.287507,-1.153367 -3.483881,0.238503 -0.543003,0.631757 -0.774985,0.887226 -1.38618,1.274404 -0.437759,0.277448 -1.920119,0.403931 -1.117739,1.315654"
     style="fill:#418033;fill-opacity:1;fill-rule:nonzero;stroke:none;stroke-width:0.00203155" /><path
     id="path14"
     d="m 62.486577,69.607862 c 1.055259,-0.218406 3.19356,-1.217242 4.198949,-0.404772 0.439139,0.35493 0.420217,1.004072 0.896598,1.36905 0.624991,0.478686 1.598849,0.633016 2.243946,0.451887 0.556997,-0.156632 0.866439,-0.503816 1.438812,-0.592395 0.850663,-0.131712 1.888376,0.132553 2.754031,0.193276 0.647463,0.04544 1.362924,0.32017 1.847195,-0.223427 0.363444,-0.407908 0.378819,-1.126777 -0.285592,-1.493854 -0.515216,-0.284569 -1.643596,0.409589 -2.227001,0.285625 -0.764543,-0.162704 -0.902117,-0.995276 -1.582097,-1.455535 -1.007366,-0.68201 -2.179103,-0.101549 -3.297041,-0.958416 -1.391504,-1.066888 -2.287507,-1.153367 -3.483881,0.238503 -0.543003,0.631757 -0.774985,0.887226 -1.38618,1.274404 -0.437759,0.277448 -1.920119,0.403931 -1.117739,1.315654 z"
     style="fill:#3288ce;fill-opacity:1;stroke:none;stroke-width:0.589148;stroke-linecap:butt;stroke-linejoin:miter;stroke-miterlimit:10;stroke-dasharray:none;stroke-opacity:1" /><path
     id="path15"
     d="m 73.032047,64.052719 c -0.370343,0.53229 -0.635836,0.815814 -0.661848,1.41428 -0.06031,1.382657 0.343146,0.845131 1.024314,0.989825 0.653573,0.13904 0.959666,-0.04712 1.688717,0.206466 0.436965,0.152239 1.06571,0.619612 1.514302,0.444552 1.132321,-0.441826 0.07765,-1.918715 -0.797455,-2.168111 -0.511071,-0.145744 -1.131734,0.136111 -1.541886,-0.05989 -0.711522,-0.339646 0.139541,-1.174514 -1.226144,-0.827121"
     style="fill:#418033;fill-opacity:1;fill-rule:nonzero;stroke:none;stroke-width:0.00203155" /><path
     id="path16"
     d="m 73.032047,64.052719 c -0.370343,0.53229 -0.635836,0.815814 -0.661848,1.41428 -0.06031,1.382657 0.343146,0.845131 1.024314,0.989825 0.653573,0.13904 0.959666,-0.04712 1.688717,0.206466 0.436965,0.152239 1.06571,0.619612 1.514302,0.444552 1.132321,-0.441826 0.07765,-1.918715 -0.797455,-2.168111 -0.511071,-0.145744 -1.131734,0.136111 -1.541886,-0.05989 -0.711522,-0.339646 0.139541,-1.174514 -1.226144,-0.827121 z"
     style="fill:#3288ce;fill-opacity:1;stroke:none;stroke-width:0.589148;stroke-linecap:butt;stroke-linejoin:miter;stroke-miterlimit:10;stroke-dasharray:none;stroke-opacity:1" /><path
     id="path17"
     d="m 77.953163,64.332892 c -0.271993,1.000929 0.386507,0.833616 0.740294,1.505787 0.407595,0.774568 -0.0095,0.70463 0.141718,1.6063 0.135601,0.808911 1.513108,1.791196 2.325544,0.85581 -0.29446,-0.451254 -1.032984,-1.20111 -1.142372,-1.750574 -0.158072,-0.792994 0.525458,-1.247385 -0.46141,-1.797267 0.130089,-0.07602 0.22627,-0.218616 0.339996,-0.326873 0.05145,-0.04899 0.04177,-0.137364 -0.01972,-0.170866 -0.871173,-0.477017 -0.955924,-0.436597 -1.924065,0.07769"
     style="fill:#418033;fill-opacity:1;fill-rule:nonzero;stroke:none;stroke-width:0.00203155" /><path
     id="path18"
     d="m 77.953163,64.332892 c -0.271993,1.000929 0.386507,0.833616 0.740294,1.505787 0.407595,0.774568 -0.0095,0.70463 0.141718,1.6063 0.135601,0.808911 1.513108,1.791196 2.325544,0.85581 -0.29446,-0.451254 -1.032984,-1.20111 -1.142372,-1.750574 -0.158072,-0.792994 0.525458,-1.247385 -0.46141,-1.797267 0.130089,-0.07602 0.22627,-0.218616 0.339996,-0.326873 0.05145,-0.04899 0.04177,-0.137364 -0.01972,-0.170866 -0.871173,-0.477017 -0.955924,-0.436597 -1.924065,0.07769 z"
     style="fill:#3288ce;fill-opacity:1;stroke:none;stroke-width:0.589148;stroke-linecap:butt;stroke-linejoin:miter;stroke-miterlimit:10;stroke-dasharray:none;stroke-opacity:1" /><path
     id="path19"
     d="m 74.261736,72.642258 c 0.275932,0.412933 0.807308,0.97789 0.936207,1.473328 0.184289,0.708191 -0.06227,1.014752 0.266282,1.595833 0.278496,0.492295 0.857572,0.731638 1.115169,1.240899 0.395971,0.781889 0.152359,1.416581 0.898375,1.99201 0.66993,-2.095457 -0.305111,-2.629006 -1.017812,-4.35466 -0.104267,-0.252325 0.05342,-0.633851 -0.05026,-0.897482 -0.161811,-0.411474 -0.639973,-0.974755 -0.919652,-1.289063 -0.482693,-0.542136 -1.325875,-1.312302 -1.228309,0.239135"
     style="fill:#418033;fill-opacity:1;fill-rule:nonzero;stroke:none;stroke-width:0.00203155" /><path
     id="path20"
     d="m 74.261736,72.642258 c 0.275932,0.412933 0.807308,0.97789 0.936207,1.473328 0.184289,0.708191 -0.06227,1.014752 0.266282,1.595833 0.278496,0.492295 0.857572,0.731638 1.115169,1.240899 0.395971,0.781889 0.152359,1.416581 0.898375,1.99201 0.66993,-2.095457 -0.305111,-2.629006 -1.017812,-4.35466 -0.104267,-0.252325 0.05342,-0.633851 -0.05026,-0.897482 -0.161811,-0.411474 -0.639973,-0.974755 -0.919652,-1.289063 -0.482693,-0.542136 -1.325875,-1.312302 -1.228309,0.239135 z"
     style="fill:#418033;fill-opacity:1;stroke:none;stroke-width:0.589148;stroke-linecap:butt;stroke-linejoin:miter;stroke-miterlimit:10;stroke-dasharray:none;stroke-opacity:1" /><path
     id="path21"
     d="m 77.953163,96.496551 c -0.04157,-0.840313 -0.502398,-2.990008 -0.07726,-3.599563 0.319694,-0.458375 1.269505,-0.511353 1.681039,-0.881988 0.421003,-0.378799 0.752324,-1.068356 1.069842,-1.599386 0.04948,-0.08272 0.168321,-0.06219 0.190397,0.03289 0.14506,0.623586 0.441695,1.50327 0.326592,2.024467 -0.131858,0.59637 -0.787798,1.099759 -1.093891,1.645457 -0.354182,0.631968 -0.939955,3.749492 -2.096715,2.378139"
     style="fill:#418033;fill-opacity:1;fill-rule:nonzero;stroke:none;stroke-width:0.00203155" /><path
     id="path22"
     d="m 77.953163,96.496551 c -0.04157,-0.840313 -0.502398,-2.990008 -0.07726,-3.599563 0.319694,-0.458375 1.269505,-0.511353 1.681039,-0.881988 0.421003,-0.378799 0.752324,-1.068356 1.069842,-1.599386 0.04948,-0.08272 0.168321,-0.06219 0.190397,0.03289 0.14506,0.623586 0.441695,1.50327 0.326592,2.024467 -0.131858,0.59637 -0.787798,1.099759 -1.093891,1.645457 -0.354182,0.631968 -0.939955,3.749492 -2.096715,2.378139 z"
     style="fill:#418033;fill-opacity:1;stroke:none;stroke-width:0.589148;stroke-linecap:butt;stroke-linejoin:miter;stroke-miterlimit:10;stroke-dasharray:none;stroke-opacity:1" /><path
     id="path23"
     d="m 107.4024,64.713786 -0.28718,0.717195 c -0.0408,0.101767 0.005,0.21924 0.10112,0.261329 0.95749,0.417746 1.21765,0.603905 2.03463,0.113285 0.13008,-0.0781 0.12476,-0.279129 -0.009,-0.349908 l -1.58447,-0.84178 c -0.0962,-0.0511 -0.21325,-0.0054 -0.25542,0.09988"
     style="fill:#418033;fill-opacity:1;fill-rule:nonzero;stroke:none;stroke-width:0.00203155" /><path
     id="path24"
     d="m 107.4024,64.713786 -0.28718,0.717195 c -0.0408,0.101767 0.005,0.21924 0.10112,0.261329 0.95749,0.417746 1.21765,0.603905 2.03463,0.113285 0.13008,-0.0781 0.12476,-0.279129 -0.009,-0.349908 l -1.58447,-0.84178 c -0.0962,-0.0511 -0.21325,-0.0054 -0.25542,0.09988 z"
     style="fill:#418033;fill-opacity:1;stroke:none;stroke-width:0.589148;stroke-linecap:butt;stroke-linejoin:miter;stroke-miterlimit:10;stroke-dasharray:none;stroke-opacity:1" /><path
     id="path25"
     d="m 108.71526,67.537111 c -0.19749,-0.169608 -0.49393,-0.07539 -0.57159,0.181344 -0.24321,0.804092 -0.39696,0.836759 -1.1402,1.54159 -0.45293,0.429269 -1.09408,1.215144 -0.52841,1.806279 0.0978,0.101975 0.26193,0.06679 0.31377,-0.06806 0.15788,-0.409999 0.31418,-0.883241 0.60883,-1.080914 0.43578,-0.292528 1.22241,0.05318 1.65049,-0.279546 1.02392,-0.796137 0.37961,-1.489246 -0.33289,-2.100693"
     style="fill:#418033;fill-opacity:1;fill-rule:nonzero;stroke:none;stroke-width:0.00203155" /><path
     id="path26"
     d="m 108.71526,67.537111 c -0.19749,-0.169608 -0.49393,-0.07539 -0.57159,0.181344 -0.24321,0.804092 -0.39696,0.836759 -1.1402,1.54159 -0.45293,0.429269 -1.09408,1.215144 -0.52841,1.806279 0.0978,0.101975 0.26193,0.06679 0.31377,-0.06806 0.15788,-0.409999 0.31418,-0.883241 0.60883,-1.080914 0.43578,-0.292528 1.22241,0.05318 1.65049,-0.279546 1.02392,-0.796137 0.37961,-1.489246 -0.33289,-2.100693 z"
     style="fill:#418033;fill-opacity:1;stroke:none;stroke-width:0.589148;stroke-linecap:butt;stroke-linejoin:miter;stroke-miterlimit:10;stroke-dasharray:none;stroke-opacity:1" /><path
     id="path27"
     d="m 104.84389,76.656852 c -0.1638,0.36833 -0.78505,1.357952 -0.69812,1.729007 0.12021,0.513028 1.06017,0.859788 1.27916,1.371141 0.108,0.252534 0.32894,4.186511 1.51329,2.375421 0.009,-0.01256 -0.4606,-3.07921 -0.56231,-3.28044 -0.2783,-0.551351 -0.60844,-0.71112 -0.80711,-1.287598 -0.1088,-0.315977 0.0137,-1.98112 -0.72491,-0.907531"
     style="fill:#418033;fill-opacity:1;fill-rule:nonzero;stroke:none;stroke-width:0.00203155" /><path
     id="path28"
     d="m 104.84389,76.656852 c -0.1638,0.36833 -0.78505,1.357952 -0.69812,1.729007 0.12021,0.513028 1.06017,0.859788 1.27916,1.371141 0.108,0.252534 0.32894,4.186511 1.51329,2.375421 0.009,-0.01256 -0.4606,-3.07921 -0.56231,-3.28044 -0.2783,-0.551351 -0.60844,-0.71112 -0.80711,-1.287598 -0.1088,-0.315977 0.0137,-1.98112 -0.72491,-0.907531 z"
     style="fill:#418033;fill-opacity:1;stroke:none;stroke-width:0.589148;stroke-linecap:butt;stroke-linejoin:miter;stroke-miterlimit:10;stroke-dasharray:none;stroke-opacity:1" /><path
     id="path29"
     d="m 103.5257,85.713144 c 0,-1.480663 0.44759,-0.805766 0.90546,-1.878099 0.12318,-0.288344 -0.0164,-0.787549 -0.17069,-1.250529 -0.0988,-0.295881 -0.47126,-0.348649 -0.63958,-0.09067 -0.2312,0.354305 -0.47125,0.711745 -0.75428,0.978519 -0.39361,0.370845 -1.19776,0.532506 -1.4061,1.018312 -0.7472,1.743027 1.04698,2.382115 2.06519,1.222468"
     style="fill:#418033;fill-opacity:1;fill-rule:nonzero;stroke:none;stroke-width:0.00203155" /><path
     id="path30"
     d="m 103.5257,85.713144 c 0,-1.480663 0.44759,-0.805766 0.90546,-1.878099 0.12318,-0.288344 -0.0164,-0.787549 -0.17069,-1.250529 -0.0988,-0.295881 -0.47126,-0.348649 -0.63958,-0.09067 -0.2312,0.354305 -0.47125,0.711745 -0.75428,0.978519 -0.39361,0.370845 -1.19776,0.532506 -1.4061,1.018312 -0.7472,1.743027 1.04698,2.382115 2.06519,1.222467 z"
     style="fill:#418033;fill-opacity:1;stroke:none;stroke-width:0.589148;stroke-linecap:butt;stroke-linejoin:miter;stroke-miterlimit:10;stroke-dasharray:none;stroke-opacity:1" /><path
     id="path31"
     d="m 97.110583,86.086498 c 0.537685,0.355139 1.316013,0.691228 1.671383,1.219332 0.216209,0.32122 0.134021,0.977473 0.393798,1.254721 0.255836,0.273262 1.079706,0.358486 1.392096,0.493132 0.71408,0.307813 1.29532,0.91465 1.99443,1.205296 0.74443,0.309704 1.11419,0.14428 1.97411,-0.06448 -0.36936,-1.032132 -1.3909,-0.891835 -2.19703,-1.322568 -0.89403,-0.477844 -0.94923,-1.085524 -1.65661,-1.877673 -0.4543,-0.508635 -3.811647,-2.155766 -3.572177,-0.907751"
     style="fill:#418033;fill-opacity:1;fill-rule:nonzero;stroke:none;stroke-width:0.00203155" /><path
     id="path32"
     d="m 97.110583,86.086498 c 0.537685,0.355139 1.316013,0.691228 1.671383,1.219332 0.216209,0.32122 0.134021,0.977473 0.393798,1.254721 0.255836,0.273262 1.079706,0.358486 1.392096,0.493132 0.71408,0.307813 1.29532,0.91465 1.99443,1.205296 0.74443,0.309704 1.11419,0.14428 1.97411,-0.06448 -0.36936,-1.032132 -1.3909,-0.891835 -2.19703,-1.322568 -0.89403,-0.477844 -0.94923,-1.085524 -1.65661,-1.877673 -0.4543,-0.508635 -3.811647,-2.155766 -3.572177,-0.907751 z"
     style="fill:#418033;fill-opacity:1;stroke:none;stroke-width:0.589148;stroke-linecap:butt;stroke-linejoin:miter;stroke-miterlimit:10;stroke-dasharray:none;stroke-opacity:1" /><path
     id="path33"
     d="m 106.24997,84.312682 c -0.79983,0.501089 -1.74805,0.693742 -1.71357,1.750577 0.0309,0.957993 1.02471,1.333245 1.71357,0.536689 -0.22706,-0.303417 -0.45411,-0.606837 -0.68117,-0.910255 0.56883,-0.41629 1.33001,-0.62192 0.68117,-1.377011"
     style="fill:#418033;fill-opacity:1;fill-rule:nonzero;stroke:none;stroke-width:0.00203155" /><path
     id="path34"
     d="m 106.24997,84.312682 c -0.79983,0.501089 -1.74805,0.693742 -1.71357,1.750577 0.0309,0.957993 1.02471,1.333245 1.71357,0.536689 -0.22706,-0.303417 -0.45411,-0.606837 -0.68117,-0.910255 0.56883,-0.41629 1.33001,-0.62192 0.68117,-1.377011 z"
     style="fill:#418033;fill-opacity:1;stroke:none;stroke-width:0.589148;stroke-linecap:butt;stroke-linejoin:miter;stroke-miterlimit:10;stroke-dasharray:none;stroke-opacity:1" /><path
     id="path35"
     d="m 112.97255,88.840724 c 0.30531,0.223636 1.5618,1.444429 2.06518,0.93371 0.70462,-0.714889 -1.06609,-1.83266 -1.36686,-2.107808 -0.63289,-0.57899 -1.05823,-1.604416 -1.67139,-2.097134 -0.82623,-0.663791 -1.00637,0.220919 -2.01886,0.09109 -0.48663,-0.0624 -1.68439,-1.567561 -2.08292,-0.741068 -0.28895,0.598884 1.04343,1.338275 1.42874,1.537414 0.33942,0.175684 0.90291,0.162701 1.15954,0.433454 0.24577,0.259655 0.20341,0.908373 0.38493,1.226864 0.56743,0.996108 1.02588,0.790274 2.10164,0.723476"
     style="fill:#418033;fill-opacity:1;fill-rule:nonzero;stroke:none;stroke-width:0.00203155" /><path
     id="path36"
     d="m 112.97255,88.840724 c 0.30531,0.223636 1.5618,1.444429 2.06518,0.93371 0.70462,-0.714889 -1.06609,-1.83266 -1.36686,-2.107808 -0.63289,-0.57899 -1.05823,-1.604416 -1.67139,-2.097134 -0.82623,-0.663791 -1.00637,0.220919 -2.01886,0.09109 -0.48663,-0.0624 -1.68439,-1.567561 -2.08292,-0.741068 -0.28895,0.598884 1.04343,1.338275 1.42874,1.537414 0.33942,0.175684 0.90291,0.162701 1.15954,0.433454 0.24577,0.259655 0.20341,0.908373 0.38493,1.226864 0.56743,0.996108 1.02588,0.790274 2.10164,0.723478 z"
     style="fill:#418033;fill-opacity:1;stroke:none;stroke-width:0.589148;stroke-linecap:butt;stroke-linejoin:miter;stroke-miterlimit:10;stroke-dasharray:none;stroke-opacity:1" /><path
     id="path37"
     d="m 35.372823,31.869983 c 0.10269,0 0.20104,-0.0435 0.27377,-0.12082 1.3848,-1.47354 4.22931,-3.434569 3.62381,-5.745916 -0.25208,-0.961771 -1.25668,-1.595829 -1.59174,-2.532257 -0.41035,-1.147509 0.15865,-2.39741 -0.86901,-3.271436 -0.23237,0.442248 -2.07069,3.894397 -2.48243,1.499712 -0.11531,-0.670286 1.01998,-0.894139 0.34414,-1.71414 -0.29131,-0.353468 -1.24685,-0.355557 -1.61818,-0.107421 -0.51777,0.345928 -0.75231,1.320466 -1.23461,1.663466 -0.18645,0.13255 -0.60174,-0.167316 -0.81203,-0.02578 -0.22115,0.148875 -0.36622,0.468627 -0.56036,0.660024 -0.49116,0.484125 -0.86013,1.260787 -1.41358,1.665341 -0.52506,0.383415 -1.40904,0.353053 -1.88956,0.793628 -1.30261,1.193784 -0.3676,2.641149 -0.83471,4.030714 -0.29406,0.874452 -1.58978,1.798535 0.23652,1.792875 1.43387,-0.004 2.85397,-1.237553 4.28922,-1.295553 1.23737,-0.05 0.47777,0.35891 1.08048,0.893723 0.14625,0.12983 0.0219,0.33629 0.19435,0.46005 0.19256,0.1382 0.89324,0 1.14178,0 l -0.14349,1.10457 c -0.017,0.13172 0.0795,0.24919 0.20459,0.24919 h 2.06104"
     style="fill:#326327;fill-opacity:1;fill-rule:nonzero;stroke:none;stroke-width:0.00203155" /><path
     id="path38"
     d="m 35.372823,31.869983 c 0.10269,0 0.20104,-0.0435 0.27377,-0.12082 1.3848,-1.47354 4.22931,-3.434569 3.62381,-5.745916 -0.25208,-0.961771 -1.25668,-1.595829 -1.59174,-2.532257 -0.41035,-1.147509 0.15865,-2.39741 -0.86901,-3.271436 -0.23237,0.442248 -2.07069,3.894397 -2.48243,1.499712 -0.11531,-0.670286 1.01998,-0.894139 0.34414,-1.71414 -0.29131,-0.353468 -1.24685,-0.355557 -1.61818,-0.107421 -0.51777,0.345928 -0.75231,1.320466 -1.23461,1.663466 -0.18645,0.13255 -0.60174,-0.167316 -0.81203,-0.02578 -0.22115,0.148875 -0.36622,0.468627 -0.56036,0.660024 -0.49116,0.484125 -0.86013,1.260787 -1.41358,1.665341 -0.52506,0.383415 -1.40904,0.353053 -1.88956,0.793628 -1.30261,1.193784 -0.3676,2.641149 -0.83471,4.030714 -0.29406,0.874452 -1.58978,1.798535 0.23652,1.792875 1.43387,-0.004 2.85397,-1.237553 4.28922,-1.295553 1.23737,-0.05 0.47777,0.35891 1.08048,0.893723 0.14625,0.12983 0.0219,0.33629 0.19435,0.46005 0.19256,0.1382 0.89324,0 1.14178,0 l -0.14349,1.10457 c -0.017,0.13172 0.0795,0.24919 0.20459,0.24919 z"
     style="fill:#326327;fill-opacity:1;stroke:none;stroke-width:0.589148;stroke-linecap:butt;stroke-linejoin:miter;stroke-miterlimit:10;stroke-dasharray:none;stroke-opacity:1" /><path
     id="path39"
     d="m 33.504743,34.634043 1.3848,-0.72076 c 0.16654,-0.0867 0.20459,-0.3212 0.0747,-0.46193 l -0.59622,-0.6464 c -0.11393,-0.12355 -0.30412,-0.1137 -0.40622,0.0209 -0.36148,0.4768 -0.71605,0.91067 -0.84161,1.48129 -0.0522,0.23808 0.17799,0.4343 0.38455,0.32688"
     style="fill:#326327;fill-opacity:1;fill-rule:nonzero;stroke:none;stroke-width:0.00203155" /><path
     id="path40"
     d="m 33.504743,34.634043 1.3848,-0.72076 c 0.16654,-0.0867 0.20459,-0.3212 0.0747,-0.46193 l -0.59622,-0.6464 c -0.11393,-0.12355 -0.30412,-0.1137 -0.40622,0.0209 -0.36148,0.4768 -0.71605,0.91067 -0.84161,1.48129 -0.0522,0.23808 0.17799,0.4343 0.38455,0.32688 z"
     style="fill:#326327;fill-opacity:1;stroke:none;stroke-width:0.589148;stroke-linecap:butt;stroke-linejoin:miter;stroke-miterlimit:10;stroke-dasharray:none;stroke-opacity:1" /><path
     id="path41"
     d="m 39.533933,33.970663 c 1.15972,-0.54004 3.06052,-0.99276 3.95219,-1.90888 0.41154,-0.42277 0.51855,-1.89694 1.08462,-1.91725 0.55286,-0.0199 0.96992,1.20802 0.83648,1.6666 -0.12791,0.43891 -1.47585,0.89708 -1.86021,1.16908 -0.84415,0.59741 -0.76158,0.74629 -1.36509,1.6375 -0.51659,0.76304 -0.88318,1.10289 -1.98357,0.75341 -0.60687,-0.19285 -1.22418,-0.60389 -0.66442,-1.40046"
     style="fill:#326327;fill-opacity:1;fill-rule:nonzero;stroke:none;stroke-width:0.00203155" /><path
     id="path42"
     d="m 39.533933,33.970663 c 1.15972,-0.54004 3.06052,-0.99276 3.95219,-1.90888 0.41154,-0.42277 0.51855,-1.89694 1.08462,-1.91725 0.55286,-0.0199 0.96992,1.20802 0.83648,1.6666 -0.12791,0.43891 -1.47585,0.89708 -1.86021,1.16908 -0.84415,0.59741 -0.76158,0.74629 -1.36509,1.6375 -0.51659,0.76304 -0.88318,1.10289 -1.98357,0.75341 -0.60687,-0.19285 -1.22418,-0.60389 -0.66442,-1.40046 z"
     style="fill:#326327;fill-opacity:1;stroke:none;stroke-width:0.589148;stroke-linecap:butt;stroke-linejoin:miter;stroke-miterlimit:10;stroke-dasharray:none;stroke-opacity:1" /><path
     id="path43"
     d="m 35.991242,74.369378 c -0.35143,0.140091 -0.703048,0.280174 -1.05447,0.420263 0.727681,1.481709 0.76335,0.663167 2.109132,1.073592 0.660472,0.20144 1.763427,1.721468 2.59655,1.120284 1.105914,-0.797813 -0.660072,-1.13243 -1.119707,-1.292415 -0.869979,-0.302578 -1.710011,-0.885335 -2.531505,-1.321724"
     style="fill:#418033;fill-opacity:1;fill-rule:nonzero;stroke:none;stroke-width:0.00203155" /><path
     id="path44"
     d="m 35.991242,74.369378 c -0.35143,0.140091 -0.703048,0.280174 -1.05447,0.420263 0.727681,1.481709 0.76335,0.663167 2.109132,1.073592 0.660472,0.20144 1.763427,1.721468 2.59655,1.120284 1.105914,-0.797813 -0.660072,-1.13243 -1.119707,-1.292415 -0.869979,-0.302578 -1.710011,-0.885335 -2.531505,-1.321724 z"
     style="fill:#418033;fill-opacity:1;stroke:none;stroke-width:0.589148;stroke-linecap:butt;stroke-linejoin:miter;stroke-miterlimit:10;stroke-dasharray:none;stroke-opacity:1" /></svg>
