<svg width="22" height="22" version="1.1" xmlns="http://www.w3.org/2000/svg">
 <defs>
  <linearGradient id="a" x1="7.937" x2="7.937" y1="15.081" y2="1.852" gradientTransform="translate(.001 .016)scale(1.8897)" gradientUnits="userSpaceOnUse">
   <stop stop-color="#3377f4" offset="0"/>
   <stop stop-color="#5194f5" offset="1"/>
  </linearGradient>
 </defs>
 <circle cx="117.18" cy="49.145" r="30.001" fill="none"/>
 <circle cx="117.18" cy="49.145" r="30.001" fill="none"/>
 <rect width="22" height="22" rx="11" ry="11" fill="url(#a)"/>
 <path d="m6.7793 4.4375a4.95 4.95 0 0 0-4.9434 4.8047 4.95 4.95 0 0 0-1.8184 1.1172c-0.012059 0.21196-0.017578 0.42554-0.017578 0.64062 0 0.96878 0.12439 1.907 0.35742 2.8008a15 15 0 0 1 1.0332-0.15625 3.34 3.34 0 0 1 3.3379-3.2578h0.0078125a4.77 4.77 0 0 1 4.7715-4.7109c0.197 0 0.38998 0.015062 0.58398 0.039063a4.95 4.95 0 0 0-3.3125-1.2773zm13.219 5.3691c0.045 0.284 0.076172 0.57505 0.076172 0.87305a5.6 5.6 0 0 1-0.4668 2.2188 15 15 0 0 1 2.043 0.87891c0.22887-0.88634 0.34961-1.8175 0.34961-2.7773 0-0.19738-0.005458-0.39313-0.015625-0.58789a3.6 3.6 0 0 0-1.9844-0.60547h-0.001953z" fill="#fff" opacity=".35"/>
 <path d="m14.465 5.0781c-1.1161 0.0011621-2.2063 0.33575-3.1309 0.96094-0.579-0.2397-1.1995-0.36393-1.8262-0.36523-2.6131-0.0012822-4.7403 2.1-4.7715 4.7129h-0.0058593c-1.8123 5.39e-4 -3.2934 1.4461-3.3379 3.2578-0.34787 0.037909-0.69198 0.093157-1.0352 0.1582 1.2332 4.7281 5.5177 8.1973 10.643 8.1973 5.1347 0 9.4266-3.4827 10.65-8.2246-0.65738-0.34139-1.3403-0.63431-2.041-0.875 0.30515-0.70046 0.46454-1.4567 0.4668-2.2207-0.00276-3.0963-2.5151-5.6038-5.6113-5.6016z" fill="#fff"/>
</svg>
